<svg width="95" height="52" viewBox="0 0 95 52" fill="none" xmlns="http://www.w3.org/2000/svg">
<path d="M91.3919 20.2023C79.6342 19.6794 81.7996 16.0276 74.9225 19.4708C68.0455 22.914 54.3057 31.3604 59.9482 18.1399C65.5908 4.91651 38.3261 40.694 45.1401 21.3481C51.957 2.00507 -22.353 75.5491 6.8165 44.0432C6.8165 44.0432 21.4356 27.4471 11.0269 25.0674C0.618276 22.6878 9.2683 10.0314 17.6405 4.71673C26.0098 -0.597894 31.0795 -0.756539 33.7719 1.00619C35.7626 2.31061 35.6279 9.00898 32.7723 15.8777C35.8915 12.4581 40.1105 8.40965 45.5096 4.14972C64.5454 -10.8629 36.8596 21.9562 44.2035 16.8061C51.5503 11.656 55.122 11.8587 59.0116 13.5979C62.9013 15.3342 58.3557 4.94883 71.6057 4.54928C84.8586 4.14972 70.8181 13.0045 70.8181 13.0045C80.5909 11.4886 85.2997 6.87314 90.6787 8.19225C96.0578 9.51136 82.3982 14.1209 82.3982 14.1209C82.3982 14.1209 103.153 20.7253 91.3919 20.2023Z" fill="white"/>
</svg>
