<svg id="b1a19c37-acf2-4c13-a4d8-398f64445f63" data-name="Layer 1" xmlns="http://www.w3.org/2000/svg" viewBox="0 0 1951.74 193"><defs><style>.bdacd0a6-d14c-4db0-976a-ebd0de10040c{fill:none;stroke:#000;stroke-miterlimit:10;stroke-width:4px;}</style></defs><path d="M93.54,21.91c-.68-1.2-1.43-2.66-2.27-4.38a15.68,15.68,0,0,0-3.79-5.15,17.74,17.74,0,0,0-6.81-4.12q-4.29-1.54-11.35-1a18.93,18.93,0,0,0-11.1,4.64,41.9,41.9,0,0,0-8.58,9.53,78.73,78.73,0,0,0-6.06,11.85q-2.27,6.18-3.78,11.34-1,3.87-3.53,12.11Q34,65,31,75.51q-2.77,10.3-6.06,22.42-3,12.1-5.29,24-2.28,11.6-3.79,22.16a83.73,83.73,0,0,0-1,17.52,40,40,0,0,0,1.77,9.79,27.51,27.51,0,0,0,4.54,8.51,23.92,23.92,0,0,0,7.57,5.92,25.11,25.11,0,0,0,11.1,2.32q14.13-.51,20.69-6.18a27.15,27.15,0,0,0,9.08-14.17q1-3.62,1.77-6.7c.5-2.07,1-4.21,1.51-6.45.5-2.4,1-5.15,1.51-8.24s1.1-7,1.77-11.6a15.56,15.56,0,0,0,.5-2.57q.25-2.07,1-6.7a45.65,45.65,0,0,0,7.82,8.5,34.47,34.47,0,0,0,11.61,6.18,38.72,38.72,0,0,0,21.19.78,49.87,49.87,0,0,0,19.17-10.31,71.79,71.79,0,0,0,15.65-19.32,110.84,110.84,0,0,0,11.1-27.06,93,93,0,0,0,3.28-25.51,67.3,67.3,0,0,0-4-22.42,46.42,46.42,0,0,0-10.85-17A40.07,40.07,0,0,0,135.67,9a35.08,35.08,0,0,0-22.2.52A52.34,52.34,0,0,0,93.54,21.91Zm43.64,30.67c-1.18-1.21-3.19-1-6.05.51a58.52,58.52,0,0,0-8.58,6.19c-2.86,2.57-5.55,5.24-8.07,8q-3.54,3.87-4.8,5.16Q99.84,84.78,96.56,93.55q-3.27,8.51-1.26,10t9.59-3.1q7.81-4.89,17.91-17t13.12-20.62Q139.21,54.12,137.18,52.58Zm-57,82.19q-1,7.22-1.77,12.11c-.51,3.1-1,5.93-1.51,8.51a67,67,0,0,1-1.77,6.7q-.75,3.09-1.77,6.7a31.81,31.81,0,0,1-10.59,16.49q-7.83,6.18-23,6.7a27.19,27.19,0,0,1-12.61-2.32,26.87,26.87,0,0,1-8.83-6.7,34.75,34.75,0,0,1-5.55-9.79,44.22,44.22,0,0,1-2-11.34,119.79,119.79,0,0,1,1-18q1.52-10.81,3.78-22.67,2.52-11.87,5.55-24,3-12.36,5.8-22.93,3-10.56,5.3-18.55,2.52-8.25,3.53-12.11,1.52-4.64,4-11.34a66,66,0,0,1,6.56-12.88A48.47,48.47,0,0,1,56,8.52,22.26,22.26,0,0,1,69.06,3.36a32.89,32.89,0,0,1,10.35.52,25.93,25.93,0,0,1,7.31,2.83,16.68,16.68,0,0,1,4.8,4.12,26.77,26.77,0,0,1,3.28,4.64,54.1,54.1,0,0,1,7.57-5.41,38.25,38.25,0,0,1,10.09-4.38,43.36,43.36,0,0,1,11.6-2.06,33.47,33.47,0,0,1,12.87,1.55,43.05,43.05,0,0,1,18.42,11.08A52.2,52.2,0,0,1,167,34.8a65.92,65.92,0,0,1,4.54,23.7A94.88,94.88,0,0,1,168,85.3a111.36,111.36,0,0,1-11.86,28.6,77.38,77.38,0,0,1-16.9,20.36,50.37,50.37,0,0,1-20.43,10.82,42.67,42.67,0,0,1-22.71-1A34.61,34.61,0,0,1,86,139.41,42.86,42.86,0,0,1,80.17,134.77Zm59.54-85.28q2.26,1.8,2,5.92a22.84,22.84,0,0,1-2.27,9A71.15,71.15,0,0,1,133.9,75a95.63,95.63,0,0,1-8.07,11.08,131.19,131.19,0,0,1-9.34,10.05,84.61,84.61,0,0,1-9.33,7.48,28.59,28.59,0,0,1-8.33,4.12q-3.78.77-6-1a7,7,0,0,1-2-5.93,28.69,28.69,0,0,1,2.27-9,88.68,88.68,0,0,1,5.8-10.82q3.8-5.67,8.08-11.08A101.87,101.87,0,0,1,116,59.79a57.74,57.74,0,0,1,9.33-7.47,23.83,23.83,0,0,1,8.33-3.87C136.17,47.77,138.19,48.11,139.71,49.49Zm-60.05,85-2.77-2.84q-1.27-1.8-2.53-3.86-1.76-2.32-3-4.38-1-2.32-2-4.38c-.68-1.38-.34-2.24,1-2.58a1.69,1.69,0,0,1,2.52.77c.67,1.38,1.34,2.75,2,4.13q1.26,2.06,2.77,4.12c.84,1.2,1.68,2.32,2.53,3.35l2.52,2.57c.84.86.84,1.89,0,3.1Q80.92,135.81,79.66,134.52Zm0,0-2.77-2.84q-1.27-1.8-2.53-3.86-1.76-2.32-3-4.38-1-2.32-2-4.38c-.68-1.38-.34-2.24,1-2.58a1.69,1.69,0,0,1,2.52.77c.67,1.38,1.34,2.75,2,4.13q1.26,2.06,2.77,4.12c.84,1.2,1.68,2.32,2.53,3.35l2.52,2.57c.84.86.84,1.89,0,3.1Q80.92,135.81,79.66,134.52Z"/><path d="M318.22,161.31a133.3,133.3,0,0,0,3.54-29.63A202.4,202.4,0,0,0,320,98.44a212.48,212.48,0,0,0-7.06-33,134.28,134.28,0,0,0-11.86-28.6q-6.81-12.37-15.9-19.58a29.46,29.46,0,0,0-19.93-7.22q-13.87.26-26.23,9.54A112.56,112.56,0,0,0,216.3,42.79a192.56,192.56,0,0,0-18.42,30.4,285.59,285.59,0,0,0-13.12,30.92q-7.06,19.85-8.07,35-1,15,2,25.26,3,10,9.33,15.2a21.48,21.48,0,0,0,13.88,5.15,28.87,28.87,0,0,0,13.88-3.86,48.83,48.83,0,0,0,13.37-12.11,80,80,0,0,0,11.1-20.1,115.64,115.64,0,0,0,7.31-28.6,1.81,1.81,0,0,1,2.27-1.81c1.52,0,2.27.69,2.27,2.06a113.5,113.5,0,0,0,3.28,28.86,73.7,73.7,0,0,0,8.83,20.1,41.43,41.43,0,0,0,12.37,12.11,27.36,27.36,0,0,0,13.62,3.87,26.08,26.08,0,0,0,16.4-5.93Q314.18,173.17,318.22,161.31ZM272.56,44.85q-1.51-1.29-9.08,3.09-7.32,4.13-16.91,16-1,1.29-4,5.42-2.78,4.11-5.81,9a56.47,56.47,0,0,0-4.28,9.28q-1.51,4.13.25,5.67,1.52,1.29,8.83-2.84,7.56-4.38,17.15-16.23t12.37-19.84Q274.07,46.13,272.56,44.85Zm-24,92.76a105.87,105.87,0,0,1-8.83,22.93,71.94,71.94,0,0,1-11.6,16.23A46,46,0,0,1,215,186.05a28.67,28.67,0,0,1-13.12,3.35,25.76,25.76,0,0,1-16.15-5.67q-7.31-5.67-11.1-16.49-3.53-11.09-2.77-27.31,1-16.25,8.57-37.36,3.28-9.54,8.08-20.36A229.8,229.8,0,0,1,199.4,60.82a212.11,212.11,0,0,1,13.12-20.61,111.48,111.48,0,0,1,15.64-17.52,77.17,77.17,0,0,1,17.4-12.37A46,46,0,0,1,265,5.42a33.44,33.44,0,0,1,21.95,7.48q9.84,7.47,17.41,20.35A136.89,136.89,0,0,1,317,62.63a206,206,0,0,1,7.32,34.27,201,201,0,0,1,2,34.52,144.13,144.13,0,0,1-3.54,30.92l-.25.26q-4.54,13.67-13.37,20.62a29.83,29.83,0,0,1-32.54,3.35A39.47,39.47,0,0,1,264.23,177a64,64,0,0,1-9.84-16.23A93.07,93.07,0,0,1,248.59,137.61ZM275.33,41.5q2.28,2.05,2,6.18a28.1,28.1,0,0,1-2.27,8.76,62,62,0,0,1-5.55,10.31A114.83,114.83,0,0,1,262,77.06a103.09,103.09,0,0,1-7.06,8q-3.78,3.61-7.57,6.7A50.36,50.36,0,0,1,240,96.38a14.3,14.3,0,0,1-6,1.55,5.46,5.46,0,0,1-4-1.29,7,7,0,0,1-2-5.93A28.28,28.28,0,0,1,230.18,82a62.39,62.39,0,0,1,5.55-10.31,98.15,98.15,0,0,1,7.56-10.56,97.17,97.17,0,0,1,14.64-14.43q7.81-6.43,13.62-6.44A5.06,5.06,0,0,1,275.33,41.5Z"/><path d="M842.3,74.74l-6.31.51h-6.81a21.7,21.7,0,0,1-4-.26q-2,5.16-5.29,15.46-3,10.32-6.06,22.16-2.77,11.86-5,23.71a116,116,0,0,0-2,19.33q0,13.4,7.57,21.64a24.6,24.6,0,0,0,18.92,8.25q13.88,0,23.46-12.63Q866.52,160,870.3,132.2q3-21.9,4.8-34,2-12.36,3.28-18.29,1.26-6.18,2-7.47a2.71,2.71,0,0,1,2-1.29q3.29.25,9.09.26h9.58q20.45,0,31.79-7.22T944.73,41.5q.25-9-4.54-14.69a36.51,36.51,0,0,0-12.37-9.28,63.09,63.09,0,0,0-17.15-5.15,145.74,145.74,0,0,0-19.17-2.32q-9.6-.51-18.42-.51-8.58,0-14.38-.26Q853.41,9,844.82,9q-8.33,0-17.66.77a186.86,186.86,0,0,0-18.92,2.58,70.06,70.06,0,0,0-16.9,5.41,35.41,35.41,0,0,0-12.11,9.54q-4.8,5.66-4.8,14.17,0,13.91,14.89,21.9,14.88,7.73,39.86,7.73H836a35.43,35.43,0,0,0,6.06-.52c1,0,1.68.69,2,2.07A2.08,2.08,0,0,1,842.3,74.74ZM821.11,75Q795.63,73.44,783,64.17,770.65,54.9,770.65,41.5q0-9.8,5.05-16.24A39.47,39.47,0,0,1,788.56,14.7a71.17,71.17,0,0,1,17.92-6.18,163.13,163.13,0,0,1,19.93-2.84,169.56,169.56,0,0,1,18.41-.51q8.58,0,13.88.25c4,.18,9,.26,14.88.26q9.09,0,19.18.77a155.7,155.7,0,0,1,19.93,2.32A61.44,61.44,0,0,1,930.6,14.7,34,34,0,0,1,943.47,25q5,6.43,4.79,16.49-.25,16-11.86,25-11.6,8.76-35.32,8.76H883.17q-.75,2.58-2.27,10.31-1.26,7.47-2.52,16.75-1.26,9-2.53,17.52t-1.76,12.88q-4,28.1-14.38,42.52t-26.49,14.43a27.92,27.92,0,0,1-21.7-9.54q-8.58-9.52-8.58-24.47a112.63,112.63,0,0,1,2-19.07q2-11.6,4.79-23.19,3-11.85,6.06-22.16Q818.84,80.66,821.11,75Z"/><path d="M1093,126.53a123.05,123.05,0,0,1-15.9,25.76,109.41,109.41,0,0,1-19.93,19.85,83.85,83.85,0,0,1-22.45,12.62,66,66,0,0,1-23.46,4.38,55,55,0,0,1-24-5.41,58.59,58.59,0,0,1-22.45-19.32,79.19,79.19,0,0,1-12.37-28.86,108.48,108.48,0,0,1-1-34.79A122.38,122.38,0,0,1,962,64.17a121,121,0,0,1,15.64-25.76,106.87,106.87,0,0,1,19.68-19.59A87.77,87.77,0,0,1,1020.06,6.2a67.33,67.33,0,0,1,23.46-4.38,56.61,56.61,0,0,1,46.67,24.47,75.86,75.86,0,0,1,12.11,28.86,108.19,108.19,0,0,1,1,34.79A117,117,0,0,1,1093,126.53Zm-4-1.81A117.63,117.63,0,0,0,1099,89.42a98.78,98.78,0,0,0-1-33.24,73.36,73.36,0,0,0-11.6-27.31,50.84,50.84,0,0,0-20.69-17.78,38.67,38.67,0,0,0-10.59-3.61,50.6,50.6,0,0,0-11.36-1.28,62.71,62.71,0,0,0-21.95,4.12,85.62,85.62,0,0,0-21.44,11.85A105,105,0,0,0,981.21,41a117.85,117.85,0,0,0-15.14,25,123.94,123.94,0,0,0-10.35,35.55,102.08,102.08,0,0,0,1.27,33,75.9,75.9,0,0,0,11.35,27.31A53,53,0,0,0,989,179.61a51.84,51.84,0,0,0,22.45,4.89,62.71,62.71,0,0,0,22-4.12,81.56,81.56,0,0,0,21.19-11.85,104.64,104.64,0,0,0,19.17-18.81A117.85,117.85,0,0,0,1088.93,124.72Zm-41.37-58.23a2.46,2.46,0,0,0-1.77-.51q-2.52,0-6.31,2.83a76.47,76.47,0,0,0-7.57,5.93,85,85,0,0,0-6.81,6.7,28.66,28.66,0,0,0-3.78,4.38c-.67.86-2.1,2.74-4.29,5.67a105.87,105.87,0,0,0-6,9.27,55.76,55.76,0,0,0-4.29,9.28q-1.52,4.38.25,5.92t9.33-2.83q7.58-4.63,17.41-16.75,9.84-11.59,12.62-19.84Q1049.32,68,1047.56,66.49Zm3-3.09q2.28,1.8,2,5.93a30.73,30.73,0,0,1-2.27,9,71.22,71.22,0,0,1-5.55,10.57,90.74,90.74,0,0,1-8.07,10.56q-3.54,4.13-7.57,8.25a66.92,66.92,0,0,1-7.57,6.7,51.23,51.23,0,0,1-7.32,4.64,12.7,12.7,0,0,1-6,1.8,6.26,6.26,0,0,1-3.78-1.29,6.58,6.58,0,0,1-2.27-5.93,28.1,28.1,0,0,1,2.27-9A57.72,57.72,0,0,1,1010,94.06a97.11,97.11,0,0,1,7.82-10.82,103.78,103.78,0,0,1,15.13-14.95q7.83-6.44,13.38-6.44A6.26,6.26,0,0,1,1050.58,63.4Z"/><path d="M1379.43,105.14a17.92,17.92,0,0,1-6.31-4.89,8.42,8.42,0,0,1-2-6.7,9.42,9.42,0,0,1,4-6.7,14.13,14.13,0,0,1,8.58-2.58q-5.55-9-7.83-22.93a1.58,1.58,0,0,1,.26-1.55,4,4,0,0,1,1.51-1,2.07,2.07,0,0,1,2.78,1.8,75.15,75.15,0,0,0,4,15,45,45,0,0,0,7.32,12.37,39.18,39.18,0,0,0,11.1,8.76,33.9,33.9,0,0,0,14.63,3.09,33.19,33.19,0,0,0,18.67-5.67,34.82,34.82,0,0,0,12.87-15.46,49,49,0,0,0,3.78-13.14,46,46,0,0,0,0-13.66,43.31,43.31,0,0,0-3.53-13.14,40.21,40.21,0,0,0-7.57-11.59q-8.07-8.51-22.2-13.66A83.3,83.3,0,0,0,1389,8a91.47,91.47,0,0,0-26,3.87,76.82,76.82,0,0,0-24.73,12.62,83.47,83.47,0,0,0-20.68,22.68q-8.83,13.9-13.12,34.27-5.55,26-1.26,45.6,4.53,19.33,15.64,32.21a71.87,71.87,0,0,0,27.24,19.33,93.12,93.12,0,0,0,33.56,6.18,96.18,96.18,0,0,0,27.25-3.86q11.85-3.36,19.42-10.31a38.77,38.77,0,0,0,10.85-16.23,36.36,36.36,0,0,0,1-19.07,45,45,0,0,0-9.08-19.84,28.26,28.26,0,0,0-12.36-9,36.68,36.68,0,0,0-14.89-3.35,37.48,37.48,0,0,0-20.69,6.18,44.31,44.31,0,0,0-15.13,16.49,2.2,2.2,0,0,1-3,1q-2-1.56-.76-3.1A43.28,43.28,0,0,1,1379.43,105.14Zm7.82-16a20.44,20.44,0,0,0-3.53-.26,12.73,12.73,0,0,0-3.54.51,8.55,8.55,0,0,0-3,1.55,4.29,4.29,0,0,0-1.52,2.83q-.26,2.07,2.27,4.9a10.92,10.92,0,0,0,7.32,3.35,37.45,37.45,0,0,1,12.36-3.35A38.22,38.22,0,0,1,1387.25,89.17Zm35.57,14.94a35.68,35.68,0,0,1,5.3,3.61,25,25,0,0,1,4.54,4.89q8.07,10.83,10.09,22.16a40.69,40.69,0,0,1-1.51,21.13,42.63,42.63,0,0,1-11.86,18q-8.33,7.73-21.19,11.34a106,106,0,0,1-28.51,3.86,98.44,98.44,0,0,1-35.32-6.44,74.4,74.4,0,0,1-28.76-20.1q-11.86-13.65-16.65-34-4.8-20.61,1.26-48.18,4.55-21.39,13.87-36.08a87.93,87.93,0,0,1,21.45-23.7,82.55,82.55,0,0,1,26-13.15A96.49,96.49,0,0,1,1389,3.36,90,90,0,0,1,1421.31,9q14.88,5.67,23.71,15a44.14,44.14,0,0,1,8.33,12.62,54,54,0,0,1,4,14.43,56.88,56.88,0,0,1,0,15.2,50.55,50.55,0,0,1-4,14.18,40.71,40.71,0,0,1-30.53,23.7Z"/><path d="M1558.94,78.86a32.6,32.6,0,0,0-10.09-3.61,50.35,50.35,0,0,0-7.32-.77,12,12,0,0,0-2.52.26h-1.76q1.76-9.28,2.77-16a93.78,93.78,0,0,0,1.51-12.37,64.92,64.92,0,0,0,.26-9.79,59,59,0,0,0-1.26-9.27,27.3,27.3,0,0,0-1.77-5.16,18.59,18.59,0,0,0-3.78-5.41,23,23,0,0,0-6.06-4.38,24.08,24.08,0,0,0-8.58-2.83q-10.33-1.29-17.4,2.83a40.88,40.88,0,0,0-12.62,11.85,69.14,69.14,0,0,0-6,12.11q-3.29,8.5-6.82,19.84t-6.81,25q-3,13.39-5.3,27.05a251.84,251.84,0,0,0-3,26.54,145.11,145.11,0,0,0,.75,23.19,51.92,51.92,0,0,0,5.3,17.27,16.92,16.92,0,0,0,11.35,8.24,40.84,40.84,0,0,0,13.38.78,33.72,33.72,0,0,0,10.09-3.35,30.42,30.42,0,0,0,7.57-5.93,31.55,31.55,0,0,0,5-7.21,77.15,77.15,0,0,0,4.29-9.8,81.8,81.8,0,0,0,3-9.79,93.18,93.18,0,0,0,2.52-11.33q1.26-6.45,2.78-15.21a36.5,36.5,0,0,0,7.31,2.06,41,41,0,0,0,5.8.52,27.26,27.26,0,0,0,3.28-.26c1.52-.17,3.12-.43,4.8-.77q-1.77,8.76-3.53,18.81a71.15,71.15,0,0,0-.51,18.81,35.78,35.78,0,0,0,5.55,15.72q4.55,6.69,15.39,9a23.05,23.05,0,0,0,11.35-.26,34.49,34.49,0,0,0,9.84-4.38,40.25,40.25,0,0,0,7.32-6.7,62.93,62.93,0,0,0,4.54-6.44,82,82,0,0,0,5.3-13.4,124.59,124.59,0,0,0,3.53-13.66q1.77-7.72,3.53-18,1.77-10.56,4.8-26.54,3-15.45,5-25.76,2-10.57,3-18a79.59,79.59,0,0,0,.76-13.4,52.57,52.57,0,0,0-1.27-11.59,26.52,26.52,0,0,0-1.76-5.16,18.44,18.44,0,0,0-3.79-5.41,23,23,0,0,0-6-4.38,24.15,24.15,0,0,0-8.58-2.83,25.31,25.31,0,0,0-9.58.25,30.79,30.79,0,0,0-7.32,2.32,29.5,29.5,0,0,0-5.3,3.09,31.37,31.37,0,0,0-2.77,2.32,38.9,38.9,0,0,0-5.3,7,70.88,70.88,0,0,0-4.54,8.76q-1.77,4.38-3.28,9c-.84,3.09-1.52,5.93-2,8.5q-1.26,7.47-2.52,14.43T1558.94,78.86Zm-14.63,49.21h-2.78q-3.78,0-6.55-.25c-1.69-.35-2.78-.61-3.28-.78q-1.28,7.21-2.53,12.89-1,5.41-2.27,10.3a88.3,88.3,0,0,1-3,9.54,59.58,59.58,0,0,1-4.28,9.79,49,49,0,0,1-5.81,8.24,33.81,33.81,0,0,1-8.57,6.7,38.66,38.66,0,0,1-11.61,3.61,42.61,42.61,0,0,1-14.63-.51,20.44,20.44,0,0,1-13.12-9q-4.8-7.22-6.56-18a122,122,0,0,1-1.26-24.22q.75-13.66,2.77-27.83,2.28-14.17,5.55-28.08,3.54-13.92,7.07-25.77,3.78-11.85,7.31-20.36,3.54-8.76,6.06-12.37a49.22,49.22,0,0,1,14.13-13.14q8.07-4.89,20.18-3.35a29.16,29.16,0,0,1,10.09,3.1,25.88,25.88,0,0,1,7.07,5.41,25.24,25.24,0,0,1,4.28,6.44,21.25,21.25,0,0,1,2.27,6.18,58,58,0,0,1,1.27,9.28,62.34,62.34,0,0,1-.26,9.53,98.26,98.26,0,0,1-1.26,11.08q-.75,6.18-2.27,14.17c.84,0,2.52.09,5,.26a30.77,30.77,0,0,1,8.58,2.06q1-4.89,1.76-10.56,1-5.67,2.27-12.37a59.56,59.56,0,0,1,1.26-6.18q1.26-4.38,3-9.28A95.07,95.07,0,0,1,1569,24.23a45.12,45.12,0,0,1,7.07-9.53,36.8,36.8,0,0,1,3-2.58,26.1,26.1,0,0,1,6-3.6,38.56,38.56,0,0,1,8.58-2.84,34,34,0,0,1,11.1-.26,26.7,26.7,0,0,1,9.84,3.1,25.83,25.83,0,0,1,7.06,5.41,22.54,22.54,0,0,1,4.54,6.44,21.25,21.25,0,0,1,2.27,6.18,61.84,61.84,0,0,1,1.27,12.37,107.62,107.62,0,0,1-1,13.66q-1,7.72-3,18.29t-5,26q-3,16-4.79,26.54t-3.53,18.29a134.5,134.5,0,0,1-3.53,14.17,118.3,118.3,0,0,1-5.56,13.66,32.52,32.52,0,0,1-5,7.47,46.15,46.15,0,0,1-8.58,7.22,33,33,0,0,1-10.85,4.89,25.87,25.87,0,0,1-13.12.26q-11.85-2.58-17.15-9.53a37.55,37.55,0,0,1-6.81-16.24,62.19,62.19,0,0,1-.26-18.55Q1542.81,135.55,1544.31,128.07Zm1-53.33H1539a40.82,40.82,0,0,0-7.06.77,25.79,25.79,0,0,0-8.08,3.35,1.48,1.48,0,0,1-1.51.26,2.49,2.49,0,0,1-1.26-1,2.18,2.18,0,0,1,.76-2.84,31.77,31.77,0,0,1,9.08-3.61,39.31,39.31,0,0,1,7.82-1h6.56c1.34.35,2,1,2,2.07A1.81,1.81,0,0,1,1545.32,74.74Zm-10.09,48.7c1.34.68,1.76,1.54,1.26,2.57a2.48,2.48,0,0,1-1,1.29,1.25,1.25,0,0,1-1.51,0q-3.29-.76-6.31-1.55a57.34,57.34,0,0,1-7.06-3.34,34.88,34.88,0,0,1-7.57-6.19c-1-1.37-.93-2.32.25-2.83a1.83,1.83,0,0,1,2.77.25l2.78,2.84a28.73,28.73,0,0,0,3.78,2.32,53.45,53.45,0,0,0,6.56,3.09C1531,122.41,1533,122.92,1535.23,123.44Zm20.43-50.51a2.35,2.35,0,0,1,2.53-1.8,2.44,2.44,0,0,1,1.26,1,1.05,1.05,0,0,1,.5,1.29l-1.76,14.69a2.19,2.19,0,0,1-2.27,1.8,2.28,2.28,0,0,1-2-2.32Zm-4.54,42.52c-.33,2.4-.76,4.89-1.26,7.47-.5,2.41-.92,4.81-1.26,7.22a1.84,1.84,0,0,1-2.52,1.54c-1.52-.34-2.11-1.11-1.77-2.32.5-2.4.93-4.81,1.26-7.21.51-2.58,1-5.07,1.52-7.47a1.83,1.83,0,0,1,2.52-1.55C1551,113.47,1551.46,114.25,1551.12,115.45Z"/><path d="M1693,64.69c-1.35-.69-1.68-1.63-1-2.84s1.51-1.54,2.52-1q6.82,2.58,15.14,5.41,3.78,1,7.32,2.06,3.52.78,6.81,1.29c3,.35,6.22.6,9.59.78,3.36,0,7-.18,10.84-.52q6.06-.77,12.87-2.32a68.71,68.71,0,0,0,12.62-4.64A43.06,43.06,0,0,0,1780,55.67a16.21,16.21,0,0,0,5-9.79q1.77-10.83-4.79-18.3-6.3-7.47-22.2-13.65-7.32-2.84-19.17-3.87a129.2,129.2,0,0,0-24.48-.26,111.42,111.42,0,0,0-24.21,4.13q-11.61,3.09-18.93,9-4.79,3.87-9.33,14.18a207,207,0,0,0-8.58,23.7q-3.78,13.14-7.06,28.09t-5.55,28.34q-2.28,13.14-3.54,23.19a133,133,0,0,0-1.26,13.92q-.24,12.88,6.06,19.32,6.55,6.18,17.41,9.54a104.86,104.86,0,0,0,14.38,2.06q10.59.76,23.71.51a169.33,169.33,0,0,0,26.24-2.06,77.72,77.72,0,0,0,22.71-6.7,59.68,59.68,0,0,0,13.62-9.27,28.84,28.84,0,0,0,6.56-9.54,17.4,17.4,0,0,0,1.51-9,32.6,32.6,0,0,0-1.51-8.24,17.78,17.78,0,0,0-7.07-8.76,36.11,36.11,0,0,0-11.6-5.41,65.27,65.27,0,0,0-13.37-2.32,113.22,113.22,0,0,0-13.12-.26,28,28,0,0,0-5.55.51c-1.68.18-2.69.26-3,.26q-1.26.26-6.05,1.55a63.74,63.74,0,0,0-10.35,4.12q-2,1.29-4.79,2.84a51.17,51.17,0,0,0-5.55,3.6c-.84.86-1.77.78-2.78-.25a2,2,0,0,1,.51-2.84,36.33,36.33,0,0,1,5.8-4.12q2.77-1.55,4.79-2.84a57.34,57.34,0,0,1,11.61-4.63,40.31,40.31,0,0,1,6-1.29c0-.18.93-.35,2.78-.52s3.95-.34,6.31-.51a129.47,129.47,0,0,1,13.87.25,69.25,69.25,0,0,1,14.63,2.58,39.61,39.61,0,0,1,12.62,6.18,20.17,20.17,0,0,1,8.07,10.31q3,8.51,1.52,15.46a29.55,29.55,0,0,1-5.55,11.86,39.63,39.63,0,0,1-9.09,8.5,95.73,95.73,0,0,1-9.08,5.41,74.6,74.6,0,0,1-23.71,7.21,179.56,179.56,0,0,1-27,2.06,211.7,211.7,0,0,1-24.22-.77q-10.85-.76-14.88-2.06A47.71,47.71,0,0,1,1639,176.26q-7.32-7.22-7.06-21.9,0-3.36,1.26-13.4,1.26-10.31,3.53-23.71,2.52-13.4,5.55-28.6,3.29-15.47,7.32-29.37a206.54,206.54,0,0,1,9.08-24.48q4.78-10.83,10.09-15.2,7.82-6.19,19.93-9.54a115.35,115.35,0,0,1,25.48-4.38,136.54,136.54,0,0,1,25.23.26q12.36,1,19.93,4.12a78.94,78.94,0,0,1,13.12,6.44,39.77,39.77,0,0,1,10.09,7.73,26,26,0,0,1,5.8,10.05,27.09,27.09,0,0,1,.76,12.37,20.61,20.61,0,0,1-5.8,11.6,43.39,43.39,0,0,1-11.35,8.24,68.29,68.29,0,0,1-13.63,4.9q-7.32,1.55-13.62,2.32a77.71,77.71,0,0,1-10.6.77q-4.78-.26-9.33-.77a.32.32,0,0,1-.51,0H1723l-.25-.26h-.25c-2.19-.35-4.46-.77-6.81-1.29a55.43,55.43,0,0,1-7.07-2.06Q1699.26,67.26,1693,64.69Zm64.33,64.41a1.9,1.9,0,0,1-2.52-1.28c-.5-1-.17-1.89,1-2.58.34-.17,1.43-.77,3.28-1.8a33.29,33.29,0,0,0,6.56-4.64,40.51,40.51,0,0,0,6.56-7.47,21.41,21.41,0,0,0,4-10.31,25.28,25.28,0,0,0-3.53-17,32.58,32.58,0,0,0-14.13-12.88c-1.17-.69-1.51-1.55-1-2.58.67-1.37,1.59-1.72,2.77-1A35.9,35.9,0,0,1,1776,82a30.09,30.09,0,0,1,4.29,19.58,28.1,28.1,0,0,1-4.54,11.86,41.17,41.17,0,0,1-7.57,8.5,40.18,40.18,0,0,1-7.06,5.15C1758.88,128.25,1757.62,128.93,1757.28,129.1Zm-72.15-50a45,45,0,0,1,9.08-7.73,42.33,42.33,0,0,1,6.56-3.61,46.27,46.27,0,0,1,5.8-2.06c1.35-.35,2.19.08,2.53,1.29.33,1.37-.09,2.23-1.27,2.57a43.69,43.69,0,0,0-5.29,2.06,32.79,32.79,0,0,0-6.31,3.35,40.06,40.06,0,0,0-4.79,3.61q-2,1.8-3.54,3.35c-1,1-1.93,1.12-2.77.26S1684.29,80.32,1685.13,79.12Zm-3.79,34.78a1.9,1.9,0,0,1,0-2.83c1-1,1.94-1,2.78,0,1,1,2.19,2.14,3.53,3.35s2.95,2.49,4.8,3.86c2.35,1.38,4.37,2.49,6,3.35a49.58,49.58,0,0,0,5,2.06c1.34.35,1.85,1.12,1.51,2.32a1.84,1.84,0,0,1-2.52,1.55,48,48,0,0,1-5.81-2.06,38.47,38.47,0,0,1-6.3-3.87q-3-2.05-5.3-3.86A40.92,40.92,0,0,1,1681.34,113.9Z"/><path d="M1850.36,62.63c-1.35-.69-1.68-1.64-1-2.84a2,2,0,0,1,2.78-1c2.35.86,4.79,1.8,7.31,2.84q4,1.55,8.33,2.83c2.69.69,5.21,1.37,7.57,2.06,2.35.52,4.71,1,7.06,1.29a64,64,0,0,0,10.09.77q5.29,0,11.1-.51a106.09,106.09,0,0,0,13.63-2.58,72.36,72.36,0,0,0,13.37-4.64,39.47,39.47,0,0,0,10.34-7.47,16.84,16.84,0,0,0,5.3-10.05q2-11.59-5.3-19.32-7.07-7.74-23-14.18a61.88,61.88,0,0,0-15.64-3.86,130.33,130.33,0,0,0-20.43-1A153.43,153.43,0,0,0,1860.45,7a83.08,83.08,0,0,0-19.68,5.15l-2.52,1c-.67.35-1.43.69-2.27,1-1.18.69-2.1.35-2.78-1-.67-1.2-.33-2.14,1-2.83l2.53-1,2.52-1a101.35,101.35,0,0,1,20.43-5.41A142.14,142.14,0,0,1,1882.15,1a137,137,0,0,1,20.94,1,70.49,70.49,0,0,1,16.4,3.87q16.14,6.44,24.47,15.2,8.58,8.76,6.3,22.68a21.45,21.45,0,0,1-6,12.36,45.81,45.81,0,0,1-11.86,8.25A68.33,68.33,0,0,1,1918,69.58a126.21,126.21,0,0,1-13.87,2.58,83.17,83.17,0,0,1-20.69,0h-1.26c0-.17-.17-.26-.51-.26h-.5l-7.07-1.54a68.52,68.52,0,0,1-7.31-2.07c-3-.85-6-1.8-8.83-2.83C1855.24,64.43,1852.71,63.49,1850.36,62.63Zm62.06,4.12c.34.17,1.52.94,3.53,2.32a31.36,31.36,0,0,1,7.07,5.67,48.17,48.17,0,0,1,7.57,8.76,25.78,25.78,0,0,1,4.29,11.85,27.92,27.92,0,0,1-1,13.14,31.55,31.55,0,0,1-5.55,9.54,30,30,0,0,1-7.07,6.18c-2.35,1.54-4.29,2.75-5.8,3.61q-16.4,8.24-37.84,4.89-21.19-3.6-42.14-19.84c-1-1-1.09-2-.25-2.83a2.12,2.12,0,0,1,2.78-.52q20.18,15.72,40.36,19.07,20.19,3.09,35.32-4.38,2.28-1.29,5.55-3.35a25.48,25.48,0,0,0,6.06-5.41,28.6,28.6,0,0,0,4.79-8.25,23.7,23.7,0,0,0,1-11.08,23,23,0,0,0-4-10.56,44.13,44.13,0,0,0-6.55-8,32,32,0,0,0-6.31-5.15,12.71,12.71,0,0,0-3.28-1.81c-1.18-.68-1.52-1.54-1-2.57C1910.24,66.83,1911.08,66.41,1912.42,66.75Zm-72.15,11.34a25.83,25.83,0,0,1,3.78-3.61,40.81,40.81,0,0,1,17.66-10,1.85,1.85,0,0,1,2.53,1.55,1.66,1.66,0,0,1-1.27,2.31,42.22,42.22,0,0,0-5.29,2.07,31.71,31.71,0,0,0-6.31,3.35,40,40,0,0,0-4.8,3.6c-1.34,1.21-2.52,2.32-3.53,3.35s-1.93,1.12-2.77.26A1.9,1.9,0,0,1,1840.27,78.09Zm26.24,51q-1,5.94-2.78,12.37-1.51,6.19-3.28,11.6t-3.53,9.79c-1.18,2.75-2.1,4.81-2.78,6.18a47.34,47.34,0,0,1-4.54,7,38.11,38.11,0,0,1-8.58,7.73,35.82,35.82,0,0,1-11.85,5.41,28.19,28.19,0,0,1-14.64-.26A27.49,27.49,0,0,1,1796.62,176a44.85,44.85,0,0,1-6.3-22.67,105.16,105.16,0,0,1,1-12.11q1-8,2.53-17.78,1.76-10.05,3.78-20.87t3.79-20.1q2-9.54,3.53-16.49,1.52-7.22,2-9.8.49-2.31,1.76-6.69t3.28-9.8q2-5.4,4.8-11.08a68,68,0,0,1,6.81-10.82,27.89,27.89,0,0,1,4.79-4.12,32.61,32.61,0,0,1,9.08-4.9l1.26,4.13a29.67,29.67,0,0,0-8.07,4.12,21.48,21.48,0,0,0-3.78,3.35,53.11,53.11,0,0,0-6.56,10.3q-2.52,5.41-4.54,10.57-1.77,5.16-3,9.53-1.26,4.13-1.77,6.45c-.33,1.71-1,5-2,9.79q-1.5,6.94-3.53,16.49-1.77,9.27-3.78,20.1-1.77,10.56-3.53,20.35-1.52,9.79-2.53,17.78a98.48,98.48,0,0,0-1,11.34q.26,12.1,5.55,20.87A24.62,24.62,0,0,0,1815.54,185a25.31,25.31,0,0,0,12.87.26,34.44,34.44,0,0,0,10.34-4.9,36.69,36.69,0,0,0,7.57-6.7,27.62,27.62,0,0,0,4-6.44c.67-1.37,1.51-3.44,2.52-6.18q1.77-4.12,3.53-9.54c1.18-3.61,2.27-7.38,3.28-11.34a117.89,117.89,0,0,0,2.78-11.85Z"/><path class="bdacd0a6-d14c-4db0-976a-ebd0de10040c" d="M432,24.27s0-.05,0-.08A44.37,44.37,0,0,1,458.1,8.08a52.54,52.54,0,0,1,24,2.22,27.19,27.19,0,0,1,10.1,6.87,27.67,27.67,0,0,1,6.14,10.61v0a57,57,0,0,1,10.8-9.1c14.36-9,34.71-9.95,44,6.44,5.64,9.75,3.2,23.41,2,33.52-3.36,29.25-17.16,58.53-35,81.9-18.44,24.37-34,36.58-65.84,45.4-27,7.54-64.35,4-84.55-15.59a64.78,64.78,0,0,1-17.32-23.65C336.07,102,341,37.29,384.23,12.59c11.12-6.32,31.56-12.69,42.51.77A31.27,31.27,0,0,1,432,24.28c-4,4.91-8,10.59-12.63,16.59C406.19,59,395,76.32,390.63,97.27a12.48,12.48,0,0,0,.64,9.35c4,6.28,13.72,1.73,18.72-3.83a95.19,95.19,0,0,0,24.23-61.23A62.31,62.31,0,0,0,432,24.27Z"/><path class="bdacd0a6-d14c-4db0-976a-ebd0de10040c" d="M468.49,102.37a16.42,16.42,0,0,0,6.05,10.4,13.56,13.56,0,0,0,14.85-1.08,32.11,32.11,0,0,0,9.51-12.53c7.61-15.7,5.93-32.49,4.12-49.81a82.88,82.88,0,0,0-4.45-20.84A131.71,131.71,0,0,0,475,66.09C470.18,77.57,465.9,90.14,468.49,102.37Z"/></svg>