<svg id="ac2be7e2-c7f4-42ec-ac8c-de9a097a1a20" data-name="Layer 1" xmlns="http://www.w3.org/2000/svg" viewBox="0 0 1951.74 193"><defs><style>.ef9fe4bf-6d46-4f00-b9da-9dc1a3b1fd47{fill:#66feff;}.ac35583f-f9af-4c4c-86c4-04a11c435558{fill:#f9c1dc;}.ff3b895f-3fea-4fa2-8e48-4bfebe8ec55a{fill:#e3ef2b;}.e5fc926f-0fb8-49c7-8160-e9f235e41843{fill:#fff;}.a89805dd-deff-42ca-bcc4-6e68cf130fb0{fill:none;stroke:#000;stroke-miterlimit:10;stroke-width:4px;}</style></defs><path class="ef9fe4bf-6d46-4f00-b9da-9dc1a3b1fd47" d="M71.33,123.44q1.26,2.06,3,4.38c.79,1.28,1.58,2.5,2.36,3.63q0,.41-.09.75a16.43,16.43,0,0,1-.51,2.57q-1,7-1.76,11.6c-.51,3.09-1,5.84-1.52,8.24-.5,2.24-1,4.38-1.51,6.45s-1.09,4.29-1.77,6.7a27.15,27.15,0,0,1-9.08,14.17q-6.55,5.67-20.68,6.18a25.19,25.19,0,0,1-11.11-2.32,23.88,23.88,0,0,1-7.56-5.92,27.54,27.54,0,0,1-4.55-8.51,40.43,40.43,0,0,1-1.76-9.79,83.05,83.05,0,0,1,1-17.52q1.51-10.56,3.78-22.16,2.28-11.85,5.3-24Q28.2,85.81,31,75.51q3-10.56,5.29-18.81,2.52-8.25,3.54-12.11c1-3.44,2.27-7.22,3.78-11.34A78.68,78.68,0,0,1,49.63,21.4a42.37,42.37,0,0,1,8.58-9.53,19,19,0,0,1,11.1-4.64q7.06-.53,11.36,1a17.82,17.82,0,0,1,6.81,4.12,15.64,15.64,0,0,1,3.78,5.15q1.26,2.58,2.27,4.38A52.41,52.41,0,0,1,113.46,9.55,35.08,35.08,0,0,1,135.66,9a40.11,40.11,0,0,1,16.91,10.31,46.55,46.55,0,0,1,10.85,17,67.3,67.3,0,0,1,4,22.42,92.23,92.23,0,0,1-3.28,25.51,110.84,110.84,0,0,1-11.1,27.06,71.76,71.76,0,0,1-15.64,19.32A50,50,0,0,1,118.26,141a38.76,38.76,0,0,1-21.2-.78A34.33,34.33,0,0,1,85.46,134c-.95-.82-1.86-1.65-2.7-2.49l-.08-.09L81.33,130a2.39,2.39,0,0,1-.22-.23,37.25,37.25,0,0,1-2.62-3.14c-.29-.38-.57-.77-.85-1.17q-1.52-2.07-2.78-4.12c-.67-1.38-1.34-2.75-2-4.13a1.69,1.69,0,0,0-2.52-.77c-1.34.34-1.68,1.2-1,2.58S70.66,121.89,71.33,123.44Zm70.39-68c.17-2.75-.51-4.72-2-5.92-1.51-1.38-3.53-1.72-6-1a23.75,23.75,0,0,0-8.33,3.87A56.89,56.89,0,0,0,116,59.79a102,102,0,0,0-9.09,10.05q-4.29,5.41-8.07,11.08A87.32,87.32,0,0,0,93,91.74a28.42,28.42,0,0,0-2.27,9,6.93,6.93,0,0,0,2,5.93q2.27,1.8,6,1a28.71,28.71,0,0,0,8.33-4.12,85.56,85.56,0,0,0,9.33-7.48,129.12,129.12,0,0,0,9.33-10.05A96.93,96.93,0,0,0,133.9,75a73.1,73.1,0,0,0,5.55-10.56A23,23,0,0,0,141.72,55.41Z"/><path d="M139.7,49.49c1.51,1.2,2.19,3.17,2,5.92a23,23,0,0,1-2.27,9A73.1,73.1,0,0,1,133.9,75a96.93,96.93,0,0,1-8.08,11.08,129.12,129.12,0,0,1-9.33,10.05,85.56,85.56,0,0,1-9.33,7.48,28.71,28.71,0,0,1-8.33,4.12q-3.78.77-6-1a6.93,6.93,0,0,1-2-5.93,28.42,28.42,0,0,1,2.27-9,87.32,87.32,0,0,1,5.8-10.82q3.78-5.67,8.07-11.08A102,102,0,0,1,116,59.79a56.89,56.89,0,0,1,9.33-7.47,23.75,23.75,0,0,1,8.33-3.87C136.17,47.77,138.19,48.11,139.7,49.49Zm-3.78,13.39q3.27-8.76,1.26-10.3c-1.18-1.21-3.2-1-6.06.51a58,58,0,0,0-8.57,6.19c-2.86,2.57-5.56,5.24-8.08,8q-3.52,3.87-4.79,5.16Q99.84,84.78,96.56,93.55q-3.28,8.51-1.26,10t9.58-3.1q7.83-4.89,17.92-17T135.92,62.88Z"/><path d="M82.76,131.51c.76.84.73,1.84-.08,3a2.31,2.31,0,0,1-2.24.53l-.28-.28s0,.09,0,.13a1.87,1.87,0,0,1-.48-.38l-2.78-2.84-.16-.23c.19-1.39.49-3.37.92-5.95.28.4.56.79.85,1.17.55.76,1.11,1.49,1.67,2.18l1,1a2.39,2.39,0,0,0,.22.23C81.78,130.54,82.26,131,82.76,131.51Z"/><path d="M82.68,131.42l.08.09c-.5-.48-1-1-1.43-1.47Z"/><path d="M81.11,129.81l-1-1c-.56-.69-1.12-1.42-1.67-2.18A37.25,37.25,0,0,0,81.11,129.81Z"/><path d="M80.16,134.77l.28.28-.3-.15S80.15,134.81,80.16,134.77Z"/><path d="M80.44,135.05a2.31,2.31,0,0,0,2.24-.53c.81-1.17.84-2.17.08-3,.84.84,1.75,1.67,2.7,2.49a34.33,34.33,0,0,0,11.6,6.18,38.76,38.76,0,0,0,21.2.78,50,50,0,0,0,19.17-10.31,71.76,71.76,0,0,0,15.64-19.32,110.84,110.84,0,0,0,11.1-27.06,92.23,92.23,0,0,0,3.28-25.51,67.3,67.3,0,0,0-4-22.42,46.55,46.55,0,0,0-10.85-17A40.11,40.11,0,0,0,135.66,9a35.08,35.08,0,0,0-22.2.52A52.41,52.41,0,0,0,93.53,21.91q-1-1.8-2.27-4.38a15.64,15.64,0,0,0-3.78-5.15,17.82,17.82,0,0,0-6.81-4.12q-4.29-1.54-11.36-1a19,19,0,0,0-11.1,4.64,42.37,42.37,0,0,0-8.58,9.53,78.68,78.68,0,0,0-6.05,11.85c-1.51,4.12-2.78,7.9-3.78,11.34q-1,3.87-3.54,12.11Q34,65,31,75.51q-2.79,10.3-6.06,22.42-3,12.1-5.3,24-2.26,11.6-3.78,22.16a83.05,83.05,0,0,0-1,17.52,40.43,40.43,0,0,0,1.76,9.79,27.54,27.54,0,0,0,4.55,8.51,23.88,23.88,0,0,0,7.56,5.92,25.19,25.19,0,0,0,11.11,2.32q14.12-.51,20.68-6.18a27.15,27.15,0,0,0,9.08-14.17q1-3.62,1.77-6.7c.51-2.07,1-4.21,1.51-6.45.51-2.4,1-5.15,1.52-8.24s1.09-7,1.76-11.6a16.43,16.43,0,0,0,.51-2.57q0-.34.09-.75l.16.23,2.78,2.84a1.87,1.87,0,0,0,.48.38q-1,7.13-1.75,12c-.5,3.1-1,5.93-1.51,8.51a64.42,64.42,0,0,1-1.76,6.7q-.77,3.09-1.77,6.7a31.77,31.77,0,0,1-10.6,16.49q-7.81,6.18-23,6.7a27.23,27.23,0,0,1-12.62-2.32,27.08,27.08,0,0,1-8.83-6.7,35.25,35.25,0,0,1-5.55-9.79,44.66,44.66,0,0,1-2-11.34,121.12,121.12,0,0,1,1-18q1.52-10.81,3.79-22.67,2.52-11.87,5.55-24,3-12.36,5.8-22.93,3-10.56,5.3-18.55,2.52-8.25,3.53-12.11,1.52-4.64,4-11.34a65.92,65.92,0,0,1,6.55-12.88A48.72,48.72,0,0,1,55.94,8.52,22.27,22.27,0,0,1,69.06,3.36a32.83,32.83,0,0,1,10.34.52,26.12,26.12,0,0,1,7.32,2.83,16.5,16.5,0,0,1,4.79,4.12,26.24,26.24,0,0,1,3.28,4.64,54.7,54.7,0,0,1,7.57-5.41,38.39,38.39,0,0,1,10.09-4.38,43.37,43.37,0,0,1,11.61-2.06,33.45,33.45,0,0,1,12.86,1.55,42.93,42.93,0,0,1,18.42,11.08A52.08,52.08,0,0,1,167,34.8a65.92,65.92,0,0,1,4.54,23.7A94.88,94.88,0,0,1,168,85.3a111.71,111.71,0,0,1-11.86,28.6,77.57,77.57,0,0,1-16.9,20.36,50.47,50.47,0,0,1-20.44,10.82,42.63,42.63,0,0,1-22.7-1A34.67,34.67,0,0,1,86,139.41,48,48,0,0,1,80.44,135.05Z"/><path d="M70.32,116.48a1.69,1.69,0,0,1,2.52.77c.68,1.38,1.35,2.75,2,4.13q1.26,2.06,2.78,4.12c-.43,2.58-.73,4.56-.92,5.95-.78-1.13-1.57-2.35-2.36-3.63q-1.77-2.32-3-4.38-1-2.32-2-4.38C68.64,117.68,69,116.82,70.32,116.48Z"/><path class="ac35583f-f9af-4c4c-86c4-04a11c435558" d="M320,98.44a200.22,200.22,0,0,1,1.77,33.24,133.32,133.32,0,0,1-3.53,29.63q-4,11.87-11.61,18a26.05,26.05,0,0,1-16.39,5.93,27.36,27.36,0,0,1-13.63-3.87,41.41,41.41,0,0,1-12.36-12.11,73.4,73.4,0,0,1-8.83-20.1,113,113,0,0,1-3.28-28.86c0-1.37-.76-2.06-2.27-2.06a1.81,1.81,0,0,0-2.27,1.81,115.63,115.63,0,0,1-7.32,28.6,79.36,79.36,0,0,1-11.1,20.1,48.54,48.54,0,0,1-13.37,12.11,28.83,28.83,0,0,1-13.87,3.86A21.46,21.46,0,0,1,188,179.61q-6.31-5.16-9.34-15.2-3-10.31-2-25.26,1-15.19,8.07-35a283.6,283.6,0,0,1,13.12-30.92,193.27,193.27,0,0,1,18.41-30.4A112.82,112.82,0,0,1,239,19.6q12.36-9.29,26.24-9.54a29.48,29.48,0,0,1,19.93,7.22q9.07,7.21,15.89,19.58a134.28,134.28,0,0,1,11.86,28.6A211.33,211.33,0,0,1,320,98.44ZM277.35,47.68c.17-2.75-.51-4.81-2-6.18a5.06,5.06,0,0,0-3.78-1.29q-5.81,0-13.63,6.44a97.11,97.11,0,0,0-14.63,14.43,99.63,99.63,0,0,0-7.57,10.56A63.92,63.92,0,0,0,230.17,82a28.52,28.52,0,0,0-2.27,8.76,6.93,6.93,0,0,0,2,5.93,5.45,5.45,0,0,0,4,1.29A14.34,14.34,0,0,0,240,96.38a51.46,51.46,0,0,0,7.32-4.64q3.78-3.09,7.56-6.7a103.24,103.24,0,0,0,7.07-8,116.8,116.8,0,0,0,7.57-10.31,63.51,63.51,0,0,0,5.55-10.31A28.38,28.38,0,0,0,277.35,47.68Z"/><path d="M324.27,96.9a199,199,0,0,1,2,34.52,144.15,144.15,0,0,1-3.53,30.92l-.25.26q-4.54,13.67-13.37,20.62a29.85,29.85,0,0,1-32.55,3.35A39.55,39.55,0,0,1,264.23,177a64,64,0,0,1-9.84-16.23,92.64,92.64,0,0,1-5.8-23.19,106.38,106.38,0,0,1-8.83,22.93,71.65,71.65,0,0,1-11.61,16.23A45.77,45.77,0,0,1,215,186.05a28.63,28.63,0,0,1-13.11,3.35,25.76,25.76,0,0,1-16.15-5.67q-7.32-5.67-11.1-16.49-3.54-11.09-2.78-27.31,1-16.25,8.58-37.36,3.28-9.54,8.07-20.36a234.81,234.81,0,0,1,10.85-21.39,214,214,0,0,1,13.12-20.61,112,112,0,0,1,15.64-17.52,77.22,77.22,0,0,1,17.41-12.37A46,46,0,0,1,265,5.42a33.44,33.44,0,0,1,21.95,7.48q9.84,7.47,17.4,20.35A136.9,136.9,0,0,1,317,62.63,205.94,205.94,0,0,1,324.27,96.9Zm-2.52,34.78A200.22,200.22,0,0,0,320,98.44a211.33,211.33,0,0,0-7.06-33,134.28,134.28,0,0,0-11.86-28.6q-6.81-12.37-15.89-19.58a29.48,29.48,0,0,0-19.93-7.22q-13.87.26-26.24,9.54a112.82,112.82,0,0,0-22.71,23.19,193.27,193.27,0,0,0-18.41,30.4,283.6,283.6,0,0,0-13.12,30.92q-7.06,19.85-8.07,35-1,15,2,25.26,3,10,9.34,15.2a21.46,21.46,0,0,0,13.88,5.15,28.83,28.83,0,0,0,13.87-3.86,48.54,48.54,0,0,0,13.37-12.11,79.36,79.36,0,0,0,11.1-20.1,115.63,115.63,0,0,0,7.32-28.6,1.81,1.81,0,0,1,2.27-1.81c1.51,0,2.27.69,2.27,2.06a113,113,0,0,0,3.28,28.86,73.4,73.4,0,0,0,8.83,20.1,41.41,41.41,0,0,0,12.36,12.11,27.36,27.36,0,0,0,13.63,3.87,26.05,26.05,0,0,0,16.39-5.93q7.58-6.18,11.61-18A133.32,133.32,0,0,0,321.75,131.68Z"/><path d="M275.33,41.5c1.51,1.37,2.19,3.43,2,6.18a28.38,28.38,0,0,1-2.27,8.76,63.51,63.51,0,0,1-5.55,10.31A116.8,116.8,0,0,1,262,77.06a103.24,103.24,0,0,1-7.07,8q-3.78,3.61-7.56,6.7A51.46,51.46,0,0,1,240,96.38,14.34,14.34,0,0,1,234,97.93a5.45,5.45,0,0,1-4-1.29,6.93,6.93,0,0,1-2-5.93A28.52,28.52,0,0,1,230.17,82a63.92,63.92,0,0,1,5.55-10.31,99.63,99.63,0,0,1,7.57-10.56,97.11,97.11,0,0,1,14.63-14.43q7.83-6.43,13.63-6.44A5.06,5.06,0,0,1,275.33,41.5ZM271,54.38q3-8.25,1.52-9.53t-9.09,3.09q-7.32,4.13-16.9,16-1,1.29-4,5.42-2.78,4.11-5.8,9a56.58,56.58,0,0,0-4.29,9.28c-1,2.75-.92,4.64.25,5.67q1.51,1.29,8.83-2.84,7.57-4.38,17.16-16.23T271,54.38Z"/><path class="ff3b895f-3fea-4fa2-8e48-4bfebe8ec55a" d="M940.18,26.81q4.8,5.67,4.54,14.69-.5,15.45-11.85,22.67t-31.79,7.22h-9.59q-5.81,0-9.08-.26a2.73,2.73,0,0,0-2,1.29c-.5.86-1.18,3.35-2,7.47q-1.26,5.92-3.28,18.29-1.77,12.12-4.79,34-3.78,27.83-13.62,40.71-9.6,12.63-23.47,12.63a24.61,24.61,0,0,1-18.92-8.25q-7.56-8.25-7.57-21.64a117.08,117.08,0,0,1,2-19.33q2.28-11.85,5-23.71,3-11.85,6.05-22.16,3.28-10.31,5.3-15.46a21.63,21.63,0,0,0,4,.26H836l6.3-.51a2.08,2.08,0,0,0,1.77-2.06c-.34-1.38-1-2.07-2-2.07a35.31,35.31,0,0,1-6,.52h-6.81q-25,0-39.86-7.73-14.9-8-14.89-21.9a21.19,21.19,0,0,1,4.79-14.17,35.61,35.61,0,0,1,12.11-9.54,70.14,70.14,0,0,1,16.91-5.41A186.86,186.86,0,0,1,827.16,9.8Q836.49,9,844.82,9q8.58,0,13.87.26,5.8.26,14.38.26,8.83,0,18.42.51a145.74,145.74,0,0,1,19.17,2.32,63.16,63.16,0,0,1,17.16,5.15A36.37,36.37,0,0,1,940.18,26.81Z"/><path d="M943.46,25q5.06,6.43,4.8,16.49-.25,16-11.86,25-11.61,8.76-35.32,8.76H883.17q-.76,2.58-2.27,10.31-1.27,7.47-2.53,16.75-1.26,9-2.52,17.52t-1.77,12.88q-4,28.1-14.38,42.52t-26.49,14.43a27.9,27.9,0,0,1-21.69-9.54q-8.58-9.52-8.58-24.47a111.6,111.6,0,0,1,2-19.07q2-11.6,4.79-23.19,3-11.85,6.06-22.16,3-10.58,5.29-16.24Q795.63,73.44,783,64.17,770.65,54.9,770.65,41.5q0-9.8,5-16.24A39.51,39.51,0,0,1,788.56,14.7a71.09,71.09,0,0,1,17.91-6.18A163.4,163.4,0,0,1,826.4,5.68a169.74,169.74,0,0,1,18.42-.51q8.58,0,13.87.25,6.06.27,14.89.26,9.07,0,19.17.77a155.49,155.49,0,0,1,19.93,2.32A61.61,61.61,0,0,1,930.6,14.7,33.88,33.88,0,0,1,943.46,25Zm1.26,16.49q.25-9-4.54-14.69a36.37,36.37,0,0,0-12.36-9.28,63.16,63.16,0,0,0-17.16-5.15,145.74,145.74,0,0,0-19.17-2.32q-9.59-.51-18.42-.51-8.57,0-14.38-.26Q853.4,9,844.82,9q-8.33,0-17.66.77a186.86,186.86,0,0,0-18.92,2.58,70.14,70.14,0,0,0-16.91,5.41,35.61,35.61,0,0,0-12.11,9.54,21.19,21.19,0,0,0-4.79,14.17q0,13.91,14.89,21.9,14.88,7.73,39.86,7.73H836a35.31,35.31,0,0,0,6-.52c1,0,1.68.69,2,2.07a2.08,2.08,0,0,1-1.77,2.06l-6.3.51h-6.81a21.63,21.63,0,0,1-4-.26q-2,5.16-5.3,15.46-3,10.32-6.05,22.16-2.77,11.86-5,23.71a117.08,117.08,0,0,0-2,19.33q0,13.4,7.57,21.64a24.61,24.61,0,0,0,18.92,8.25q13.88,0,23.47-12.63Q866.51,160,870.3,132.2q3-21.9,4.79-34,2-12.36,3.28-18.29c.84-4.12,1.52-6.61,2-7.47a2.73,2.73,0,0,1,2-1.29q3.27.25,9.08.26h9.59q20.43,0,31.79-7.22T944.72,41.5Z"/><path class="ac35583f-f9af-4c4c-86c4-04a11c435558" d="M1098,56.18a99,99,0,0,1,1,33.24,117.93,117.93,0,0,1-10.09,35.3,118.26,118.26,0,0,1-15.14,25,105.27,105.27,0,0,1-19.17,18.81,81.61,81.61,0,0,1-21.2,11.85,62.66,62.66,0,0,1-22,4.12A51.87,51.87,0,0,1,989,179.61a53.12,53.12,0,0,1-20.69-17.78A76.08,76.08,0,0,1,957,134.52a101.8,101.8,0,0,1-1.26-33A123.59,123.59,0,0,1,966.06,66,118.26,118.26,0,0,1,981.2,41a105.32,105.32,0,0,1,19.18-18.81,85.62,85.62,0,0,1,21.44-11.85,62.71,62.71,0,0,1,21.95-4.12,50.51,50.51,0,0,1,11.35,1.28,38.85,38.85,0,0,1,10.6,3.61,50.81,50.81,0,0,1,20.68,17.78A73.54,73.54,0,0,1,1098,56.18ZM1052.6,69.33c.17-2.75-.51-4.73-2-5.93a6.3,6.3,0,0,0-4.29-1.55q-5.55,0-13.37,6.44a104.32,104.32,0,0,0-15.14,14.95A98.41,98.41,0,0,0,1010,94.06a59,59,0,0,0-5.55,10.57,28.64,28.64,0,0,0-2.27,9,6.61,6.61,0,0,0,2.27,5.93,6.31,6.31,0,0,0,3.79,1.29,12.76,12.76,0,0,0,6-1.8,52.37,52.37,0,0,0,7.32-4.64,67.8,67.8,0,0,0,7.57-6.7q4-4.12,7.56-8.25a92,92,0,0,0,8.08-10.56,73.16,73.16,0,0,0,5.55-10.57A31.05,31.05,0,0,0,1052.6,69.33Z"/><path d="M1102.3,55.15a108.76,108.76,0,0,1,1,34.79A117.34,117.34,0,0,1,1093,126.53a123.44,123.44,0,0,1-15.89,25.76,109.72,109.72,0,0,1-19.93,19.85,83.85,83.85,0,0,1-22.45,12.62,66,66,0,0,1-23.47,4.38,54.93,54.93,0,0,1-24-5.41,58.61,58.61,0,0,1-22.46-19.32,79,79,0,0,1-12.36-28.86,108.47,108.47,0,0,1-1-34.79A122.7,122.7,0,0,1,962,64.17a120.6,120.6,0,0,1,15.64-25.76,106.26,106.26,0,0,1,19.68-19.59,87.88,87.88,0,0,1,22.7-12.62,67.42,67.42,0,0,1,23.47-4.38,56.64,56.64,0,0,1,46.67,24.47A76,76,0,0,1,1102.3,55.15ZM1099,89.42a99,99,0,0,0-1-33.24,73.54,73.54,0,0,0-11.61-27.31,50.81,50.81,0,0,0-20.68-17.78,38.85,38.85,0,0,0-10.6-3.61,50.51,50.51,0,0,0-11.35-1.28,62.71,62.71,0,0,0-21.95,4.12,85.62,85.62,0,0,0-21.44,11.85A105.32,105.32,0,0,0,981.2,41a118.26,118.26,0,0,0-15.14,25,123.59,123.59,0,0,0-10.34,35.55,101.8,101.8,0,0,0,1.26,33,76.08,76.08,0,0,0,11.35,27.31A53.12,53.12,0,0,0,989,179.61a51.87,51.87,0,0,0,22.45,4.89,62.66,62.66,0,0,0,22-4.12,81.61,81.61,0,0,0,21.2-11.85,105.27,105.27,0,0,0,19.17-18.81,118.26,118.26,0,0,0,15.14-25A117.93,117.93,0,0,0,1099,89.42Z"/><path d="M1050.58,63.4c1.51,1.2,2.19,3.18,2,5.93a31.05,31.05,0,0,1-2.27,9,73.16,73.16,0,0,1-5.55,10.57,92,92,0,0,1-8.08,10.56q-3.53,4.13-7.56,8.25a67.8,67.8,0,0,1-7.57,6.7,52.37,52.37,0,0,1-7.32,4.64,12.76,12.76,0,0,1-6,1.8,6.31,6.31,0,0,1-3.79-1.29,6.61,6.61,0,0,1-2.27-5.93,28.64,28.64,0,0,1,2.27-9A59,59,0,0,1,1010,94.06a98.41,98.41,0,0,1,7.82-10.82,104.32,104.32,0,0,1,15.14-14.95q7.82-6.44,13.37-6.44A6.3,6.3,0,0,1,1050.58,63.4Zm-4.29,13.14q3-8.51,1.26-10.05a2.42,2.42,0,0,0-1.76-.51q-2.54,0-6.31,2.83a75.33,75.33,0,0,0-7.57,5.93,85,85,0,0,0-6.81,6.7,29.54,29.54,0,0,0-3.79,4.38c-.67.86-2.1,2.74-4.29,5.67a110.67,110.67,0,0,0-6,9.27,56.58,56.58,0,0,0-4.29,9.28c-1,2.92-.92,4.89.25,5.92s4.29.09,9.34-2.83q7.56-4.63,17.41-16.75Q1043.52,84.79,1046.29,76.54Z"/><path class="e5fc926f-0fb8-49c7-8160-e9f235e41843" d="M1452.84,51.8a46,46,0,0,1,0,13.66,49,49,0,0,1-3.78,13.14,34.82,34.82,0,0,1-12.87,15.46,33.19,33.19,0,0,1-18.67,5.67,33.9,33.9,0,0,1-14.63-3.09,39.18,39.18,0,0,1-11.1-8.76,45,45,0,0,1-7.32-12.37,75.15,75.15,0,0,1-4-15,2.07,2.07,0,0,0-2.78-1.8,4,4,0,0,0-1.51,1,1.58,1.58,0,0,0-.26,1.55q2.28,13.91,7.83,22.93a14.13,14.13,0,0,0-8.58,2.58,9.42,9.42,0,0,0-4,6.7,8.42,8.42,0,0,0,2,6.7,17.92,17.92,0,0,0,6.31,4.89,43.28,43.28,0,0,0-17.16,18.55q-1.26,1.55.76,3.1a2.2,2.2,0,0,0,3-1,44.31,44.31,0,0,1,15.13-16.49,37.48,37.48,0,0,1,20.69-6.18,36.68,36.68,0,0,1,14.89,3.35,28.26,28.26,0,0,1,12.36,9,45,45,0,0,1,9.08,19.84,36.36,36.36,0,0,1-1,19.07,38.77,38.77,0,0,1-10.85,16.23q-7.56,7-19.42,10.31a96.18,96.18,0,0,1-27.25,3.86,93.12,93.12,0,0,1-33.56-6.18,71.87,71.87,0,0,1-27.24-19.33q-11.1-12.88-15.64-32.21-4.29-19.58,1.26-45.6,4.29-20.35,13.12-34.27a83.47,83.47,0,0,1,20.68-22.68A76.82,76.82,0,0,1,1363,11.87,91.47,91.47,0,0,1,1389,8a83.3,83.3,0,0,1,30.53,5.41q14.13,5.16,22.2,13.66a40.21,40.21,0,0,1,7.57,11.59A43.31,43.31,0,0,1,1452.84,51.8Z"/><path d="M1457.38,51a56.88,56.88,0,0,1,0,15.2,50.55,50.55,0,0,1-4,14.18,40.71,40.71,0,0,1-30.53,23.7,35.68,35.68,0,0,1,5.3,3.61,25,25,0,0,1,4.54,4.89q8.07,10.83,10.09,22.16a40.69,40.69,0,0,1-1.51,21.13,42.63,42.63,0,0,1-11.86,18q-8.33,7.73-21.19,11.34a106,106,0,0,1-28.51,3.86,98.44,98.44,0,0,1-35.32-6.44,74.4,74.4,0,0,1-28.76-20.1q-11.86-13.65-16.65-34-4.8-20.61,1.26-48.18,4.55-21.39,13.87-36.08a87.93,87.93,0,0,1,21.45-23.7,82.55,82.55,0,0,1,26-13.15A96.49,96.49,0,0,1,1389,3.36,90,90,0,0,1,1421.31,9q14.88,5.67,23.71,15a44.14,44.14,0,0,1,8.33,12.62A54,54,0,0,1,1457.38,51Zm-4.54,14.43a46,46,0,0,0,0-13.66,43.31,43.31,0,0,0-3.53-13.14,40.21,40.21,0,0,0-7.57-11.59q-8.07-8.51-22.2-13.66A83.3,83.3,0,0,0,1389,8a91.47,91.47,0,0,0-26,3.87,76.82,76.82,0,0,0-24.73,12.62,83.47,83.47,0,0,0-20.68,22.68q-8.83,13.9-13.12,34.27-5.55,26-1.26,45.6,4.53,19.33,15.64,32.21a71.87,71.87,0,0,0,27.24,19.33,93.12,93.12,0,0,0,33.56,6.18,96.18,96.18,0,0,0,27.25-3.86q11.85-3.36,19.42-10.31a38.77,38.77,0,0,0,10.85-16.23,36.36,36.36,0,0,0,1-19.07,45,45,0,0,0-9.08-19.84,28.26,28.26,0,0,0-12.36-9,36.68,36.68,0,0,0-14.89-3.35,37.48,37.48,0,0,0-20.69,6.18,44.31,44.31,0,0,0-15.13,16.49,2.2,2.2,0,0,1-3,1q-2-1.56-.76-3.1a43.28,43.28,0,0,1,17.16-18.55,17.92,17.92,0,0,1-6.31-4.89,8.42,8.42,0,0,1-2-6.7,9.42,9.42,0,0,1,4-6.7,14.13,14.13,0,0,1,8.58-2.58q-5.55-9-7.83-22.93a1.58,1.58,0,0,1,.26-1.55,4,4,0,0,1,1.51-1,2.07,2.07,0,0,1,2.78,1.8,75.15,75.15,0,0,0,4,15,45,45,0,0,0,7.32,12.37,39.18,39.18,0,0,0,11.1,8.76,33.9,33.9,0,0,0,14.63,3.09,33.19,33.19,0,0,0,18.67-5.67,34.82,34.82,0,0,0,12.87-15.46A49,49,0,0,0,1452.84,65.46ZM1397.59,98.7a38.22,38.22,0,0,1-10.34-9.53,20.44,20.44,0,0,0-3.53-.26,12.73,12.73,0,0,0-3.54.51,8.55,8.55,0,0,0-3,1.55,4.29,4.29,0,0,0-1.52,2.83q-.26,2.07,2.27,4.9a10.92,10.92,0,0,0,7.32,3.35A37.45,37.45,0,0,1,1397.59,98.7Z"/><path class="ff3b895f-3fea-4fa2-8e48-4bfebe8ec55a" d="M1625.55,38.92a79.59,79.59,0,0,1-.76,13.4q-1,7.47-3,18-2,10.31-5,25.76-3,16-4.8,26.54-1.76,10.31-3.53,18a124.59,124.59,0,0,1-3.53,13.66,82,82,0,0,1-5.3,13.4,62.93,62.93,0,0,1-4.54,6.44,40.25,40.25,0,0,1-7.32,6.7,34.49,34.49,0,0,1-9.84,4.38,23.05,23.05,0,0,1-11.35.26q-10.85-2.32-15.39-9a35.78,35.78,0,0,1-5.55-15.72,71.15,71.15,0,0,1,.51-18.81q1-5.55,1.94-10.7a2.36,2.36,0,0,0,.58-1.15c.34-2.41.76-4.81,1.26-7.22.5-2.58.93-5.07,1.26-7.47.34-1.2-.17-2-1.51-2.32a1.83,1.83,0,0,0-2.52,1.55c-.51,2.4-1,4.89-1.52,7.47-.08.58-.17,1.16-.26,1.74l-.5.06a27.26,27.26,0,0,1-3.28.26,41,41,0,0,1-5.8-.52l-.09,0-.41-.23c-2.19-.52-4.21-1-6.06-1.55a53.45,53.45,0,0,1-6.56-3.09,28.73,28.73,0,0,1-3.78-2.32l-2.78-2.84a1.83,1.83,0,0,0-2.77-.25c-1.18.51-1.26,1.46-.25,2.83a34.88,34.88,0,0,0,7.57,6.19,57.34,57.34,0,0,0,7.06,3.34h0q-1.11,6.19-2.06,11.08a93.18,93.18,0,0,1-2.52,11.33,81.8,81.8,0,0,1-3,9.79,77.15,77.15,0,0,1-4.29,9.8,31.55,31.55,0,0,1-5,7.21,30.42,30.42,0,0,1-7.57,5.93,33.72,33.72,0,0,1-10.09,3.35,40.84,40.84,0,0,1-13.38-.78,16.92,16.92,0,0,1-11.35-8.24,51.92,51.92,0,0,1-5.3-17.27,145.11,145.11,0,0,1-.75-23.19,251.84,251.84,0,0,1,3-26.54q2.28-13.65,5.3-27,3.28-13.67,6.81-25t6.82-19.84a69.14,69.14,0,0,1,6-12.11,40.88,40.88,0,0,1,12.62-11.85q7.05-4.12,17.4-2.83a24.08,24.08,0,0,1,8.58,2.83,23,23,0,0,1,6.06,4.38,18.59,18.59,0,0,1,3.78,5.41,27.3,27.3,0,0,1,1.77,5.16,59,59,0,0,1,1.26,9.27,64.92,64.92,0,0,1-.26,9.79A93.78,93.78,0,0,1,1540,58.76q-.78,5.18-2,11.87a42.56,42.56,0,0,0-7.07,1,31.77,31.77,0,0,0-9.08,3.61,2.18,2.18,0,0,0-.76,2.84,2.49,2.49,0,0,0,1.26,1,1.48,1.48,0,0,0,1.51-.26,25.79,25.79,0,0,1,8.08-3.35,40.82,40.82,0,0,1,7.06-.77h6.22c1.07.13,2.28.3,3.62.51a29.26,29.26,0,0,1,6.31,1.82l-1.26,10.55a2.28,2.28,0,0,0,2,2.32,2.19,2.19,0,0,0,2.27-1.8L1560,73.45a2,2,0,0,0,.06-.32l1.46-7.93q1.26-7,2.52-14.43c.5-2.57,1.18-5.41,2-8.5q1.52-4.64,3.28-9a70.88,70.88,0,0,1,4.54-8.76,38.9,38.9,0,0,1,5.3-7,31.37,31.37,0,0,1,2.77-2.32,29.5,29.5,0,0,1,5.3-3.09,30.79,30.79,0,0,1,7.32-2.32,25.31,25.31,0,0,1,9.58-.25,24.15,24.15,0,0,1,8.58,2.83,23,23,0,0,1,6,4.38,18.44,18.44,0,0,1,3.79,5.41,26.52,26.52,0,0,1,1.76,5.16A52.57,52.57,0,0,1,1625.55,38.92Z"/><path d="M1560,73.45l.06-.32A2,2,0,0,1,1560,73.45Z"/><path d="M1558.94,78.86c.34-1.79.67-3.59,1-5.41l-1.76,14.69a2.19,2.19,0,0,1-2.27,1.8,2.28,2.28,0,0,1-2-2.32l1.26-10.55A40.07,40.07,0,0,1,1558.94,78.86Z"/><path d="M1556.11,72c-.07.3-.13.61-.19.91l-.23-.08A2.32,2.32,0,0,1,1556.11,72Z"/><path d="M1555.66,72.93l0-.08.23.08c.06-.3.12-.61.19-.91a1.89,1.89,0,0,1,3.34.14,1.09,1.09,0,0,1,.56,1l-.06.32c-.34,1.82-.67,3.62-1,5.41a40.07,40.07,0,0,0-3.78-1.79Z"/><path d="M1549.61,113.13c1.34.34,1.85,1.12,1.51,2.32-.33,2.4-.76,4.89-1.26,7.47-.5,2.41-.92,4.81-1.26,7.22a2.36,2.36,0,0,1-.58,1.15q.8-4.18,1.59-8.11c-1.5.3-2.93.54-4.3.71.09-.58.18-1.16.26-1.74.51-2.58,1-5.07,1.52-7.47A1.83,1.83,0,0,1,1549.61,113.13Z"/><path d="M1549.61,123.18q-.79,3.93-1.59,8.11a1.82,1.82,0,0,1-1.94.39c-1.38-.31-2-1-1.84-2,0-.1,0-.21.07-.32.38-1.82.72-3.65,1-5.47C1546.68,123.72,1548.11,123.48,1549.61,123.18Z"/><path d="M1547.34,72.68a1.81,1.81,0,0,1-2,2.06h-.09a33.91,33.91,0,0,0-3.7-.26,12,12,0,0,0-2.52.26h-1.76c.27-1.42.53-2.79.76-4.11l.75,0h3.53c.66,0,1.83.06,3.53.16A2,2,0,0,1,1547.34,72.68Z"/><path d="M1545.32,70.61a4.92,4.92,0,0,1,.5.16c-1.7-.1-2.87-.16-3.53-.16Z"/><path d="M1545.32,74.74a1.81,1.81,0,0,0,2-2.06,2,2,0,0,0-1.52-1.91l1.52.1a30.53,30.53,0,0,1,8.35,2l0,.08-.5,4.14a29.26,29.26,0,0,0-6.31-1.82c-1.34-.21-2.55-.38-3.62-.51Z"/><path d="M1545.23,74.74H1539a12,12,0,0,1,2.52-.26A33.91,33.91,0,0,1,1545.23,74.74Z"/><path d="M1546.08,131.68a1.82,1.82,0,0,0,1.94-.39q-1,5.15-1.94,10.7a71.15,71.15,0,0,0-.51,18.81,35.78,35.78,0,0,0,5.55,15.72q4.55,6.69,15.39,9a23.05,23.05,0,0,0,11.35-.26,34.49,34.49,0,0,0,9.84-4.38,40.25,40.25,0,0,0,7.32-6.7,62.93,62.93,0,0,0,4.54-6.44,82,82,0,0,0,5.3-13.4,124.59,124.59,0,0,0,3.53-13.66q1.77-7.72,3.53-18,1.77-10.56,4.8-26.54,3-15.45,5-25.76,2-10.57,3-18a79.59,79.59,0,0,0,.76-13.4,52.57,52.57,0,0,0-1.27-11.59,26.52,26.52,0,0,0-1.76-5.16,18.44,18.44,0,0,0-3.79-5.41,23,23,0,0,0-6-4.38,24.15,24.15,0,0,0-8.58-2.83,25.31,25.31,0,0,0-9.58.25,30.79,30.79,0,0,0-7.32,2.32,29.5,29.5,0,0,0-5.3,3.09,31.37,31.37,0,0,0-2.77,2.32,38.9,38.9,0,0,0-5.3,7,70.88,70.88,0,0,0-4.54,8.76q-1.77,4.38-3.28,9c-.84,3.09-1.52,5.93-2,8.5q-1.26,7.47-2.52,14.43L1560,73.13a1.09,1.09,0,0,0-.56-1,1.89,1.89,0,0,0-3.34-.14c.59-3,1.12-6.22,1.57-9.65q1-5.67,2.27-12.37a59.56,59.56,0,0,1,1.26-6.18q1.26-4.38,3-9.28A95.07,95.07,0,0,1,1569,24.23a45.12,45.12,0,0,1,7.07-9.53,36.8,36.8,0,0,1,3-2.58,26.1,26.1,0,0,1,6-3.6,38.56,38.56,0,0,1,8.58-2.84,34,34,0,0,1,11.1-.26,26.7,26.7,0,0,1,9.84,3.1,25.83,25.83,0,0,1,7.06,5.41,22.54,22.54,0,0,1,4.54,6.44,21.25,21.25,0,0,1,2.27,6.18,61.84,61.84,0,0,1,1.27,12.37,107.62,107.62,0,0,1-1,13.66q-1,7.72-3,18.29t-5,26q-3,16-4.79,26.54t-3.53,18.29a134.5,134.5,0,0,1-3.53,14.17,118.3,118.3,0,0,1-5.56,13.66,32.52,32.52,0,0,1-5,7.47,46.15,46.15,0,0,1-8.58,7.22,33,33,0,0,1-10.85,4.89,25.87,25.87,0,0,1-13.12.26q-11.85-2.58-17.15-9.53a37.55,37.55,0,0,1-6.81-16.24,62.19,62.19,0,0,1-.26-18.55q1.14-8.55,2.48-15.45l.23.05C1544.09,130.71,1544.7,131.37,1546.08,131.68Z"/><path d="M1537.25,74.74H1539a40.82,40.82,0,0,0-7.06.77,25.79,25.79,0,0,0-8.08,3.35,1.48,1.48,0,0,1-1.51.26,2.49,2.49,0,0,1-1.26-1,2.18,2.18,0,0,1,.76-2.84,31.77,31.77,0,0,1,9.08-3.61,42.56,42.56,0,0,1,7.07-1C1537.78,72,1537.52,73.32,1537.25,74.74Z"/><path d="M1545.31,123.89c-.28,1.82-.62,3.65-1,5.47,0,.11,0,.22-.07.32l-.23-.05c.09-.53.2-1,.3-1.56h-2.78q-3.78,0-6.55-.25l-.68-.15,0-.18a1.23,1.23,0,0,0,1.14-.19,2.48,2.48,0,0,0,1-1.29,1.69,1.69,0,0,0-.85-2.34l.09,0a41,41,0,0,0,5.8.52,27.26,27.26,0,0,0,3.28-.26Z"/><path d="M1527.7,125.76c2,.52,4.09,1,6.27,1.54a1.86,1.86,0,0,0,.37.19l0,.18a24.73,24.73,0,0,1-2.6-.63q-1.28,7.21-2.53,12.89-1,5.41-2.27,10.3a88.3,88.3,0,0,1-3,9.54,59.58,59.58,0,0,1-4.28,9.79,49,49,0,0,1-5.81,8.24,33.81,33.81,0,0,1-8.57,6.7,38.66,38.66,0,0,1-11.61,3.61,42.61,42.61,0,0,1-14.63-.51,20.44,20.44,0,0,1-13.12-9q-4.8-7.22-6.56-18a122,122,0,0,1-1.26-24.22q.75-13.66,2.77-27.83,2.28-14.17,5.55-28.08,3.54-13.92,7.07-25.77,3.78-11.85,7.31-20.36,3.54-8.76,6.06-12.37a49.22,49.22,0,0,1,14.13-13.14q8.07-4.89,20.18-3.35a29.16,29.16,0,0,1,10.09,3.1,25.88,25.88,0,0,1,7.07,5.41,25.24,25.24,0,0,1,4.28,6.44,21.25,21.25,0,0,1,2.27,6.18,58,58,0,0,1,1.27,9.28,62.34,62.34,0,0,1-.26,9.53,98.26,98.26,0,0,1-1.26,11.08q-.75,6.18-2.27,14.17h-3.53l-.75,0q1.23-6.7,2-11.87a93.78,93.78,0,0,0,1.51-12.37,64.92,64.92,0,0,0,.26-9.79,59,59,0,0,0-1.26-9.27,27.3,27.3,0,0,0-1.77-5.16,18.59,18.59,0,0,0-3.78-5.41,23,23,0,0,0-6.06-4.38,24.08,24.08,0,0,0-8.58-2.83q-10.33-1.29-17.4,2.83a40.88,40.88,0,0,0-12.62,11.85,69.14,69.14,0,0,0-6,12.11q-3.29,8.5-6.82,19.84t-6.81,25q-3,13.39-5.3,27.05a251.84,251.84,0,0,0-3,26.54,145.11,145.11,0,0,0,.75,23.19,51.92,51.92,0,0,0,5.3,17.27,16.92,16.92,0,0,0,11.35,8.24,40.84,40.84,0,0,0,13.38.78,33.72,33.72,0,0,0,10.09-3.35,30.42,30.42,0,0,0,7.57-5.93,31.55,31.55,0,0,0,5-7.21,77.15,77.15,0,0,0,4.29-9.8,81.8,81.8,0,0,0,3-9.79,93.18,93.18,0,0,0,2.52-11.33Q1526.6,132,1527.7,125.76Z"/><path d="M1528.42,121.63a36,36,0,0,0,7.22,2,1.69,1.69,0,0,1,.85,2.34,2.48,2.48,0,0,1-1,1.29,1.23,1.23,0,0,1-1.14.19,1.86,1.86,0,0,1-.37-.19c-2.18-.51-4.26-1-6.27-1.54C1527.93,124.43,1528.17,123.05,1528.42,121.63Z"/><path d="M1535.64,123.67a36,36,0,0,1-7.22-2c-.25,1.42-.49,2.8-.72,4.13h0a57.34,57.34,0,0,1-7.06-3.34,34.88,34.88,0,0,1-7.57-6.19c-1-1.37-.93-2.32.25-2.83a1.83,1.83,0,0,1,2.77.25l2.78,2.84a28.73,28.73,0,0,0,3.78,2.32,53.45,53.45,0,0,0,6.56,3.09c1.85.52,3.87,1,6.06,1.55Z"/><path class="ac35583f-f9af-4c4c-86c4-04a11c435558" d="M1780.24,27.58q6.55,7.47,4.79,18.3a16.21,16.21,0,0,1-5,9.79,43.06,43.06,0,0,1-10.34,7.21A66.45,66.45,0,0,1,1758.91,67c-.62.19-1.25.36-1.88.53q-6.81,1.55-12.87,2.32c-3.86.34-7.48.52-10.84.52-3.37-.18-6.56-.43-9.59-.78q-3.29-.51-6.81-1.29-3.54-1-7.32-2.06l-1.6-.54q-7.38-2.55-13.54-4.87c-1-.51-1.85-.17-2.52,1s-.34,2.15,1,2.84c2.37,1,5.06,2,8.07,3l-.25.1a42.33,42.33,0,0,0-6.56,3.61,45,45,0,0,0-9.08,7.73q-1.26,1.8,0,3.09c.84.86,1.77.77,2.77-.26s2.19-2.15,3.54-3.35a40.06,40.06,0,0,1,4.79-3.61,32.79,32.79,0,0,1,6.31-3.35,45,45,0,0,1,4.83-1.91l1.22.37a55.43,55.43,0,0,0,7.07,2.06c2.35.52,4.62.94,6.81,1.29h.25l.25.26h1.26a.32.32,0,0,0,.51,0q4.54.51,9.33.77a77.71,77.71,0,0,0,10.6-.77q6.3-.78,13.62-2.32l.5-.13A32.46,32.46,0,0,1,1772.67,84a25.28,25.28,0,0,1,3.53,17,21.41,21.41,0,0,1-4,10.31,40.51,40.51,0,0,1-6.56,7.47,33.29,33.29,0,0,1-6.56,4.64c-1.78,1-2.86,1.59-3.24,1.78a41.07,41.07,0,0,0-6.1-2.3,69.25,69.25,0,0,0-14.63-2.58,129.47,129.47,0,0,0-13.87-.25q-3.54.25-6.31.51c-1.85.17-2.78.34-2.78.52a40.31,40.31,0,0,0-6,1.29c-1,.26-2.14.6-3.29,1-1.31-.46-2.74-1.06-4.28-1.78s-3.7-2-6-3.35q-2.78-2.06-4.8-3.86c-1.34-1.21-2.52-2.32-3.53-3.35-.84-1-1.77-1-2.78,0a1.9,1.9,0,0,0,0,2.83,40.92,40.92,0,0,0,3.79,3.87q2.26,1.8,5.3,3.86a38.47,38.47,0,0,0,6.3,3.87l.49.2c-.89.41-1.81.86-2.76,1.34q-2,1.29-4.79,2.84a36.33,36.33,0,0,0-5.8,4.12,2,2,0,0,0-.51,2.84c1,1,1.94,1.11,2.78.25a51.17,51.17,0,0,1,5.55-3.6q2.77-1.55,4.79-2.84,3.74-1.82,6.94-3a1.55,1.55,0,0,0,.89-.32c.87-.3,1.71-.57,2.52-.8q4.79-1.29,6.05-1.55c.34,0,1.35-.08,3-.26a28,28,0,0,1,5.55-.51,113.22,113.22,0,0,1,13.12.26,65.27,65.27,0,0,1,13.37,2.32,38.22,38.22,0,0,1,7.67,3,32.59,32.59,0,0,1,3.93,2.42,17.78,17.78,0,0,1,7.07,8.76,32.6,32.6,0,0,1,1.51,8.24,17.4,17.4,0,0,1-1.51,9,28.84,28.84,0,0,1-6.56,9.54,59.68,59.68,0,0,1-13.62,9.27,77.72,77.72,0,0,1-22.71,6.7,169.33,169.33,0,0,1-26.24,2.06q-13.11.26-23.71-.51a104.86,104.86,0,0,1-14.38-2.06q-10.86-3.36-17.41-9.54-6.32-6.44-6.06-19.32a133,133,0,0,1,1.26-13.92q1.27-10,3.54-23.19,2.26-13.4,5.55-28.34t7.06-28.09a207,207,0,0,1,8.58-23.7q4.55-10.3,9.33-14.18,7.32-5.93,18.93-9a111.42,111.42,0,0,1,24.21-4.13,129.2,129.2,0,0,1,24.48.26q11.85,1,19.17,3.87Q1773.94,20.11,1780.24,27.58Z"/><path d="M1776,82a30.09,30.09,0,0,1,4.29,19.58,28.1,28.1,0,0,1-4.54,11.86,41.17,41.17,0,0,1-7.57,8.5,40.18,40.18,0,0,1-7.06,5.15l-1,.54a35.53,35.53,0,0,0-4.29-2.36c.38-.19,1.46-.79,3.24-1.78a33.29,33.29,0,0,0,6.56-4.64,40.51,40.51,0,0,0,6.56-7.47,21.41,21.41,0,0,0,4-10.31,25.28,25.28,0,0,0-3.53-17,32.46,32.46,0,0,0-13.88-12.75q2.74-.69,5.34-1.58A34.93,34.93,0,0,1,1776,82Z"/><path d="M1760.1,127.58c-1.6.87-2.53,1.38-2.82,1.52a2.08,2.08,0,0,1-1.3,0,2.1,2.1,0,0,1-1.22-1.31c-.5-1-.17-1.89,1-2.58l0,0A35.53,35.53,0,0,1,1760.1,127.58Z"/><path d="M1758.29,71.39q-7.32,1.55-13.62,2.32a77.71,77.71,0,0,1-10.6.77q-4.78-.26-9.33-.77a.32.32,0,0,1-.51,0H1723l-.25-.26h-.25c-2.19-.35-4.46-.77-6.81-1.29a55.43,55.43,0,0,1-7.07-2.06l-1.22-.37.46-.15c1.18-.34,1.6-1.2,1.27-2.57a1.72,1.72,0,0,0-1.1-1.32l1.6.54q3.78,1,7.32,2.06,3.52.78,6.81,1.29c3,.35,6.22.6,9.59.78,3.36,0,7-.18,10.84-.52q6.06-.77,12.87-2.32c.63-.17,1.26-.34,1.88-.53l.06.21a2.14,2.14,0,0,0-1.43,1.35c-.51,1-.17,1.89,1,2.58l.25.13Z"/><path d="M1758.54,71.13c-1.17-.69-1.51-1.55-1-2.58A2.14,2.14,0,0,1,1759,67.2a2,2,0,0,1,1.34.32,42.53,42.53,0,0,1,3.82,2.16q-2.6.88-5.34,1.58Z"/><path d="M1756,129.13a2.08,2.08,0,0,0,1.3,0c.29-.14,1.22-.65,2.82-1.52.77.48,1.51,1,2.23,1.52a20.17,20.17,0,0,1,8.07,10.31q3,8.51,1.52,15.46a29.55,29.55,0,0,1-5.55,11.86,39.63,39.63,0,0,1-9.09,8.5,95.73,95.73,0,0,1-9.08,5.41,74.6,74.6,0,0,1-23.71,7.21,179.56,179.56,0,0,1-27,2.06,211.7,211.7,0,0,1-24.22-.77q-10.85-.76-14.88-2.06A47.71,47.71,0,0,1,1639,176.26q-7.32-7.22-7.06-21.9,0-3.36,1.26-13.4,1.26-10.31,3.53-23.71,2.52-13.4,5.55-28.6,3.29-15.47,7.32-29.37a206.54,206.54,0,0,1,9.08-24.48q4.78-10.83,10.09-15.2,7.82-6.19,19.93-9.54a115.35,115.35,0,0,1,25.48-4.38,136.54,136.54,0,0,1,25.23.26q12.36,1,19.93,4.12a78.94,78.94,0,0,1,13.12,6.44,39.77,39.77,0,0,1,10.09,7.73,26,26,0,0,1,5.8,10.05,27.09,27.09,0,0,1,.76,12.37,20.61,20.61,0,0,1-5.8,11.6,43.39,43.39,0,0,1-11.35,8.24,64.81,64.81,0,0,1-7.79,3.19,42.53,42.53,0,0,0-3.82-2.16,2,2,0,0,0-1.34-.32l-.06-.21a66.45,66.45,0,0,0,10.74-4.11A43.06,43.06,0,0,0,1780,55.67a16.21,16.21,0,0,0,5-9.79q1.77-10.83-4.79-18.3-6.3-7.47-22.2-13.65-7.32-2.84-19.17-3.87a129.2,129.2,0,0,0-24.48-.26,111.42,111.42,0,0,0-24.21,4.13q-11.61,3.09-18.93,9-4.79,3.87-9.33,14.18a207,207,0,0,0-8.58,23.7q-3.78,13.14-7.06,28.09t-5.55,28.34q-2.28,13.14-3.54,23.19a133,133,0,0,0-1.26,13.92q-.24,12.88,6.06,19.32,6.55,6.18,17.41,9.54a104.86,104.86,0,0,0,14.38,2.06q10.59.76,23.71.51a169.33,169.33,0,0,0,26.24-2.06,77.72,77.72,0,0,0,22.71-6.7,59.68,59.68,0,0,0,13.62-9.27,28.84,28.84,0,0,0,6.56-9.54,17.4,17.4,0,0,0,1.51-9,32.6,32.6,0,0,0-1.51-8.24,17.78,17.78,0,0,0-7.07-8.76,32.59,32.59,0,0,0-3.93-2.42Z"/><path d="M1709.1,67c.33,1.37-.09,2.23-1.27,2.57l-.46.15c-2.26-.7-4.37-1.38-6.35-2a44.78,44.78,0,0,1,5.55-2,2.5,2.5,0,0,1,1.43,0A1.72,1.72,0,0,1,1709.1,67Z"/><path d="M1694.46,60.82q6.16,2.32,13.54,4.87a2.5,2.5,0,0,0-1.43,0,44.78,44.78,0,0,0-5.55,2c-3-1-5.7-2-8.07-3-1.35-.69-1.68-1.63-1-2.84S1693.45,60.31,1694.46,60.82Z"/><path d="M1706.83,126.53c-.81.23-1.65.5-2.52.8a2.29,2.29,0,0,0,.75-1.32c.34-1.2-.17-2-1.51-2.32-.25-.08-.51-.17-.77-.28,1.15-.4,2.24-.74,3.29-1a40.31,40.31,0,0,1,6-1.29c0-.18.93-.35,2.78-.52s3.95-.34,6.31-.51a129.47,129.47,0,0,1,13.87.25,69.25,69.25,0,0,1,14.63,2.58,41.07,41.07,0,0,1,6.1,2.3l0,0c-1.18.69-1.51,1.55-1,2.58a2.1,2.1,0,0,0,1.22,1.31l-.36.65a38.22,38.22,0,0,0-7.67-3,65.27,65.27,0,0,0-13.37-2.32,113.22,113.22,0,0,0-13.12-.26,28,28,0,0,0-5.55.51c-1.68.18-2.69.26-3,.26Q1711.62,125.24,1706.83,126.53Z"/><path d="M1703.55,123.69c1.34.35,1.85,1.12,1.51,2.32a2.29,2.29,0,0,1-.75,1.32l-.89.32a2.8,2.8,0,0,1-.88-.09,47.21,47.21,0,0,1-5.32-1.86q3-1.38,5.56-2.29C1703,123.52,1703.3,123.61,1703.55,123.69Z"/><path d="M1703.42,127.65l.89-.32A1.55,1.55,0,0,1,1703.42,127.65Z"/><path d="M1707.37,69.73a45,45,0,0,0-4.83,1.91,32.79,32.79,0,0,0-6.31,3.35,40.06,40.06,0,0,0-4.79,3.61q-2,1.8-3.54,3.35c-1,1-1.93,1.12-2.77.26s-.84-1.89,0-3.09a45,45,0,0,1,9.08-7.73,42.33,42.33,0,0,1,6.56-3.61l.25-.1C1703,68.35,1705.11,69,1707.37,69.73Z"/><path d="M1703.42,127.65q-3.21,1.18-6.94,3-2,1.29-4.79,2.84a51.17,51.17,0,0,0-5.55,3.6c-.84.86-1.77.78-2.78-.25a2,2,0,0,1,.51-2.84,36.33,36.33,0,0,1,5.8-4.12q2.77-1.55,4.79-2.84c1-.48,1.87-.93,2.76-1.34a47.21,47.21,0,0,0,5.32,1.86A2.8,2.8,0,0,0,1703.42,127.65Z"/><path d="M1698.5,121.63c1.54.72,3,1.32,4.28,1.78q-2.61.91-5.56,2.29l-.49-.2a38.47,38.47,0,0,1-6.3-3.87q-3-2.05-5.3-3.86a40.92,40.92,0,0,1-3.79-3.87,1.9,1.9,0,0,1,0-2.83c1-1,1.94-1,2.78,0,1,1,2.19,2.14,3.53,3.35s2.95,2.49,4.8,3.86C1694.8,119.66,1696.82,120.77,1698.5,121.63Z"/><path class="ef9fe4bf-6d46-4f00-b9da-9dc1a3b1fd47" d="M1940.93,24q7.32,7.72,5.3,19.32a16.84,16.84,0,0,1-5.3,10.05,39.47,39.47,0,0,1-10.34,7.47,72.36,72.36,0,0,1-13.37,4.64q-2.64.67-5.21,1.2a1.85,1.85,0,0,0-1.41.28c-2.39.46-4.72.83-7,1.1q-5.8.51-11.1.51a64,64,0,0,1-10.09-.77c-2.35-.34-4.71-.77-7.06-1.29-2.36-.69-4.88-1.37-7.57-2.06q-4.29-1.29-8.33-2.83c-2.52-1-5-2-7.31-2.84a2,2,0,0,0-2.78,1c-.67,1.2-.34,2.15,1,2.84,2.35.86,4.88,1.8,7.57,2.83l.31.11c-.76.27-1.54.58-2.33.92a56.1,56.1,0,0,0-11.86,8,25.83,25.83,0,0,0-3.78,3.61,1.9,1.9,0,0,0,0,2.83c.84.86,1.76.77,2.77-.26s2.19-2.14,3.53-3.35a40,40,0,0,1,4.8-3.6,31.71,31.71,0,0,1,6.31-3.35,42.22,42.22,0,0,1,5.29-2.07,1.94,1.94,0,0,0,1.17-.77c.87.27,1.74.52,2.62.77a68.52,68.52,0,0,0,7.31,2.07l7.07,1.54h.5c.34,0,.51.09.51.26h1.26a83.17,83.17,0,0,0,20.69,0c2.4-.3,5-.7,7.63-1.23.56.3,1.39.79,2.46,1.49a32,32,0,0,1,6.31,5.15,44.13,44.13,0,0,1,6.55,8,23,23,0,0,1,4,10.56,23.7,23.7,0,0,1-1,11.08,28.6,28.6,0,0,1-4.79,8.25,25.48,25.48,0,0,1-6.06,5.41q-3.27,2.06-5.55,3.35-15.14,7.47-35.32,4.38-20.17-3.34-40.36-19.07a2.12,2.12,0,0,0-2.78.52c-.84.86-.75,1.8.25,2.83a107.16,107.16,0,0,0,27,15.63,119.58,119.58,0,0,1-2.75,11.68c-1,4-2.1,7.73-3.28,11.34s-2.35,6.79-3.53,9.54c-1,2.74-1.85,4.81-2.52,6.18a27.62,27.62,0,0,1-4,6.44,36.69,36.69,0,0,1-7.57,6.7,34.44,34.44,0,0,1-10.34,4.9,25.31,25.31,0,0,1-12.87-.26,24.62,24.62,0,0,1-15.39-11.08q-5.3-8.76-5.55-20.87a98.48,98.48,0,0,1,1-11.34q1-8,2.53-17.78,1.75-9.8,3.53-20.35,2-10.83,3.78-20.1,2-9.54,3.53-16.49c1-4.81,1.69-8.08,2-9.79q.51-2.32,1.77-6.45,1.26-4.38,3-9.53,2-5.16,4.54-10.57a53.11,53.11,0,0,1,6.56-10.3,21.48,21.48,0,0,1,3.78-3.35,23.35,23.35,0,0,1,4.15-2.49,2.2,2.2,0,0,0,1.15-.35c.84-.34,1.6-.68,2.27-1l2.52-1A83.08,83.08,0,0,1,1860.45,7a153.43,153.43,0,0,1,21.45-2.06,130.33,130.33,0,0,1,20.43,1A61.88,61.88,0,0,1,1918,9.8Q1933.87,16.25,1940.93,24Z"/><path d="M1934.88,95.35a27.92,27.92,0,0,1-1,13.14,31.55,31.55,0,0,1-5.55,9.54,30,30,0,0,1-7.07,6.18c-2.35,1.54-4.29,2.75-5.8,3.61q-16.4,8.24-37.84,4.89a76.46,76.46,0,0,1-11.25-2.81c.06-.27.1-.53.15-.8l-4-.77,0,.17a107.16,107.16,0,0,1-27-15.63c-1-1-1.09-2-.25-2.83a2.12,2.12,0,0,1,2.78-.52q20.18,15.72,40.36,19.07,20.19,3.09,35.32-4.38,2.28-1.29,5.55-3.35a25.48,25.48,0,0,0,6.06-5.41,28.6,28.6,0,0,0,4.79-8.25,23.7,23.7,0,0,0,1-11.08,23,23,0,0,0-4-10.56,44.13,44.13,0,0,0-6.55-8,32,32,0,0,0-6.31-5.15c-1.07-.7-1.9-1.19-2.46-1.49,1.74-.33,3.54-.72,5.4-1.15a34.15,34.15,0,0,1,5.89,5,48.17,48.17,0,0,1,7.57,8.76A25.78,25.78,0,0,1,1934.88,95.35Z"/><path d="M1910.6,66.94a1.85,1.85,0,0,1,1.41-.28Z"/><path d="M1910.91,70.61c-1.18-.68-1.52-1.54-1-2.57a1.84,1.84,0,0,1,.7-1.1l1.41-.28.41.09c.34.17,1.52.94,3.53,2.32.39.21.78.45,1.18.71-1.86.43-3.66.82-5.4,1.15A2.46,2.46,0,0,0,1910.91,70.61Z"/><path d="M1866.51,129.1c0,.27-.09.53-.15.8-1.31-.43-2.62-.89-3.92-1.4l0-.17Z"/><path d="M1858.24,65.57q2.9,1,5.9,2a1.94,1.94,0,0,1-1.17.77,42.22,42.22,0,0,0-5.29,2.07,31.71,31.71,0,0,0-6.31,3.35,40,40,0,0,0-4.8,3.6c-1.34,1.21-2.52,2.32-3.53,3.35s-1.93,1.12-2.77.26a1.9,1.9,0,0,1,0-2.83,25.83,25.83,0,0,1,3.78-3.61,56.1,56.1,0,0,1,11.86-8C1856.7,66.15,1857.48,65.84,1858.24,65.57Z"/><path d="M1861.71,64.43a1.85,1.85,0,0,1,2.53,1.55,1.93,1.93,0,0,1-.1,1.54q-3-.92-5.9-2C1859.43,65.12,1860.58,64.75,1861.71,64.43Z"/><path d="M1911.73,70.93c-2.68.53-5.23.93-7.63,1.23a83.17,83.17,0,0,1-20.69,0h-1.26c0-.17-.17-.26-.51-.26h-.5l-7.07-1.54a68.52,68.52,0,0,1-7.31-2.07c-.88-.25-1.75-.5-2.62-.77a1.93,1.93,0,0,0,.1-1.54,1.85,1.85,0,0,0-2.53-1.55c-1.13.32-2.28.69-3.47,1.14l-.31-.11c-2.69-1-5.22-2-7.57-2.83-1.35-.69-1.68-1.64-1-2.84a2,2,0,0,1,2.78-1c2.35.86,4.79,1.8,7.31,2.84q4,1.55,8.33,2.83c2.69.69,5.21,1.37,7.57,2.06,2.35.52,4.71,1,7.06,1.29a64,64,0,0,0,10.09.77q5.29,0,11.1-.51c2.29-.27,4.62-.64,7-1.1a1.84,1.84,0,0,0-.7,1.1c-.51,1-.17,1.89,1,2.57A2.46,2.46,0,0,1,1911.73,70.93Z"/><path d="M1837.55,9l1.2,3.94a37.38,37.38,0,0,0-3.92,1.63c-.65,0-1.19-.48-1.63-1.38-.67-1.2-.33-2.14,1-2.83l2.53-1Z"/><path d="M1840.77,12.12l-2.52,1c-.67.35-1.43.69-2.27,1a2.2,2.2,0,0,1-1.15.35,37.38,37.38,0,0,1,3.92-1.63L1837.55,9l1.71-.7a101.35,101.35,0,0,1,20.43-5.41A142.14,142.14,0,0,1,1882.15,1a137,137,0,0,1,20.94,1,70.49,70.49,0,0,1,16.4,3.87q16.14,6.44,24.47,15.2,8.58,8.76,6.3,22.68a21.45,21.45,0,0,1-6,12.36,45.81,45.81,0,0,1-11.86,8.25A68.33,68.33,0,0,1,1918,69.58l-.84.2c-.4-.26-.79-.5-1.18-.71-2-1.38-3.19-2.15-3.53-2.32l-.41-.09q2.57-.52,5.21-1.2a72.36,72.36,0,0,0,13.37-4.64,39.47,39.47,0,0,0,10.34-7.47,16.84,16.84,0,0,0,5.3-10.05q2-11.59-5.3-19.32-7.07-7.74-23-14.18a61.88,61.88,0,0,0-15.64-3.86,130.33,130.33,0,0,0-20.43-1A153.43,153.43,0,0,0,1860.45,7,83.08,83.08,0,0,0,1840.77,12.12Z"/><path d="M1834.21,10.32c-1.34.69-1.68,1.63-1,2.83.44.9,1,1.36,1.63,1.38a23.35,23.35,0,0,0-4.15,2.49,21.48,21.48,0,0,0-3.78,3.35,53.11,53.11,0,0,0-6.56,10.3q-2.52,5.41-4.54,10.57-1.77,5.16-3,9.53-1.26,4.13-1.77,6.45c-.33,1.71-1,5-2,9.79q-1.5,6.94-3.53,16.49-1.77,9.27-3.78,20.1-1.77,10.56-3.53,20.35-1.52,9.79-2.53,17.78a98.48,98.48,0,0,0-1,11.34q.26,12.1,5.55,20.87A24.62,24.62,0,0,0,1815.54,185a25.31,25.31,0,0,0,12.87.26,34.44,34.44,0,0,0,10.34-4.9,36.69,36.69,0,0,0,7.57-6.7,27.62,27.62,0,0,0,4-6.44c.67-1.37,1.51-3.44,2.52-6.18q1.77-4.12,3.53-9.54c1.18-3.61,2.27-7.38,3.28-11.34a119.58,119.58,0,0,0,2.75-11.68c1.3.51,2.61,1,3.92,1.4q-1,5.57-2.63,11.57-1.51,6.19-3.28,11.6t-3.53,9.79c-1.18,2.75-2.1,4.81-2.78,6.18a47.34,47.34,0,0,1-4.54,7,38.11,38.11,0,0,1-8.58,7.73,35.82,35.82,0,0,1-11.85,5.41,28.19,28.19,0,0,1-14.64-.26A27.49,27.49,0,0,1,1796.62,176a44.85,44.85,0,0,1-6.3-22.67,105.16,105.16,0,0,1,1-12.11q1-8,2.53-17.78,1.76-10.05,3.78-20.87t3.79-20.1q2-9.54,3.53-16.49,1.52-7.22,2-9.8.49-2.31,1.76-6.69t3.28-9.8q2-5.4,4.8-11.08a68,68,0,0,1,6.81-10.82,27.89,27.89,0,0,1,4.79-4.12,32.61,32.61,0,0,1,9.08-4.9l.06.19-.81.33Z"/><path class="e5fc926f-0fb8-49c7-8160-e9f235e41843" d="M553.13,25.16c5.64,9.75,3.2,23.41,2,33.52-3.36,29.25-17.16,58.53-35,81.9-18.44,24.37-34,36.58-65.84,45.4-27,7.54-64.35,4-84.55-15.59a64.78,64.78,0,0,1-17.32-23.65C336.07,102,341,37.29,384.23,12.59c11.12-6.32,31.56-12.69,42.51.77A31.27,31.27,0,0,1,432,24.28c-4,4.91-8,10.59-12.63,16.59C406.19,59,395,76.32,390.63,97.27a12.48,12.48,0,0,0,.64,9.35c4,6.28,13.72,1.73,18.72-3.83a95.19,95.19,0,0,0,24.23-61.23A62.31,62.31,0,0,0,432,24.27s0-.05,0-.08A44.37,44.37,0,0,1,458.1,8.08a52.54,52.54,0,0,1,24,2.22,27.19,27.19,0,0,1,10.1,6.87,27.67,27.67,0,0,1,6.14,10.61v0a57,57,0,0,1,10.8-9.1C523.5,9.69,543.85,8.77,553.13,25.16Zm-54.23,74c7.61-15.7,5.93-32.49,4.12-49.81a82.88,82.88,0,0,0-4.45-20.84A131.71,131.71,0,0,0,475,66.09c-4.81,11.48-9.09,24-6.5,36.28a16.42,16.42,0,0,0,6.05,10.4,13.56,13.56,0,0,0,14.85-1.08A32.11,32.11,0,0,0,498.9,99.16Z"/><path class="e5fc926f-0fb8-49c7-8160-e9f235e41843" d="M503,49.35c1.81,17.32,3.49,34.11-4.12,49.81a32.11,32.11,0,0,1-9.51,12.53,13.56,13.56,0,0,1-14.85,1.08,16.42,16.42,0,0,1-6.05-10.4c-2.59-12.23,1.69-24.8,6.5-36.28a131.71,131.71,0,0,1,23.58-37.58A82.88,82.88,0,0,1,503,49.35Z"/><path class="e5fc926f-0fb8-49c7-8160-e9f235e41843" d="M432,24.27a62.31,62.31,0,0,1,2.22,17.29A95.19,95.19,0,0,1,410,102.79c-5,5.56-14.72,10.11-18.72,3.83a12.48,12.48,0,0,1-.64-9.35c4.36-21,15.56-38.27,28.72-56.4C424,34.87,428,29.19,432,24.28Z"/><path class="a89805dd-deff-42ca-bcc4-6e68cf130fb0" d="M432,24.27s0-.05,0-.08A44.37,44.37,0,0,1,458.1,8.08a52.54,52.54,0,0,1,24,2.22,27.19,27.19,0,0,1,10.1,6.87,27.67,27.67,0,0,1,6.14,10.61v0a57,57,0,0,1,10.8-9.1c14.36-9,34.71-9.95,44,6.44,5.64,9.75,3.2,23.41,2,33.52-3.36,29.25-17.16,58.53-35,81.9-18.44,24.37-34,36.58-65.84,45.4-27,7.54-64.35,4-84.55-15.59a64.78,64.78,0,0,1-17.32-23.65C336.07,102,341,37.29,384.23,12.59c11.12-6.32,31.56-12.69,42.51.77A31.27,31.27,0,0,1,432,24.28c-4,4.91-8,10.59-12.63,16.59C406.19,59,395,76.32,390.63,97.27a12.48,12.48,0,0,0,.64,9.35c4,6.28,13.72,1.73,18.72-3.83a95.19,95.19,0,0,0,24.23-61.23A62.31,62.31,0,0,0,432,24.27Z"/><path class="a89805dd-deff-42ca-bcc4-6e68cf130fb0" d="M468.49,102.37a16.42,16.42,0,0,0,6.05,10.4,13.56,13.56,0,0,0,14.85-1.08,32.11,32.11,0,0,0,9.51-12.53c7.61-15.7,5.93-32.49,4.12-49.81a82.88,82.88,0,0,0-4.45-20.84A131.71,131.71,0,0,0,475,66.09C470.18,77.57,465.9,90.14,468.49,102.37Z"/></svg>