<svg width="57" height="49" viewBox="0 0 57 49" fill="none" xmlns="http://www.w3.org/2000/svg">
<path d="M54.7818 6.03701C56.2156 8.5243 55.5953 12.0091 55.2902 14.5882C54.436 22.0501 50.9278 29.5196 46.3925 35.4814C41.7047 41.6984 37.7491 44.8132 29.6548 47.0633C22.7908 48.9868 13.2958 48.0837 8.16053 43.0861C6.25272 41.4391 4.74647 39.3752 3.75746 37.0529C-0.399025 25.6394 0.854275 9.13146 11.8442 2.83032C14.6711 1.21805 19.8673 -0.406978 22.651 3.02676C23.2735 3.85894 23.7278 4.8053 23.9882 5.81252C22.9713 7.06509 21.9545 8.5141 20.7774 10.0447C17.4268 14.6698 14.5821 19.0883 13.4712 24.4327C13.2146 25.2188 13.2729 26.0743 13.6339 26.818C14.6507 28.4201 17.1218 27.2593 18.3928 25.8409C22.2325 21.5354 24.4165 15.997 24.5526 10.2208C24.5713 8.73122 24.3814 7.24643 23.9882 5.80997C23.9882 5.80997 23.9882 5.79721 23.9882 5.78956C25.6428 3.6717 27.9951 2.21466 30.6233 1.67979C32.6733 1.39158 34.7621 1.58546 36.7246 2.24613C37.7018 2.62735 38.5799 3.22666 39.2922 3.99871C40.0076 4.77248 40.541 5.6974 40.8531 6.70539C41.6689 5.82035 42.5911 5.04054 43.5987 4.38392C47.2493 2.09052 52.4226 1.85582 54.7818 6.03701ZM40.9955 24.9149C42.9301 20.9097 42.503 16.6265 42.0429 12.208C41.8953 10.3944 41.5151 8.60753 40.9116 6.89162C38.3885 9.72432 36.3625 12.9659 34.9196 16.4785C33.6968 19.4071 32.6088 22.6011 33.2672 25.7338C33.4269 26.7816 33.9765 27.7297 34.8052 28.3869C35.3927 28.7155 36.0631 28.8646 36.7339 28.8156C37.4047 28.7667 38.0465 28.5219 38.5804 28.1114C39.637 27.2632 40.4669 26.1648 40.9955 24.9149Z" fill="white"/>
<path d="M42.8106 13.4277C43.2707 17.8462 43.6978 22.1294 41.7632 26.1346C41.2339 27.3848 40.4031 28.4832 39.3456 29.3311C38.8117 29.7416 38.1699 29.9864 37.4991 30.0353C36.8283 30.0843 36.1579 29.9352 35.5704 29.6066C34.7417 28.9494 34.1921 28.0013 34.0324 26.9535C33.374 23.8335 34.4621 20.6269 35.6848 17.6982C37.1284 14.1854 39.1554 10.9438 41.6793 8.11133C42.2828 9.82723 42.6631 11.6141 42.8106 13.4277Z" fill="white"/>
<path d="M25.0628 4.63867C25.4559 6.07514 25.6459 7.55993 25.6271 9.04946C25.4918 14.8254 23.3087 20.3637 19.47 24.6696C18.1989 26.088 15.7279 27.2488 14.711 25.6467C14.35 24.903 14.2917 24.0475 14.5483 23.2614C15.6567 17.9042 18.5039 13.4985 21.8494 8.87344C23.029 7.3428 24.0459 5.8938 25.0628 4.64122V4.63867Z" fill="white"/>
<path d="M23.9889 5.80997C23.9889 5.80997 23.9889 5.79721 23.9889 5.78956C25.6435 3.6717 27.9958 2.21466 30.6241 1.67979C32.6741 1.39158 34.7628 1.58546 36.7253 2.24613C37.7026 2.62735 38.5806 3.22666 39.2929 3.99871C40.0084 4.77248 40.5417 5.6974 40.8538 6.70539C41.6696 5.82035 42.5919 5.04054 43.5994 4.38392C47.25 2.08796 52.4234 1.84561 54.7851 6.02681C56.2188 8.5141 55.5986 11.9989 55.2935 14.578C54.4393 22.0398 50.9311 29.5094 46.3958 35.4712C41.708 41.6881 37.7524 44.803 29.658 47.053C22.7941 48.9765 13.299 48.0735 8.1638 43.0759C6.256 41.4289 4.74974 39.3649 3.76073 37.0427C-0.398297 25.6394 0.855008 9.13146 11.8449 2.83032C14.6718 1.21805 19.868 -0.406977 22.6517 3.02676C23.2743 3.85894 23.7285 4.8053 23.9889 5.81252C22.9721 7.06509 21.9552 8.5141 20.7782 10.0447C17.4275 14.6698 14.5828 19.0883 13.4719 24.4327C13.2153 25.2188 13.2736 26.0743 13.6346 26.818C14.6515 28.4201 17.1225 27.2593 18.3936 25.8409C22.2333 21.5354 24.4173 15.997 24.5533 10.2208C24.5721 8.73122 24.3821 7.24643 23.9889 5.80997Z" stroke="black" stroke-width="2" stroke-miterlimit="10"/>
<path d="M34.0375 26.9535C34.1972 28.0013 34.7468 28.9494 35.5756 29.6066C36.163 29.9352 36.8334 30.0843 37.5042 30.0353C38.175 29.9864 38.8168 29.7416 39.3507 29.3311C40.4082 28.4832 41.239 27.3848 41.7683 26.1346C43.7029 22.1294 43.2759 17.8462 42.8157 13.4277C42.6682 11.6141 42.2879 9.82723 41.6844 8.11133C39.1614 10.944 37.1353 14.1856 35.6925 17.6982C34.4672 20.6269 33.3791 23.8335 34.0375 26.9535Z" stroke="black" stroke-width="2" stroke-miterlimit="10"/>
</svg>
