<svg width="141" height="17" viewBox="0 0 141 17" fill="none" xmlns="http://www.w3.org/2000/svg">
<path d="M7.5723 2.64248C7.5189 2.54804 7.45881 2.43337 7.39206 2.29847C7.3253 2.15007 7.22516 2.01517 7.09165 1.89375C6.95813 1.75885 6.77788 1.65092 6.55091 1.56998C6.32393 1.48903 6.02352 1.46205 5.64968 1.48903C5.31589 1.51601 5.02216 1.63743 4.76848 1.85328C4.5148 2.05564 4.28782 2.30521 4.08755 2.60201C3.90063 2.8988 3.74041 3.20908 3.60689 3.53286C3.48673 3.85663 3.38659 4.15342 3.30648 4.42324C3.25307 4.6256 3.15961 4.94262 3.0261 5.37432C2.90593 5.80602 2.76574 6.29843 2.60552 6.85154C2.45866 7.39117 2.29844 7.97801 2.12487 8.61206C1.96465 9.24612 1.82446 9.87343 1.70429 10.494C1.58413 11.1011 1.48399 11.6812 1.40388 12.2343C1.32378 12.7739 1.29707 13.2326 1.32378 13.6103C1.33713 13.8666 1.38386 14.123 1.46397 14.3793C1.54408 14.6221 1.66424 14.8447 1.82446 15.0471C1.98468 15.2359 2.18495 15.3911 2.42528 15.5125C2.67896 15.6339 2.97269 15.6946 3.30648 15.6946C4.05417 15.6676 4.60158 15.5058 4.94872 15.209C5.30921 14.9122 5.54954 14.5412 5.66971 14.096C5.72311 13.9071 5.76984 13.7317 5.8099 13.5699C5.84995 13.408 5.89001 13.2393 5.93006 13.064C5.97012 12.8751 6.01017 12.6592 6.05022 12.4164C6.09028 12.1736 6.13701 11.87 6.19042 11.5058C6.20377 11.4653 6.21712 11.3979 6.23047 11.3034C6.24382 11.1955 6.27053 11.0201 6.31058 10.7773C6.4708 11.0066 6.67775 11.2292 6.93143 11.4451C7.19846 11.6609 7.50554 11.8228 7.85268 11.9307C8.4268 12.1061 8.98757 12.1264 9.53498 11.9915C10.0824 11.8431 10.5898 11.5732 11.0571 11.182C11.5244 10.7908 11.9383 10.2849 12.2988 9.66433C12.6726 9.03027 12.9663 8.32202 13.18 7.53956C13.3669 6.83805 13.4537 6.17027 13.4403 5.53621C13.427 4.88866 13.3201 4.30182 13.1199 3.77569C12.9196 3.24955 12.6325 2.80437 12.2587 2.44012C11.8849 2.06238 11.4376 1.79257 10.9169 1.63068C10.3294 1.45531 9.74193 1.4688 9.15446 1.67116C8.58034 1.86002 8.05296 2.1838 7.5723 2.64248ZM11.037 5.05055C10.9436 4.95611 10.7834 4.96961 10.5564 5.09102C10.3427 5.21244 10.1158 5.37432 9.87544 5.57668C9.64847 5.77904 9.43484 5.98814 9.23457 6.20399C9.04765 6.40635 8.92081 6.54126 8.85405 6.60871C8.33334 7.25626 7.9862 7.80937 7.81263 8.26805C7.63906 8.71324 7.60568 8.97631 7.71249 9.05725C7.81931 9.1382 8.07299 9.05725 8.47353 8.81442C8.88743 8.5581 9.36141 8.11291 9.89547 7.47885C10.4295 6.8448 10.7767 6.30517 10.9369 5.85998C11.1105 5.4013 11.1438 5.13149 11.037 5.05055ZM6.51085 11.5058C6.45745 11.8835 6.41072 12.2006 6.37066 12.4569C6.33061 12.6997 6.29055 12.9223 6.2505 13.1247C6.21044 13.3135 6.16371 13.4889 6.11031 13.6508C6.07025 13.8127 6.02352 13.9881 5.97012 14.1769C5.82325 14.7031 5.54287 15.1348 5.12897 15.472C4.71507 15.7958 4.10757 15.9712 3.30648 15.9982C2.93264 16.0117 2.59885 15.9509 2.30511 15.816C2.02473 15.6811 1.79108 15.5058 1.60416 15.2899C1.41724 15.0606 1.27037 14.8042 1.16356 14.5209C1.0701 14.2241 1.01669 13.9274 1.00334 13.6306C0.989986 13.2393 1.01669 12.7672 1.08345 12.2141C1.16356 11.6474 1.26369 11.0539 1.38386 10.4333C1.51737 9.81273 1.66424 9.18541 1.82446 8.55136C1.98468 7.90381 2.13822 7.30348 2.28509 6.75036C2.44531 6.19725 2.5855 5.71159 2.70566 5.29338C2.83918 4.86168 2.93264 4.54465 2.98604 4.34229C3.06615 4.09946 3.17297 3.80267 3.30648 3.45191C3.44 3.10116 3.61357 2.76389 3.82719 2.44012C4.04082 2.11635 4.2945 1.83304 4.58823 1.59021C4.88196 1.34738 5.2291 1.21248 5.62965 1.1855C5.95009 1.15851 6.22379 1.172 6.45077 1.22597C6.67775 1.27993 6.87135 1.35413 7.03156 1.44856C7.19178 1.543 7.31862 1.65092 7.41208 1.77234C7.5189 1.89375 7.60568 2.01517 7.67244 2.13658C7.84601 1.98819 8.04628 1.84653 8.27326 1.71163C8.51359 1.56323 8.78062 1.44856 9.07435 1.36762C9.36809 1.27318 9.67517 1.21922 9.99561 1.20573C10.3294 1.17875 10.6699 1.21922 11.017 1.32715C11.5911 1.50252 12.0785 1.79257 12.479 2.19729C12.8795 2.60201 13.1866 3.08767 13.4003 3.65427C13.6272 4.20739 13.7474 4.82795 13.7607 5.51597C13.7741 6.1905 13.6806 6.89201 13.4804 7.62051C13.2534 8.45692 12.9396 9.20565 12.5391 9.86669C12.1519 10.5142 11.7046 11.0471 11.1972 11.4653C10.7032 11.8835 10.1625 12.1668 9.57503 12.3152C8.98757 12.4501 8.38675 12.4232 7.77257 12.2343C7.45214 12.1399 7.18511 12.0184 6.97148 11.87C6.75786 11.7216 6.60431 11.6002 6.51085 11.5058ZM11.2373 4.80772C11.3575 4.90215 11.4109 5.05729 11.3975 5.27314C11.3975 5.4755 11.3374 5.71159 11.2173 5.9814C11.1105 6.23772 10.9636 6.51428 10.7767 6.81107C10.5898 7.10786 10.3761 7.39791 10.1358 7.68121C9.89547 7.96452 9.64847 8.22758 9.39479 8.47041C9.14111 8.69975 8.89411 8.89537 8.65378 9.05725C8.41345 9.21914 8.19315 9.32707 7.99288 9.38103C7.7926 9.4215 7.63238 9.39452 7.51222 9.30008C7.39206 9.19216 7.33865 9.03702 7.352 8.83466C7.36535 8.61881 7.42543 8.38272 7.53225 8.1264C7.65241 7.85659 7.80595 7.57329 7.99288 7.2765C8.19315 6.9797 8.40677 6.68965 8.63375 6.40635C8.86073 6.12305 9.10105 5.85998 9.35473 5.61715C9.60841 5.37432 9.85542 5.17871 10.0957 5.03031C10.3361 4.86843 10.5564 4.76725 10.7566 4.72678C10.9569 4.67281 11.1171 4.69979 11.2373 4.80772ZM6.4708 11.4856C6.40404 11.4181 6.33061 11.3439 6.2505 11.263C6.18374 11.1685 6.11698 11.0674 6.05022 10.9594C5.95676 10.838 5.87665 10.7233 5.8099 10.6154C5.75649 10.494 5.70308 10.3793 5.64968 10.2714C5.59627 10.1635 5.62297 10.096 5.72979 10.069C5.82325 10.0286 5.89001 10.0488 5.93006 10.1298C5.98347 10.2377 6.03687 10.3456 6.09028 10.4535C6.15704 10.5615 6.23047 10.6694 6.31058 10.7773C6.37734 10.8717 6.4441 10.9594 6.51085 11.0404C6.57761 11.1078 6.64437 11.1753 6.71113 11.2427C6.77788 11.3102 6.77788 11.3911 6.71113 11.4856C6.61767 11.553 6.53756 11.553 6.4708 11.4856ZM6.4708 11.4856C6.40404 11.4181 6.33061 11.3439 6.2505 11.263C6.18374 11.1685 6.11698 11.0674 6.05022 10.9594C5.95676 10.838 5.87665 10.7233 5.8099 10.6154C5.75649 10.494 5.70308 10.3793 5.64968 10.2714C5.59627 10.1635 5.62297 10.096 5.72979 10.069C5.82325 10.0286 5.89001 10.0488 5.93006 10.1298C5.98347 10.2377 6.03687 10.3456 6.09028 10.4535C6.15704 10.5615 6.23047 10.6694 6.31058 10.7773C6.37734 10.8717 6.4441 10.9594 6.51085 11.0404C6.57761 11.1078 6.64437 11.1753 6.71113 11.2427C6.77788 11.3102 6.77788 11.3911 6.71113 11.4856C6.61767 11.553 6.53756 11.553 6.4708 11.4856Z" fill="black"/>
<path d="M25.4087 13.5901C25.5822 12.8886 25.6757 12.1129 25.6891 11.263C25.7158 10.3996 25.669 9.52942 25.5489 8.65254C25.4287 7.76216 25.2418 6.89876 24.9881 6.06234C24.7344 5.21244 24.4207 4.46371 24.0468 3.81616C23.6863 3.16861 23.2657 2.65597 22.7851 2.27823C22.3044 1.88701 21.777 1.69814 21.2029 1.71163C20.4686 1.72512 19.7743 1.97469 19.1201 2.46036C18.4659 2.94602 17.865 3.55309 17.3176 4.28159C16.7702 5.01008 16.2829 5.80602 15.8556 6.66942C15.4284 7.53282 15.0812 8.34225 14.8142 9.09773C14.4404 10.1365 14.2267 11.0539 14.1733 11.8498C14.1199 12.6323 14.1733 13.2933 14.3336 13.8329C14.4938 14.3591 14.7408 14.757 15.0746 15.0268C15.4084 15.2967 15.7755 15.4316 16.1761 15.4316C16.5366 15.4316 16.9037 15.3304 17.2776 15.128C17.6514 14.9122 18.0052 14.5951 18.339 14.1769C18.6728 13.7587 18.9665 13.2326 19.2202 12.5985C19.4873 11.9645 19.6809 11.2157 19.801 10.3524C19.8144 10.2444 19.8745 10.1972 19.9813 10.2107C20.1014 10.2107 20.1615 10.2647 20.1615 10.3726C20.1615 11.236 20.2483 11.9915 20.4219 12.639C20.6088 13.2731 20.8424 13.7992 21.1228 14.2174C21.4166 14.6356 21.7437 14.9526 22.1042 15.1685C22.4647 15.3708 22.8251 15.472 23.1856 15.472C23.6529 15.472 24.0869 15.3169 24.4874 15.0066C24.888 14.6828 25.195 14.2107 25.4087 13.5901ZM21.7837 4.44347C21.7036 4.37602 21.4633 4.45696 21.0627 4.6863C20.6755 4.90215 20.2283 5.32036 19.7209 5.94093C19.6675 6.00838 19.5607 6.15003 19.4005 6.36588C19.2536 6.58173 19.1001 6.81782 18.9398 7.07414C18.793 7.33046 18.6795 7.57329 18.5994 7.80263C18.5193 8.01848 18.5259 8.16687 18.6194 8.24782C18.6995 8.31527 18.9332 8.24107 19.3204 8.02522C19.7209 7.79588 20.1749 7.37093 20.6822 6.75036C21.1896 6.1298 21.5167 5.61041 21.6636 5.1922C21.8238 4.7605 21.8638 4.51093 21.7837 4.44347ZM19.8811 11.7284C19.6942 12.4164 19.4606 13.0167 19.1802 13.5294C18.8998 14.042 18.5927 14.467 18.2589 14.8042C17.9251 15.128 17.578 15.3708 17.2175 15.5327C16.8704 15.7081 16.5232 15.7958 16.1761 15.7958C15.7088 15.7958 15.2815 15.6474 14.8943 15.3506C14.5071 15.0538 14.2134 14.6221 14.0131 14.0555C13.8262 13.4754 13.7528 12.7604 13.7928 11.9105C13.8462 11.0606 14.0732 10.0825 14.4737 8.97631C14.6473 8.47716 14.8609 7.94428 15.1146 7.37768C15.3683 6.81107 15.6554 6.25121 15.9758 5.6981C16.2962 5.13149 16.6434 4.59187 17.0172 4.07923C17.4044 3.55309 17.8183 3.09441 18.2589 2.70319C18.6995 2.29847 19.1601 1.97469 19.6408 1.73186C20.1348 1.48903 20.6488 1.36087 21.1829 1.34738C21.8238 1.33389 22.4046 1.52951 22.9253 1.93422C23.446 2.32545 23.9066 2.85833 24.3072 3.53286C24.7077 4.20739 25.0415 4.97635 25.3085 5.83975C25.5756 6.70315 25.7692 7.60027 25.8893 8.53112C26.0228 9.44848 26.0762 10.3524 26.0495 11.2427C26.0362 12.1331 25.9427 12.9425 25.7692 13.671L25.7491 13.6913C25.5088 14.4063 25.155 14.9459 24.6877 15.3101C24.2204 15.6609 23.7197 15.8363 23.1856 15.8363C22.8251 15.8363 22.4647 15.7486 22.1042 15.5732C21.757 15.4113 21.4299 15.1617 21.1228 14.8245C20.8291 14.4872 20.5687 14.0623 20.3418 13.5496C20.1281 13.037 19.9746 12.4299 19.8811 11.7284ZM22.004 4.18041C22.1242 4.28833 22.1776 4.45022 22.1642 4.66607C22.1509 4.86843 22.0908 5.09777 21.984 5.35409C21.8772 5.61041 21.7303 5.88022 21.5434 6.16352C21.3565 6.44682 21.1562 6.71664 20.9426 6.97296C20.769 7.18881 20.5821 7.39791 20.3818 7.60027C20.1815 7.78914 19.9813 7.96452 19.781 8.1264C19.5807 8.2748 19.3871 8.39622 19.2002 8.49065C19.0266 8.57159 18.8664 8.61206 18.7195 8.61206C18.5727 8.61206 18.4659 8.57834 18.3991 8.51088C18.2789 8.40296 18.2255 8.24782 18.2389 8.04546C18.2522 7.8431 18.3123 7.61376 18.4191 7.35744C18.5259 7.10112 18.6728 6.83131 18.8597 6.548C19.0467 6.25121 19.2469 5.97465 19.4606 5.71833C19.821 5.28663 20.2082 4.9089 20.6221 4.58512C21.036 4.24786 21.3965 4.07923 21.7036 4.07923C21.8371 4.07923 21.9373 4.11295 22.004 4.18041Z" fill="black"/>
<path d="M59.232 6.79083C59.0718 6.80432 58.9049 6.81782 58.7313 6.83131C58.5711 6.83131 58.3908 6.83131 58.1905 6.83131C58.0437 6.83131 57.9369 6.82456 57.8701 6.81107C57.7633 7.08088 57.6231 7.4856 57.4495 8.02522C57.2893 8.56485 57.1291 9.14494 56.9689 9.76551C56.822 10.3861 56.6885 11.0066 56.5683 11.6272C56.4615 12.2343 56.4081 12.7402 56.4081 13.1449C56.4081 13.8464 56.6084 14.413 57.0089 14.8447C57.4095 15.2764 57.9102 15.4923 58.511 15.4923C59.2453 15.4923 59.8662 15.1617 60.3735 14.5007C60.8942 13.8262 61.2547 12.7604 61.455 11.3034C61.6152 10.1567 61.7421 9.26636 61.8355 8.6323C61.9423 7.98475 62.0291 7.50584 62.0959 7.19555C62.1626 6.87178 62.216 6.67617 62.2561 6.60871C62.3095 6.54126 62.3629 6.50753 62.4163 6.50753C62.5899 6.52102 62.8302 6.52777 63.1373 6.52777C63.4444 6.52777 63.6981 6.52777 63.8983 6.52777C64.9798 6.52777 65.821 6.3389 66.4218 5.96116C67.0226 5.58343 67.3364 4.98984 67.3631 4.18041C67.3764 3.70824 67.2563 3.32375 67.0026 3.02696C66.7489 2.73017 66.4218 2.48734 66.0212 2.29847C65.6207 2.1096 65.1667 1.97469 64.6594 1.89375C64.152 1.79932 63.6447 1.73861 63.1373 1.71163C62.6299 1.68465 62.1426 1.67116 61.6753 1.67116C61.2214 1.67116 60.8408 1.66441 60.5337 1.65092C60.2534 1.63743 59.8862 1.63068 59.4322 1.63068C58.9916 1.63068 58.5243 1.65092 58.0303 1.69139C57.5363 1.73186 57.0356 1.79932 56.5283 1.89375C56.0343 1.98819 55.587 2.12984 55.1864 2.3187C54.7993 2.50757 54.4788 2.75715 54.2251 3.06743C53.9715 3.36423 53.8446 3.73522 53.8446 4.18041C53.8446 4.9089 54.2385 5.48225 55.0262 5.90046C55.814 6.30517 56.8687 6.50753 58.1905 6.50753C58.3908 6.50753 58.5711 6.50753 58.7313 6.50753C58.8915 6.50753 59.0517 6.49404 59.2119 6.46706C59.2921 6.46706 59.3455 6.52102 59.3722 6.62895C59.3722 6.70989 59.3254 6.76385 59.232 6.79083ZM57.5497 6.81107C56.2012 6.73013 55.1931 6.44682 54.5255 5.96116C53.8713 5.4755 53.5442 4.88192 53.5442 4.18041C53.5442 3.66776 53.6777 3.24281 53.9448 2.90555C54.2118 2.56828 54.5523 2.29172 54.9661 2.07587C55.3934 1.86002 55.8674 1.69814 56.3881 1.59021C56.9222 1.48229 57.4495 1.40809 57.9702 1.36762C58.491 1.32715 58.9783 1.31366 59.4322 1.32715C59.8862 1.32715 60.2534 1.33389 60.5337 1.34738C60.8542 1.36087 61.2481 1.36762 61.7154 1.36762C62.196 1.36762 62.7034 1.38785 63.2374 1.42833C63.7715 1.45531 64.2989 1.51601 64.8196 1.61045C65.3537 1.70488 65.8276 1.86002 66.2415 2.07587C66.6688 2.27823 67.0093 2.54805 67.2629 2.88531C67.53 3.22257 67.6568 3.65427 67.6434 4.18041C67.6301 5.01682 67.3163 5.67112 66.7022 6.14329C66.088 6.60197 65.1534 6.83131 63.8983 6.83131H62.4764C62.4363 6.96621 62.3763 7.23602 62.2962 7.64074C62.2294 8.03197 62.1626 8.47041 62.0959 8.95607C62.0291 9.42824 61.9624 9.88692 61.8956 10.3321C61.8288 10.7773 61.7821 11.1146 61.7554 11.3439C61.5418 12.8144 61.1613 13.9274 60.6139 14.6828C60.0664 15.4383 59.3655 15.816 58.511 15.816C57.8167 15.816 57.2426 15.5665 56.7886 15.0673C56.3347 14.5682 56.1077 13.9274 56.1077 13.1449C56.1077 12.7402 56.1611 12.241 56.2679 11.6474C56.3747 11.0404 56.5016 10.4333 56.6484 9.82622C56.8087 9.20565 56.9689 8.62556 57.1291 8.08593C57.2893 7.53282 57.4295 7.10786 57.5497 6.81107Z" fill="black"/>
<path d="M79.1308 10.8582C78.7837 11.6002 78.3631 12.2748 77.8691 12.8818C77.3885 13.4889 76.8611 14.0083 76.287 14.44C75.7262 14.8717 75.132 15.2022 74.5045 15.4316C73.8904 15.6609 73.2695 15.7756 72.642 15.7756C71.9744 15.7756 71.3402 15.6339 70.7394 15.3506C70.0184 14.9999 69.4243 14.494 68.957 13.8329C68.4897 13.1719 68.1625 12.4164 67.9756 11.5665C67.802 10.7166 67.7753 9.80598 67.8955 8.83466C68.0157 7.86334 68.2961 6.9055 68.7367 5.96116C69.0838 5.20569 69.4977 4.53116 69.9783 3.93758C70.459 3.3305 70.9797 2.81786 71.5405 2.39965C72.1146 1.96795 72.7154 1.63743 73.3429 1.40809C73.9705 1.17875 74.5913 1.06408 75.2055 1.06408C75.8731 1.06408 76.5139 1.20573 77.1281 1.48903C77.8491 1.8263 78.4432 2.32545 78.9105 2.98649C79.3778 3.64753 79.6983 4.403 79.8718 5.25291C80.0454 6.10281 80.0721 7.01343 79.952 7.98475C79.8451 8.95607 79.5714 9.91391 79.1308 10.8582ZM78.8104 10.7166C79.2377 9.78575 79.5047 8.86164 79.6115 7.94428C79.7317 7.01343 79.705 6.14329 79.5314 5.33385C79.3578 4.52442 79.0507 3.80941 78.6101 3.18885C78.1829 2.56828 77.6355 2.10286 76.9679 1.79257C76.7009 1.65767 76.4205 1.56323 76.1267 1.50927C75.833 1.44182 75.5326 1.40809 75.2255 1.40809C74.6514 1.40809 74.0706 1.51601 73.4831 1.73186C72.8957 1.94771 72.3282 2.258 71.7808 2.66272C71.2334 3.06743 70.726 3.55984 70.2587 4.13993C69.7914 4.72003 69.3909 5.37432 69.0571 6.10281C68.6298 7.03367 68.3561 7.96452 68.236 8.89537C68.1292 9.81273 68.1625 10.6761 68.3361 11.4856C68.5097 12.295 68.8101 13.01 69.2373 13.6306C69.6779 14.2511 70.2254 14.7166 70.8796 15.0268C71.427 15.2832 72.0211 15.4113 72.662 15.4113C73.2361 15.4113 73.8169 15.3034 74.4044 15.0875C74.9919 14.8717 75.5526 14.5614 76.0867 14.1567C76.6341 13.752 77.1415 13.2596 77.6088 12.6795C78.0761 12.0994 78.4766 11.4451 78.8104 10.7166ZM75.5259 6.14329C75.4992 6.11631 75.4525 6.10281 75.3857 6.10281C75.2522 6.10281 75.0853 6.17701 74.885 6.32541C74.6848 6.46032 74.4845 6.61546 74.2842 6.79083C74.084 6.96621 73.9037 7.14159 73.7435 7.31697C73.5833 7.47885 73.4831 7.59352 73.4431 7.66098C73.3897 7.72843 73.2762 7.87683 73.1026 8.10617C72.9424 8.32202 72.7822 8.56485 72.622 8.83466C72.4751 9.09098 72.3616 9.33381 72.2815 9.56315C72.2014 9.79249 72.2081 9.94763 72.3015 10.0286C72.395 10.1095 72.642 10.0353 73.0425 9.80598C73.4431 9.56315 73.9037 9.12471 74.4244 8.49065C74.9451 7.88357 75.2789 7.36418 75.4258 6.93249C75.586 6.4873 75.6194 6.22423 75.5259 6.14329ZM75.7663 5.90046C75.8864 5.99489 75.9398 6.15003 75.9265 6.36588C75.9131 6.56824 75.853 6.80433 75.7462 7.07414C75.6394 7.33046 75.4925 7.60702 75.3056 7.90381C75.1187 8.18711 74.9051 8.46367 74.6647 8.73348C74.4778 8.94933 74.2776 9.16518 74.0639 9.38103C73.8637 9.58339 73.6634 9.75876 73.4631 9.90716C73.2628 10.0556 73.0692 10.177 72.8823 10.2714C72.7087 10.3658 72.5485 10.4131 72.4017 10.4131C72.2948 10.4131 72.1947 10.3793 72.1012 10.3119C71.9677 10.204 71.9077 10.0488 71.921 9.84645C71.9344 9.6306 71.9944 9.39452 72.1012 9.1382C72.2081 8.86839 72.3549 8.59183 72.5418 8.30853C72.7288 8.01173 72.9357 7.72843 73.1627 7.45862C73.5499 6.99994 73.9504 6.60871 74.3643 6.28494C74.7782 5.94767 75.132 5.77904 75.4258 5.77904C75.5593 5.77904 75.6728 5.81951 75.7663 5.90046Z" fill="black"/>
<path d="M94.6473 9.17867C94.4471 9.08423 94.2802 8.95607 94.1466 8.79419C94.0131 8.6323 93.9597 8.45692 93.9864 8.26805C94.0131 8.0522 94.1199 7.87683 94.3069 7.74192C94.4938 7.60702 94.7208 7.53956 94.9878 7.53956C94.6941 7.06739 94.4871 6.46706 94.3669 5.73857C94.3536 5.68461 94.3603 5.64413 94.387 5.61715C94.427 5.57668 94.4671 5.5497 94.5071 5.53621C94.6273 5.50923 94.7007 5.55645 94.7274 5.67786C94.7942 6.08258 94.901 6.47381 95.0479 6.85154C95.1947 7.21579 95.3883 7.53956 95.6287 7.82287C95.8823 8.10617 96.1761 8.33551 96.5099 8.51088C96.857 8.67277 97.2442 8.75372 97.6715 8.75372C98.2055 8.75372 98.6995 8.60532 99.1535 8.30853C99.6074 8.01173 99.9479 7.60702 100.175 7.09437C100.322 6.7706 100.422 6.42659 100.475 6.06234C100.529 5.6981 100.529 5.3406 100.475 4.98984C100.435 4.6256 100.342 4.28159 100.195 3.95781C100.048 3.62055 99.8478 3.31701 99.5941 3.0472C99.1668 2.60201 98.5794 2.24451 97.8317 1.97469C97.0973 1.69139 96.2896 1.54974 95.4084 1.54974C94.7274 1.54974 94.0398 1.65092 93.3456 1.85328C92.6513 2.05564 91.997 2.38616 91.3829 2.84484C90.7687 3.29003 90.2213 3.88361 89.7406 4.6256C89.2733 5.35409 88.9262 6.25121 88.6992 7.31697C88.4055 8.67952 88.3721 9.87343 88.5991 10.8987C88.8394 11.9105 89.2533 12.7537 89.8408 13.4282C90.4416 14.1027 91.1626 14.6086 92.0037 14.9459C92.8582 15.2697 93.7461 15.4316 94.6674 15.4316C95.415 15.4316 96.136 15.3304 96.8303 15.128C97.4578 14.9526 97.9719 14.6828 98.3724 14.3186C98.7863 13.9408 99.0734 13.5159 99.2336 13.0437C99.3938 12.5716 99.4205 12.0724 99.3137 11.5463C99.2202 11.0066 98.9799 10.4873 98.5927 9.9881C98.3524 9.67782 98.0253 9.44174 97.6114 9.27985C97.2108 9.10447 96.817 9.01678 96.4298 9.01678C95.8423 9.01678 95.2949 9.17867 94.7875 9.50244C94.2935 9.81273 93.893 10.2444 93.5859 10.7975C93.5325 10.892 93.4524 10.919 93.3456 10.8785C93.2387 10.7975 93.2187 10.7166 93.2855 10.6357C93.6059 10.0016 94.0599 9.51593 94.6473 9.17867ZM95.2682 7.92404C95.1881 7.91055 95.0946 7.90381 94.9878 7.90381C94.8943 7.90381 94.8009 7.9173 94.7074 7.94428C94.6139 7.97126 94.5338 8.01173 94.4671 8.0657C94.4003 8.11966 94.3603 8.19386 94.3469 8.28829C94.3336 8.39622 94.3936 8.52438 94.5272 8.67277C94.6607 8.82117 94.8543 8.90886 95.108 8.93584C95.3883 8.80093 95.7155 8.71324 96.0893 8.67277C95.7956 8.49739 95.5218 8.24782 95.2682 7.92404ZM98.092 9.09773C98.2389 9.17867 98.3791 9.2731 98.5126 9.38103C98.6461 9.48895 98.7663 9.61711 98.8731 9.76551C99.3004 10.3321 99.5674 10.9122 99.6742 11.5058C99.781 12.0859 99.741 12.639 99.554 13.1651C99.3805 13.6913 99.0667 14.1634 98.6127 14.5816C98.1721 14.9864 97.6114 15.2832 96.9304 15.472C96.1961 15.6744 95.4417 15.7756 94.6674 15.7756C93.6927 15.7756 92.7581 15.6069 91.8635 15.2697C90.969 14.9189 90.2079 14.3928 89.5804 13.6913C88.9529 12.9763 88.5123 12.0859 88.2586 11.0201C88.0049 9.94089 88.0383 8.67952 88.3587 7.23602C88.5991 6.11631 88.9662 5.17196 89.4602 4.403C89.9543 3.63404 90.5217 3.01347 91.1626 2.5413C91.8034 2.06913 92.491 1.72512 93.2254 1.50927C93.9597 1.29342 94.6874 1.1855 95.4084 1.1855C96.3296 1.1855 97.1841 1.33389 97.9719 1.63068C98.7596 1.92748 99.3871 2.3187 99.8544 2.80437C100.135 3.10116 100.355 3.43168 100.515 3.79592C100.676 4.16017 100.782 4.53791 100.836 4.92913C100.889 5.32036 100.889 5.71833 100.836 6.12305C100.782 6.51428 100.676 6.88527 100.515 7.23602C100.288 7.74867 99.9546 8.16688 99.514 8.49065C99.0867 8.81442 98.6127 9.01678 98.092 9.09773Z" fill="black"/>
<path d="M108.898 7.11461C108.617 6.96621 108.35 6.87178 108.097 6.83131C107.843 6.79083 107.649 6.7706 107.516 6.7706C107.449 6.7706 107.382 6.77734 107.316 6.79083C107.249 6.79083 107.202 6.79083 107.176 6.79083C107.269 6.30517 107.342 5.88697 107.396 5.53621C107.463 5.17196 107.503 4.84819 107.516 4.56489C107.543 4.28159 107.549 4.02526 107.536 3.79592C107.523 3.55309 107.489 3.31026 107.436 3.06743C107.409 2.94602 107.362 2.81111 107.296 2.66272C107.229 2.51432 107.129 2.37267 106.995 2.23776C106.862 2.10286 106.702 1.98819 106.515 1.89375C106.328 1.78583 106.101 1.71163 105.834 1.67116C105.286 1.6037 104.826 1.6779 104.452 1.89375C104.091 2.09611 103.758 2.40639 103.45 2.8246C103.317 3.01347 103.157 3.3305 102.97 3.77569C102.796 4.22088 102.616 4.74027 102.429 5.33385C102.242 5.92744 102.062 6.58173 101.888 7.29673C101.728 7.99824 101.588 8.7065 101.468 9.4215C101.348 10.1365 101.267 10.8313 101.227 11.5058C101.201 12.1803 101.221 12.7874 101.287 13.327C101.368 13.8666 101.508 14.3186 101.708 14.6828C101.922 15.0336 102.222 15.2494 102.609 15.3304C103.01 15.4113 103.364 15.4316 103.671 15.3911C103.978 15.3371 104.245 15.2494 104.472 15.128C104.712 14.9931 104.912 14.838 105.073 14.6626C105.246 14.4737 105.38 14.2849 105.473 14.096C105.62 13.8127 105.734 13.5564 105.814 13.327C105.907 13.0842 105.987 12.8279 106.054 12.5581C106.134 12.2882 106.201 11.9915 106.254 11.6677C106.321 11.3304 106.394 10.9324 106.475 10.4738C106.688 10.5547 106.882 10.6087 107.055 10.6357C107.242 10.6626 107.396 10.6761 107.516 10.6761C107.583 10.6761 107.67 10.6694 107.776 10.6559C107.897 10.6424 108.023 10.6222 108.157 10.5952C108.063 11.0539 107.97 11.5463 107.876 12.0724C107.796 12.585 107.783 13.0774 107.836 13.5496C107.89 14.0083 108.037 14.4198 108.277 14.784C108.517 15.1348 108.925 15.3708 109.499 15.4923C109.819 15.5597 110.12 15.553 110.4 15.472C110.694 15.3911 110.954 15.2764 111.181 15.128C111.408 14.9661 111.602 14.7908 111.762 14.6019C111.922 14.3995 112.042 14.2309 112.122 14.096C112.309 13.7183 112.449 13.3675 112.543 13.0437C112.65 12.7199 112.743 12.3624 112.823 11.9712C112.917 11.5665 113.01 11.0943 113.104 10.5547C113.197 10.0016 113.324 9.30683 113.484 8.47041C113.644 7.66098 113.778 6.98645 113.885 6.44682C113.991 5.89371 114.072 5.42154 114.125 5.03031C114.178 4.62559 114.198 4.27484 114.185 3.97805C114.185 3.66776 114.152 3.36423 114.085 3.06743C114.058 2.94602 114.012 2.81111 113.945 2.66272C113.878 2.51432 113.778 2.37267 113.644 2.23776C113.511 2.10286 113.351 1.98819 113.164 1.89375C112.977 1.78583 112.75 1.71163 112.483 1.67116C112.202 1.63068 111.949 1.63743 111.722 1.69139C111.508 1.73186 111.314 1.79257 111.141 1.87352C110.967 1.95446 110.827 2.0354 110.72 2.11635C110.614 2.19729 110.54 2.258 110.5 2.29847C110.353 2.44687 110.213 2.62899 110.079 2.84484C109.946 3.06069 109.826 3.29003 109.719 3.53286C109.626 3.7622 109.539 3.99828 109.459 4.24111C109.392 4.48394 109.338 4.70654 109.298 4.9089C109.232 5.30012 109.165 5.67786 109.098 6.04211C109.031 6.40635 108.965 6.76385 108.898 7.11461ZM107.736 10.9797H107.516C107.316 10.9797 107.142 10.9729 106.995 10.9594C106.862 10.9324 106.775 10.9122 106.735 10.8987C106.668 11.2765 106.601 11.6137 106.535 11.9105C106.481 12.1938 106.421 12.4636 106.354 12.7199C106.288 12.9763 106.208 13.2258 106.114 13.4687C106.034 13.7115 105.92 13.9678 105.774 14.2376C105.653 14.4535 105.5 14.6693 105.313 14.8852C105.126 15.0875 104.899 15.2629 104.632 15.4113C104.365 15.5462 104.058 15.6407 103.711 15.6946C103.364 15.7486 102.976 15.7351 102.549 15.6542C102.109 15.5597 101.761 15.3236 101.508 14.9459C101.254 14.5682 101.081 14.096 100.987 13.5294C100.894 12.9628 100.86 12.3287 100.887 11.6272C100.927 10.9122 101 10.1837 101.107 9.44174C101.227 8.69975 101.374 7.96452 101.548 7.23602C101.735 6.50753 101.922 5.833 102.109 5.21244C102.309 4.59187 102.502 4.05899 102.689 3.6138C102.876 3.15512 103.037 2.83135 103.17 2.64248C103.49 2.21078 103.864 1.86677 104.292 1.61045C104.719 1.35413 105.253 1.26644 105.894 1.34738C106.201 1.38785 106.468 1.4688 106.695 1.59021C106.922 1.71163 107.109 1.85328 107.256 2.01517C107.402 2.17705 107.516 2.34569 107.596 2.52106C107.69 2.69644 107.75 2.85833 107.776 3.00672C107.83 3.24956 107.863 3.49239 107.876 3.73522C107.89 3.96456 107.883 4.21413 107.856 4.48394C107.843 4.74027 107.81 5.03031 107.756 5.35409C107.716 5.67786 107.656 6.04885 107.576 6.46706C107.643 6.46706 107.776 6.47381 107.977 6.4873C108.177 6.50079 108.404 6.55475 108.658 6.64918C108.711 6.39286 108.758 6.11631 108.798 5.81951C108.851 5.52272 108.911 5.19895 108.978 4.84819C108.991 4.74027 109.025 4.57838 109.078 4.36253C109.145 4.13319 109.225 3.89036 109.318 3.63404C109.425 3.36423 109.552 3.09441 109.699 2.8246C109.859 2.5413 110.046 2.29172 110.26 2.07587C110.3 2.0354 110.38 1.96795 110.5 1.87352C110.634 1.76559 110.794 1.67116 110.981 1.59021C111.181 1.49578 111.408 1.42158 111.662 1.36762C111.929 1.31366 112.222 1.30691 112.543 1.34738C112.85 1.38785 113.11 1.4688 113.324 1.59021C113.551 1.71163 113.738 1.85328 113.885 2.01517C114.045 2.17705 114.165 2.34569 114.245 2.52106C114.339 2.69644 114.399 2.85833 114.425 3.00672C114.492 3.3305 114.526 3.65427 114.526 3.97805C114.526 4.28833 114.499 4.64583 114.445 5.05055C114.392 5.45527 114.312 5.93418 114.205 6.4873C114.098 7.04041 113.965 7.72169 113.805 8.53112C113.644 9.36754 113.517 10.0623 113.424 10.6154C113.331 11.1685 113.237 11.6474 113.144 12.0522C113.064 12.4569 112.97 12.8279 112.863 13.1651C112.756 13.4889 112.61 13.8464 112.423 14.2376C112.343 14.413 112.209 14.6086 112.022 14.8245C111.835 15.0268 111.608 15.2157 111.341 15.3911C111.088 15.5665 110.8 15.6946 110.48 15.7756C110.16 15.87 109.812 15.8767 109.439 15.7958C108.811 15.6609 108.357 15.4113 108.077 15.0471C107.796 14.6693 107.616 14.2444 107.536 13.7722C107.456 13.3 107.449 12.8144 107.516 12.3152C107.583 11.8161 107.656 11.3709 107.736 10.9797ZM107.816 6.79083C107.629 6.79083 107.463 6.79083 107.316 6.79083C107.169 6.79083 106.982 6.81107 106.755 6.85154C106.488 6.919 106.274 7.00668 106.114 7.11461C106.087 7.14159 106.047 7.14834 105.994 7.13485C105.954 7.12135 105.92 7.09437 105.894 7.0539C105.854 6.97296 105.874 6.89876 105.954 6.83131C106.154 6.70989 106.394 6.61546 106.675 6.548C106.929 6.49404 107.135 6.46706 107.296 6.46706C107.456 6.46706 107.629 6.46706 107.816 6.46706C107.923 6.49404 107.977 6.548 107.977 6.62895C107.977 6.73687 107.923 6.79083 107.816 6.79083ZM107.015 10.6154C107.122 10.6694 107.155 10.7368 107.115 10.8178C107.102 10.8582 107.075 10.892 107.035 10.919C106.995 10.9459 106.955 10.9459 106.915 10.919C106.742 10.8785 106.575 10.838 106.414 10.7975C106.268 10.7436 106.081 10.6559 105.854 10.5345C105.613 10.3861 105.413 10.2242 105.253 10.0488C105.173 9.94089 105.179 9.86669 105.273 9.82622C105.3 9.79924 105.333 9.78575 105.373 9.78575C105.426 9.78575 105.467 9.80598 105.493 9.84645C105.56 9.91391 105.633 9.9881 105.714 10.069C105.807 10.1365 105.907 10.1972 106.014 10.2512C106.214 10.3591 106.388 10.44 106.535 10.494C106.682 10.5345 106.842 10.5749 107.015 10.6154ZM108.638 6.64918C108.664 6.55475 108.731 6.50753 108.838 6.50753C108.878 6.52102 108.911 6.548 108.938 6.58848C108.978 6.61546 108.991 6.64918 108.978 6.68965L108.838 7.8431C108.811 7.93753 108.751 7.98475 108.658 7.98475C108.551 7.95777 108.497 7.89706 108.497 7.80263L108.638 6.64918ZM108.277 9.9881C108.25 10.177 108.217 10.3726 108.177 10.5749C108.137 10.7638 108.103 10.9527 108.077 11.1416C108.05 11.2495 107.983 11.2899 107.876 11.263C107.756 11.236 107.71 11.1753 107.736 11.0808C107.776 10.892 107.81 10.7031 107.836 10.5142C107.876 10.3119 107.917 10.1163 107.957 9.9274C107.983 9.81947 108.05 9.779 108.157 9.80598C108.264 9.83296 108.304 9.89367 108.277 9.9881Z" fill="black"/>
<path d="M119.536 6.00164C119.429 5.94767 119.402 5.87347 119.456 5.77904C119.509 5.68461 119.576 5.65763 119.656 5.6981C120.016 5.833 120.417 5.97465 120.858 6.12305C121.058 6.17701 121.251 6.23098 121.438 6.28494C121.625 6.32541 121.806 6.35914 121.979 6.38612C122.219 6.4131 122.473 6.43333 122.74 6.44682C123.007 6.44682 123.294 6.43333 123.601 6.40635C123.922 6.36588 124.262 6.30517 124.623 6.22423C124.983 6.1298 125.317 6.00838 125.624 5.85998C125.945 5.6981 126.218 5.50923 126.445 5.29338C126.672 5.07753 126.806 4.82121 126.846 4.52442C126.939 3.95781 126.812 3.4789 126.465 3.08767C126.131 2.69644 125.544 2.33894 124.703 2.01517C124.316 1.86677 123.808 1.76559 123.181 1.71163C122.567 1.64417 121.919 1.63743 121.238 1.69139C120.571 1.73186 119.93 1.83979 119.316 2.01517C118.701 2.17705 118.201 2.41314 117.813 2.72342C117.56 2.92578 117.313 3.29677 117.072 3.8364C116.832 4.37602 116.605 4.99659 116.392 5.6981C116.191 6.38612 116.004 7.12135 115.831 7.90381C115.657 8.68626 115.51 9.42824 115.39 10.1298C115.27 10.8178 115.177 11.4249 115.11 11.951C115.043 12.4771 115.01 12.8414 115.01 13.0437C114.996 13.7183 115.157 14.2241 115.49 14.5614C115.837 14.8852 116.298 15.1348 116.872 15.3101C117.072 15.3641 117.453 15.4181 118.014 15.472C118.575 15.5125 119.202 15.526 119.896 15.5125C120.591 15.5125 121.285 15.4585 121.979 15.3506C122.687 15.2427 123.288 15.0673 123.782 14.8245C124.249 14.5817 124.609 14.3388 124.863 14.096C125.117 13.8397 125.29 13.5901 125.384 13.3473C125.491 13.1044 125.531 12.8683 125.504 12.639C125.491 12.4097 125.451 12.1938 125.384 11.9915C125.277 11.7082 125.09 11.4788 124.823 11.3034C124.556 11.1146 124.249 10.9729 123.902 10.8785C123.568 10.784 123.214 10.7233 122.84 10.6964C122.466 10.6694 122.119 10.6626 121.799 10.6761C121.639 10.6761 121.492 10.6896 121.358 10.7166C121.225 10.7301 121.145 10.7368 121.118 10.7368C121.051 10.7503 120.891 10.7908 120.637 10.8582C120.397 10.9257 120.123 11.0336 119.816 11.182C119.709 11.2495 119.583 11.3237 119.436 11.4046C119.289 11.4856 119.142 11.58 118.995 11.6879C118.928 11.7554 118.855 11.7486 118.775 11.6677C118.721 11.5867 118.735 11.5125 118.815 11.4451C118.975 11.3102 119.129 11.2023 119.275 11.1213C119.422 11.0404 119.549 10.9662 119.656 10.8987C120.003 10.7233 120.31 10.6019 120.577 10.5345C120.844 10.467 121.004 10.4333 121.058 10.4333C121.058 10.4198 121.131 10.4063 121.278 10.3928C121.425 10.3793 121.592 10.3658 121.779 10.3524C122.113 10.3389 122.48 10.3456 122.88 10.3726C123.281 10.3996 123.668 10.467 124.042 10.5749C124.416 10.6829 124.75 10.8448 125.043 11.0606C125.35 11.263 125.564 11.5328 125.684 11.87C125.844 12.3152 125.884 12.7199 125.804 13.0842C125.724 13.435 125.577 13.7452 125.364 14.015C125.163 14.2714 124.923 14.494 124.643 14.6828C124.376 14.8582 124.135 14.9999 123.922 15.1078C123.401 15.3776 122.774 15.5665 122.039 15.6744C121.318 15.7823 120.604 15.8363 119.896 15.8363C119.189 15.8498 118.548 15.8295 117.974 15.7756C117.4 15.7351 117.006 15.6811 116.792 15.6137C116.165 15.4248 115.651 15.1415 115.25 14.7638C114.863 14.386 114.676 13.8127 114.689 13.0437C114.689 12.8683 114.723 12.5176 114.789 11.9915C114.856 11.4518 114.95 10.8313 115.07 10.1298C115.203 9.42824 115.35 8.67952 115.51 7.88357C115.684 7.07414 115.877 6.30517 116.091 5.57668C116.318 4.84819 116.558 4.20739 116.812 3.65427C117.066 3.08767 117.333 2.6897 117.613 2.46036C118.027 2.13658 118.554 1.88701 119.195 1.71163C119.85 1.52276 120.524 1.40809 121.218 1.36762C121.912 1.31366 122.58 1.3204 123.221 1.38785C123.875 1.44182 124.402 1.54974 124.803 1.71163C125.19 1.86002 125.537 2.02866 125.844 2.21753C126.165 2.3929 126.432 2.59526 126.646 2.8246C126.859 3.05394 127.013 3.31701 127.106 3.6138C127.2 3.8971 127.22 4.22088 127.166 4.58512C127.113 4.93588 126.959 5.23942 126.706 5.49574C126.452 5.75206 126.152 5.96791 125.804 6.14329C125.471 6.30517 125.11 6.43333 124.723 6.52777C124.336 6.60871 123.975 6.66942 123.641 6.70989C123.348 6.75036 123.067 6.7706 122.8 6.7706C122.547 6.75711 122.3 6.73687 122.059 6.70989C122.046 6.72338 122.033 6.72338 122.019 6.70989H121.919L121.899 6.68965H121.879C121.705 6.66267 121.525 6.62895 121.338 6.58848C121.151 6.548 120.964 6.49404 120.778 6.42659C120.284 6.27819 119.87 6.13654 119.536 6.00164ZM124.643 11.0606C124.549 11.0876 124.483 11.0539 124.443 10.9594C124.402 10.8785 124.429 10.811 124.523 10.7571C124.549 10.7436 124.636 10.6964 124.783 10.6154C124.943 10.5345 125.117 10.4131 125.304 10.2512C125.491 10.0893 125.664 9.89367 125.824 9.66433C125.998 9.43499 126.105 9.16518 126.145 8.8549C126.212 8.38272 126.118 7.93754 125.864 7.51933C125.611 7.08763 125.237 6.75036 124.743 6.50753C124.649 6.45357 124.623 6.38612 124.663 6.30517C124.716 6.19725 124.79 6.17027 124.883 6.22423C125.431 6.49404 125.844 6.87178 126.125 7.35744C126.419 7.8431 126.532 8.35574 126.465 8.89537C126.412 9.24612 126.292 9.5564 126.105 9.82622C125.918 10.096 125.718 10.3186 125.504 10.494C125.304 10.6694 125.117 10.8043 124.943 10.8987C124.77 10.9932 124.669 11.0471 124.643 11.0606ZM118.915 7.13485C119.075 6.94598 119.316 6.74362 119.636 6.52777C119.823 6.40635 119.996 6.31192 120.157 6.24447C120.317 6.17701 120.47 6.12305 120.617 6.08258C120.724 6.0556 120.791 6.08932 120.818 6.18376C120.844 6.29168 120.811 6.35914 120.717 6.38612C120.584 6.42659 120.444 6.48055 120.297 6.548C120.15 6.60197 119.983 6.68966 119.796 6.81107C119.649 6.9055 119.522 6.99994 119.416 7.09437C119.309 7.18881 119.215 7.2765 119.135 7.35744C119.055 7.43838 118.982 7.44513 118.915 7.37768C118.848 7.31022 118.848 7.22928 118.915 7.13485ZM118.615 9.86669C118.548 9.78575 118.548 9.71155 118.615 9.64409C118.695 9.56315 118.768 9.56315 118.835 9.64409C118.915 9.72504 119.008 9.81273 119.115 9.90716C119.222 10.0016 119.349 10.1028 119.496 10.2107C119.683 10.3186 119.843 10.4063 119.976 10.4738C120.123 10.5412 120.257 10.5952 120.377 10.6357C120.484 10.6626 120.524 10.7233 120.497 10.8178C120.47 10.9257 120.404 10.9662 120.297 10.9392C120.15 10.8987 119.996 10.8448 119.836 10.7773C119.689 10.7099 119.522 10.6087 119.336 10.4738C119.175 10.3658 119.035 10.2647 118.915 10.1702C118.795 10.0623 118.695 9.96112 118.615 9.86669Z" fill="black"/>
<path d="M132.031 5.83975C131.925 5.78579 131.898 5.71159 131.951 5.61715C132.005 5.52272 132.078 5.49574 132.172 5.53621C132.359 5.60366 132.552 5.67786 132.752 5.7588C132.966 5.83975 133.186 5.91395 133.413 5.9814C133.627 6.03536 133.827 6.08932 134.014 6.14329C134.201 6.18376 134.388 6.21748 134.575 6.24447C134.829 6.28494 135.096 6.30517 135.376 6.30517C135.656 6.30517 135.95 6.29168 136.257 6.2647C136.604 6.22423 136.965 6.15678 137.339 6.06234C137.726 5.96791 138.08 5.84649 138.4 5.6981C138.721 5.53621 138.994 5.3406 139.221 5.11126C139.462 4.88192 139.602 4.61885 139.642 4.32206C139.749 3.71498 139.608 3.20908 139.221 2.80437C138.847 2.39965 138.24 2.02866 137.399 1.69139C137.078 1.55649 136.664 1.45531 136.157 1.38785C135.65 1.3204 135.109 1.29342 134.535 1.30691C133.974 1.3204 133.407 1.37436 132.833 1.4688C132.258 1.54974 131.738 1.68465 131.27 1.87352C131.204 1.9005 131.137 1.92748 131.07 1.95446C131.017 1.98144 130.957 2.00842 130.89 2.0354C130.796 2.08936 130.723 2.06238 130.67 1.95446C130.616 1.86002 130.643 1.78583 130.75 1.73186C130.816 1.70488 130.883 1.6779 130.95 1.65092C131.017 1.62394 131.083 1.59696 131.15 1.56998C131.644 1.38111 132.185 1.23946 132.772 1.14502C133.373 1.05059 133.967 1.00337 134.555 1.00337C135.142 0.989882 135.696 1.01686 136.217 1.08432C136.738 1.15177 137.172 1.25295 137.519 1.38785C138.373 1.72512 139.021 2.12309 139.462 2.58177C139.916 3.04045 140.082 3.63404 139.962 4.36253C139.909 4.74027 139.749 5.06404 139.482 5.33385C139.215 5.59017 138.901 5.80602 138.54 5.9814C138.18 6.15678 137.799 6.29168 137.399 6.38612C136.998 6.48055 136.631 6.548 136.297 6.58848C135.71 6.65593 135.162 6.65593 134.655 6.58848H134.615C134.588 6.58848 134.568 6.58848 134.555 6.58848C134.555 6.57499 134.542 6.56824 134.515 6.56824H134.475C134.288 6.52777 134.101 6.4873 133.914 6.44682C133.727 6.40635 133.534 6.35239 133.333 6.28494C133.093 6.21748 132.859 6.14329 132.632 6.06234C132.419 5.9814 132.218 5.9072 132.031 5.83975ZM136.958 6.16352C136.985 6.17701 137.078 6.23772 137.239 6.34564C137.412 6.44008 137.599 6.58848 137.799 6.79083C138.013 6.9797 138.213 7.20904 138.4 7.47885C138.587 7.74867 138.701 8.05895 138.741 8.40971C138.794 8.80093 138.767 9.14494 138.661 9.44174C138.554 9.72504 138.407 9.97461 138.22 10.1905C138.046 10.3928 137.859 10.5547 137.659 10.6761C137.472 10.7975 137.319 10.892 137.199 10.9594C136.331 11.3911 135.329 11.5193 134.194 11.3439C133.073 11.155 131.958 10.6357 130.85 9.78575C130.77 9.7048 130.763 9.6306 130.83 9.56315C130.883 9.4957 130.957 9.48221 131.05 9.52268C132.118 10.3456 133.186 10.8448 134.254 11.0201C135.323 11.182 136.257 11.0674 137.058 10.6761C137.178 10.6087 137.325 10.521 137.499 10.4131C137.672 10.3051 137.833 10.1635 137.98 9.9881C138.14 9.79924 138.267 9.58339 138.36 9.34056C138.454 9.08424 138.48 8.79419 138.44 8.47041C138.4 8.16013 138.293 7.88357 138.12 7.64074C137.96 7.39791 137.786 7.18881 137.599 7.01343C137.425 6.83805 137.259 6.70315 137.098 6.60871C136.952 6.51428 136.865 6.46706 136.838 6.46706C136.745 6.4131 136.718 6.34565 136.758 6.2647C136.785 6.17027 136.851 6.13654 136.958 6.16352ZM131.23 7.0539C131.31 6.95947 131.411 6.86503 131.531 6.7706C131.651 6.66267 131.791 6.55475 131.951 6.44682C132.152 6.31192 132.325 6.21074 132.472 6.14329C132.632 6.07583 132.786 6.02187 132.933 5.9814C133.04 5.95442 133.106 5.99489 133.133 6.10281C133.16 6.19725 133.126 6.25796 133.033 6.28494C132.899 6.32541 132.759 6.37937 132.612 6.44682C132.465 6.50079 132.298 6.58848 132.112 6.70989C131.965 6.80433 131.838 6.89876 131.731 6.99319C131.624 7.08763 131.531 7.17532 131.451 7.25626C131.371 7.3372 131.297 7.34395 131.23 7.2765C131.164 7.19555 131.164 7.12135 131.23 7.0539ZM133.313 11.0606C133.26 11.3709 133.186 11.6947 133.093 12.0319C133.013 12.3557 132.926 12.6592 132.833 12.9425C132.739 13.2258 132.646 13.4822 132.552 13.7115C132.459 13.9274 132.385 14.0892 132.332 14.1972C132.265 14.3321 132.145 14.5142 131.971 14.7435C131.798 14.9594 131.571 15.1617 131.29 15.3506C131.023 15.5395 130.71 15.6811 130.349 15.7756C130.002 15.87 129.615 15.8633 129.188 15.7553C128.56 15.6069 128.086 15.2697 127.766 14.7435C127.445 14.2174 127.278 13.6238 127.265 12.9628C127.265 12.7469 127.292 12.4299 127.345 12.0117C127.398 11.5935 127.465 11.1281 127.545 10.6154C127.639 10.0893 127.739 9.54291 127.846 8.97631C127.953 8.40971 128.053 7.88357 128.146 7.39791C128.253 6.89876 128.346 6.46706 128.427 6.10281C128.507 5.72508 128.56 5.46876 128.587 5.33385C128.613 5.21244 128.66 5.03706 128.727 4.80772C128.794 4.57838 128.88 4.32206 128.987 4.03875C129.094 3.75545 129.221 3.4654 129.368 3.16861C129.528 2.85833 129.708 2.57503 129.909 2.3187C129.975 2.23776 130.102 2.12984 130.289 1.99493C130.476 1.84653 130.716 1.71837 131.01 1.61045L131.11 1.93422C130.843 2.02866 130.63 2.13658 130.469 2.258C130.309 2.37941 130.209 2.4671 130.169 2.52106C129.969 2.76389 129.795 3.03371 129.648 3.3305C129.515 3.6138 129.395 3.89036 129.288 4.16017C129.194 4.42998 129.114 4.67956 129.047 4.9089C128.981 5.12475 128.934 5.29338 128.907 5.41479C128.88 5.5497 128.827 5.80602 128.747 6.18376C128.667 6.548 128.573 6.9797 128.467 7.47885C128.373 7.96452 128.273 8.49065 128.166 9.05725C128.073 9.61037 127.979 10.1432 127.886 10.6559C127.806 11.1685 127.739 11.634 127.686 12.0522C127.632 12.4569 127.605 12.7537 127.605 12.9425C127.619 13.5766 127.766 14.123 128.046 14.5816C128.326 15.0268 128.734 15.3169 129.268 15.4518C129.642 15.5462 129.982 15.553 130.289 15.472C130.61 15.3776 130.883 15.2494 131.11 15.0875C131.351 14.9257 131.551 14.7503 131.711 14.5614C131.871 14.3591 131.978 14.1904 132.031 14.0555C132.085 13.9476 132.152 13.7857 132.232 13.5699C132.325 13.354 132.419 13.1044 132.512 12.8211C132.606 12.5378 132.692 12.241 132.772 11.9307C132.866 11.607 132.939 11.2967 132.993 10.9999L133.313 11.0606Z" fill="black"/>
<path d="M40.0818 2.82411C39.2976 3.69392 38.6666 4.69222 38.216 5.77597C37.835 6.67793 37.4964 7.66517 37.7015 8.62616C37.7519 8.94989 37.9231 9.24201 38.1802 9.44285C38.3634 9.54431 38.5719 9.59025 38.7804 9.57512C38.989 9.55999 39.1888 9.48444 39.3557 9.35757C39.6838 9.09776 39.9424 8.75955 40.1079 8.37362C40.7038 7.14039 40.5703 5.82189 40.4335 4.46075C40.3875 3.90211 40.2693 3.35191 40.0818 2.82411ZM40.0818 2.82411C40.3434 2.54142 40.6387 2.29244 40.961 2.08286C42.13 1.34817 43.7875 1.27274 44.5429 2.60764C45.002 3.40136 44.8034 4.51323 44.7057 5.33647C44.4322 7.71765 43.3088 10.1021 41.8597 12.0044C40.3586 13.9887 39.0952 14.9825 36.4999 15.7008C34.302 16.3141 31.2606 16.0288 29.6162 14.4315C29.0063 13.9067 28.524 13.2481 28.2062 12.5062C26.8712 8.86232 27.2684 3.59487 30.7917 1.58432C31.6969 1.06939 33.3609 0.551171 34.2531 1.64664C34.4514 1.91213 34.5963 2.21406 34.6797 2.53548C34.3541 2.93562 34.0284 3.39808 33.6507 3.88678C32.5794 5.36271 31.6676 6.77305 31.3127 8.47857C31.2307 8.72933 31.2494 9.00246 31.3648 9.2395C31.6904 9.75115 32.4817 9.38053 32.8887 8.92791C34.1172 7.55727 34.8173 5.78854 34.862 3.94254C34.8675 3.46504 34.8062 2.98914 34.6797 2.52892C35.2115 1.8514 35.9652 1.38639 36.806 1.21698C37.4624 1.12495 38.131 1.18668 38.7598 1.39737C39.0721 1.5194 39.3532 1.71074 39.582 1.95717C39.8109 2.2036 39.9817 2.49879 40.0818 2.82083V2.82411ZM38.0563 9.52677C38.2448 9.63193 38.4593 9.67954 38.6739 9.66386C38.8885 9.64818 39.094 9.56987 39.2658 9.43839C39.6034 9.1691 39.8695 8.81857 40.0398 8.41857C40.6596 7.14039 40.5222 5.77383 40.3748 4.36308C40.3275 3.78408 40.2058 3.21382 40.013 2.66678C39.206 3.5683 38.5568 4.60299 38.0931 5.72624M38.0563 9.52677C37.7918 9.31861 37.6156 9.01584 37.5637 8.68032C37.3527 7.6843 37.7011 6.66108 38.0931 5.72624M38.0563 9.52677C38.2451 9.63193 38.4609 9.67954 38.6758 9.66386C38.8908 9.64818 39.0967 9.56987 39.2687 9.43839C39.6069 9.1691 39.8733 8.81857 40.0439 8.41857C40.6581 7.14039 40.5205 5.77383 40.3795 4.36308C40.3321 3.78408 40.2103 3.21382 40.0171 2.66678C39.2088 3.5683 38.5575 4.60299 38.0931 5.72624M39.8334 2.94589C39.7353 2.63212 39.5689 2.34424 39.3464 2.10316C39.1238 1.86208 38.8507 1.67385 38.5467 1.55214C37.9256 1.34441 37.2652 1.28355 36.6168 1.37428C35.7862 1.54131 35.0418 1.99978 34.5164 2.66779C34.1948 3.0623 33.8731 3.51826 33.5 4.00009M33.6435 3.87935C32.5724 5.35484 31.6609 6.76475 31.306 8.46975C31.224 8.72043 31.2427 8.99348 31.3581 9.23045C31.6837 9.74195 32.4748 9.37144 32.8817 8.91896C34.1085 7.55043 34.8083 5.78482 34.8546 3.94165C34.8601 3.46429 34.7987 2.98854 34.6722 2.52846C34.5881 2.20943 34.4433 1.90989 34.2458 1.64645C33.3538 0.551306 31.6902 1.06937 30.7852 1.58415C27.2627 3.59409 26.8785 8.85994 28.2003 12.5028C28.5171 13.2467 28.9994 13.9075 29.6099 14.434C31.254 16.021 34.2946 16.3161 36.4921 15.7029C39.0965 14.9849 40.3499 13.9914 41.8507 12.0076C43.2994 10.1059 44.4323 7.72218 44.7057 5.33844C44.8034 4.51545 45.002 3.40392 44.543 2.61043C43.7779 1.27593 42.1209 1.35135 40.9619 2.08581C40.6397 2.29533 40.3444 2.54423 40.0829 2.82684M40.3399 2.82411C39.5707 3.69392 38.9519 4.69222 38.5099 5.77597C38.1363 6.67793 37.8041 7.66517 38.0053 8.62616C38.0547 8.94989 38.2227 9.24201 38.4748 9.44285C38.6545 9.54431 38.8589 9.59025 39.0635 9.57512C39.268 9.55999 39.464 9.48444 39.6277 9.35757C39.9495 9.09776 40.2031 8.75955 40.3654 8.37362C40.9499 7.14039 40.8189 5.82189 40.6848 4.46075C40.6397 3.90211 40.5237 3.35191 40.3399 2.82411ZM40.3399 2.82411C40.5964 2.54142 40.886 2.29244 41.2021 2.08286C42.3487 1.34817 43.9742 1.27274 44.7152 2.60764C45.1655 3.40136 44.9706 4.51323 44.8748 5.33647C44.6066 7.71765 43.5048 10.1021 42.0836 12.0044C40.6113 13.9887 39.3722 14.9825 36.8269 15.7008C34.6711 16.3141 31.6883 16.0288 30.0755 14.4315C29.4774 13.9067 29.0043 13.2481 28.6926 12.5062C27.3832 8.86232 27.7729 3.59487 31.2284 1.58432C32.1162 1.06939 33.7482 0.551171 34.6232 1.64664C34.8177 1.91213 34.9598 2.21406 35.0416 2.53548C34.7222 2.93562 34.4029 3.39808 34.0324 3.88678C32.9817 5.36271 32.0875 6.77305 31.7394 8.47857C31.6589 8.72933 31.6773 9.00246 31.7905 9.2395C32.1098 9.75115 32.8859 9.38053 33.2851 8.92791C34.49 7.55727 35.1766 5.78854 35.2205 3.94254C35.2259 3.46504 35.1657 2.98914 35.0416 2.52892C35.5632 1.8514 36.3024 1.38639 37.1271 1.21698C37.7708 1.12495 38.4265 1.18668 39.0432 1.39737C39.3496 1.5194 39.6252 1.71074 39.8497 1.95717C40.0742 2.2036 40.2417 2.49879 40.3399 2.82083V2.82411ZM6.31058 10.7773C6.27053 11.0201 6.24382 11.1955 6.23047 11.3034C6.21712 11.3979 6.20377 11.4653 6.19042 11.5058C6.13701 11.87 6.09028 12.1736 6.05022 12.4164C6.01017 12.6592 5.97012 12.8751 5.93006 13.064C5.89001 13.2393 5.84995 13.408 5.8099 13.5699C5.76984 13.7317 5.72311 13.9071 5.66971 14.096C5.54954 14.5412 5.30921 14.9122 4.94872 15.209C4.60158 15.5058 4.05417 15.6676 3.30648 15.6946C2.97269 15.6946 2.67896 15.6339 2.42528 15.5125C2.18495 15.3911 1.98468 15.2359 1.82446 15.0471C1.66424 14.8447 1.54408 14.6221 1.46397 14.3793C1.38386 14.123 1.33713 13.8666 1.32378 13.6103C1.29707 13.2326 1.32378 12.7739 1.40388 12.2343C1.48399 11.6812 1.58413 11.1011 1.70429 10.494C1.82446 9.87343 1.96465 9.24612 2.12487 8.61206C2.29844 7.97801 2.45866 7.39117 2.60552 6.85154C2.76574 6.29843 2.90593 5.80602 3.0261 5.37432C3.15961 4.94262 3.25307 4.6256 3.30648 4.42324C3.38659 4.15342 3.48673 3.85663 3.60689 3.53286C3.74041 3.20908 3.90063 2.8988 4.08755 2.60201C4.28782 2.30521 4.5148 2.05564 4.76848 1.85328C5.02216 1.63743 5.31589 1.51601 5.64968 1.48903C6.02352 1.46205 6.32393 1.48903 6.55091 1.56998C6.77788 1.65092 6.95813 1.75885 7.09165 1.89375C7.22516 2.01517 7.3253 2.15007 7.39206 2.29847C7.45881 2.43337 7.5189 2.54804 7.5723 2.64248C8.05296 2.1838 8.58034 1.86002 9.15446 1.67116C9.74193 1.4688 10.3294 1.45531 10.9169 1.63068C11.4376 1.79257 11.8849 2.06238 12.2587 2.44012C12.6325 2.80437 12.9196 3.24955 13.1199 3.77569C13.3201 4.30182 13.427 4.88866 13.4403 5.53621C13.4537 6.17027 13.3669 6.83805 13.18 7.53956C12.9663 8.32202 12.6726 9.03027 12.2988 9.66433C11.9383 10.2849 11.5244 10.7908 11.0571 11.182C10.5898 11.5732 10.0824 11.8431 9.53498 11.9915C8.98757 12.1264 8.4268 12.1061 7.85268 11.9307C7.50554 11.8228 7.19846 11.6609 6.93143 11.4451C6.67775 11.2292 6.4708 11.0066 6.31058 10.7773ZM6.31058 10.7773C6.23047 10.6694 6.15704 10.5615 6.09028 10.4535C6.03687 10.3456 5.98347 10.2377 5.93006 10.1298C5.89001 10.0488 5.82325 10.0286 5.72979 10.069C5.62297 10.096 5.59627 10.1635 5.64968 10.2714C5.70308 10.3793 5.75649 10.494 5.8099 10.6154C5.87665 10.7233 5.95676 10.838 6.05022 10.9594C6.11698 11.0674 6.18374 11.1685 6.2505 11.263C6.33061 11.3439 6.40404 11.4181 6.4708 11.4856C6.53756 11.553 6.61767 11.553 6.71113 11.4856C6.77788 11.3911 6.77788 11.3102 6.71113 11.2427C6.64437 11.1753 6.57761 11.1078 6.51085 11.0404C6.4441 10.9594 6.37734 10.8717 6.31058 10.7773ZM107.316 6.79083C107.382 6.77734 107.449 6.7706 107.516 6.7706C107.649 6.7706 107.843 6.79083 108.097 6.83131C108.35 6.87178 108.617 6.96621 108.898 7.11461C108.965 6.76385 109.031 6.40635 109.098 6.04211C109.165 5.67786 109.232 5.30012 109.298 4.9089C109.338 4.70654 109.392 4.48394 109.459 4.24111C109.539 3.99828 109.626 3.7622 109.719 3.53286C109.826 3.29003 109.946 3.06069 110.079 2.84484C110.213 2.62899 110.353 2.44687 110.5 2.29847C110.54 2.258 110.614 2.19729 110.72 2.11635C110.827 2.0354 110.967 1.95446 111.141 1.87352C111.314 1.79257 111.508 1.73186 111.722 1.69139C111.949 1.63743 112.202 1.63068 112.483 1.67116C112.75 1.71163 112.977 1.78583 113.164 1.89375C113.351 1.98819 113.511 2.10286 113.644 2.23776C113.778 2.37267 113.878 2.51432 113.945 2.66272C114.012 2.81111 114.058 2.94602 114.085 3.06743C114.152 3.36423 114.185 3.66776 114.185 3.97805C114.198 4.27484 114.178 4.62559 114.125 5.03031C114.072 5.42154 113.991 5.89371 113.885 6.44682C113.778 6.98645 113.644 7.66098 113.484 8.47041C113.324 9.30683 113.197 10.0016 113.104 10.5547C113.01 11.0943 112.917 11.5665 112.823 11.9712C112.743 12.3624 112.65 12.7199 112.543 13.0437C112.449 13.3675 112.309 13.7183 112.122 14.096C112.042 14.2309 111.922 14.3995 111.762 14.6019C111.602 14.7908 111.408 14.9661 111.181 15.128C110.954 15.2764 110.694 15.3911 110.4 15.472C110.12 15.553 109.819 15.5597 109.499 15.4923C108.925 15.3708 108.517 15.1348 108.277 14.784C108.037 14.4198 107.89 14.0083 107.836 13.5496C107.783 13.0774 107.796 12.585 107.876 12.0724C107.97 11.5463 108.063 11.0539 108.157 10.5952C108.023 10.6222 107.897 10.6424 107.776 10.6559C107.67 10.6694 107.583 10.6761 107.516 10.6761C107.396 10.6761 107.242 10.6626 107.055 10.6357C106.882 10.6087 106.688 10.5547 106.475 10.4738C106.394 10.9324 106.321 11.3304 106.254 11.6677C106.201 11.9915 106.134 12.2882 106.054 12.5581C105.987 12.8279 105.907 13.0842 105.814 13.327C105.734 13.5564 105.62 13.8127 105.473 14.096C105.38 14.2849 105.246 14.4737 105.073 14.6626C104.912 14.838 104.712 14.9931 104.472 15.128C104.245 15.2494 103.978 15.3371 103.671 15.3911C103.364 15.4316 103.01 15.4113 102.609 15.3304C102.222 15.2494 101.922 15.0336 101.708 14.6828C101.508 14.3186 101.368 13.8666 101.287 13.327C101.221 12.7874 101.201 12.1803 101.227 11.5058C101.267 10.8313 101.348 10.1365 101.468 9.4215C101.588 8.7065 101.728 7.99824 101.888 7.29673C102.062 6.58173 102.242 5.92744 102.429 5.33385C102.616 4.74027 102.796 4.22088 102.97 3.77569C103.157 3.3305 103.317 3.01347 103.45 2.8246C103.758 2.40639 104.091 2.09611 104.452 1.89375C104.826 1.6779 105.286 1.6037 105.834 1.67116C106.101 1.71163 106.328 1.78583 106.515 1.89375C106.702 1.98819 106.862 2.10286 106.995 2.23776C107.129 2.37267 107.229 2.51432 107.296 2.66272C107.362 2.81111 107.409 2.94602 107.436 3.06743C107.489 3.31026 107.523 3.55309 107.536 3.79592C107.549 4.02526 107.543 4.28159 107.516 4.56489C107.503 4.84819 107.463 5.17196 107.396 5.53621C107.342 5.88697 107.269 6.30517 107.176 6.79083C107.202 6.79083 107.249 6.79083 107.316 6.79083ZM107.316 6.79083C107.463 6.79083 107.629 6.79083 107.816 6.79083C107.923 6.79083 107.977 6.73687 107.977 6.62895C107.977 6.548 107.923 6.49404 107.816 6.46706C107.629 6.46706 107.456 6.46706 107.296 6.46706C107.135 6.46706 106.929 6.49404 106.675 6.548C106.394 6.61546 106.154 6.70989 105.954 6.83131C105.874 6.89876 105.854 6.97296 105.894 7.0539C105.92 7.09437 105.954 7.12135 105.994 7.13485C106.047 7.14834 106.087 7.14159 106.114 7.11461C106.274 7.00668 106.488 6.919 106.755 6.85154C106.982 6.81107 107.169 6.79083 107.316 6.79083ZM34.6472 2.66678C34.7761 3.1092 34.8386 3.56668 34.833 4.0257C34.7819 5.79262 34.0692 7.48422 32.8231 8.7961C32.4086 9.23121 31.6027 9.58749 31.271 9.09563C31.1535 8.86776 31.1344 8.6052 31.2179 8.36415C31.5794 6.74038 32.5081 5.38462 33.5992 3.95003C33.9906 3.49601 34.299 3.05144 34.6472 2.66678ZM11.037 5.05055C10.9436 4.95611 10.7834 4.96961 10.5564 5.09102C10.3427 5.21244 10.1158 5.37432 9.87544 5.57668C9.64847 5.77904 9.43484 5.98814 9.23457 6.20399C9.04765 6.40635 8.92081 6.54126 8.85405 6.60871C8.33334 7.25626 7.9862 7.80937 7.81263 8.26805C7.63906 8.71324 7.60568 8.97631 7.71249 9.05725C7.81931 9.1382 8.07299 9.05725 8.47353 8.81442C8.88743 8.5581 9.36141 8.11291 9.89547 7.47885C10.4295 6.8448 10.7767 6.30517 10.9369 5.85998C11.1105 5.4013 11.1438 5.13149 11.037 5.05055ZM6.51085 11.5058C6.45745 11.8835 6.41072 12.2006 6.37066 12.4569C6.33061 12.6997 6.29055 12.9223 6.2505 13.1247C6.21044 13.3135 6.16371 13.4889 6.11031 13.6508C6.07025 13.8127 6.02352 13.9881 5.97012 14.1769C5.82325 14.7031 5.54287 15.1348 5.12897 15.472C4.71507 15.7958 4.10757 15.9712 3.30648 15.9982C2.93264 16.0117 2.59885 15.9509 2.30511 15.816C2.02473 15.6811 1.79108 15.5058 1.60416 15.2899C1.41724 15.0606 1.27037 14.8042 1.16356 14.5209C1.0701 14.2241 1.01669 13.9274 1.00334 13.6306C0.989986 13.2393 1.01669 12.7672 1.08345 12.2141C1.16356 11.6474 1.26369 11.0539 1.38386 10.4333C1.51737 9.81273 1.66424 9.18541 1.82446 8.55136C1.98468 7.90381 2.13822 7.30348 2.28509 6.75036C2.44531 6.19725 2.5855 5.71159 2.70566 5.29338C2.83918 4.86168 2.93264 4.54465 2.98604 4.34229C3.06615 4.09946 3.17297 3.80267 3.30648 3.45191C3.44 3.10116 3.61357 2.76389 3.82719 2.44012C4.04082 2.11635 4.2945 1.83304 4.58823 1.59021C4.88196 1.34738 5.2291 1.21248 5.62965 1.1855C5.95009 1.15851 6.22379 1.172 6.45077 1.22597C6.67775 1.27993 6.87135 1.35413 7.03156 1.44856C7.19178 1.543 7.31862 1.65092 7.41208 1.77234C7.5189 1.89375 7.60568 2.01517 7.67244 2.13658C7.84601 1.98819 8.04628 1.84653 8.27326 1.71163C8.51359 1.56323 8.78062 1.44856 9.07435 1.36762C9.36809 1.27318 9.67517 1.21922 9.99561 1.20573C10.3294 1.17875 10.6699 1.21922 11.017 1.32715C11.5911 1.50252 12.0785 1.79257 12.479 2.19729C12.8795 2.60201 13.1866 3.08767 13.4003 3.65427C13.6272 4.20739 13.7474 4.82795 13.7607 5.51597C13.7741 6.1905 13.6806 6.89201 13.4804 7.62051C13.2534 8.45692 12.9396 9.20565 12.5391 9.86669C12.1519 10.5142 11.7046 11.0471 11.1972 11.4653C10.7032 11.8835 10.1625 12.1668 9.57503 12.3152C8.98757 12.4501 8.38675 12.4232 7.77257 12.2343C7.45214 12.1399 7.18511 12.0184 6.97148 11.87C6.75786 11.7216 6.60431 11.6002 6.51085 11.5058ZM11.2373 4.80772C11.3575 4.90215 11.4109 5.05729 11.3975 5.27314C11.3975 5.4755 11.3374 5.71159 11.2173 5.9814C11.1105 6.23772 10.9636 6.51428 10.7767 6.81107C10.5898 7.10786 10.3761 7.39791 10.1358 7.68121C9.89547 7.96452 9.64847 8.22758 9.39479 8.47041C9.14111 8.69975 8.89411 8.89537 8.65378 9.05725C8.41345 9.21914 8.19315 9.32707 7.99288 9.38103C7.7926 9.4215 7.63238 9.39452 7.51222 9.30008C7.39206 9.19216 7.33865 9.03702 7.352 8.83466C7.36535 8.61881 7.42543 8.38272 7.53225 8.1264C7.65241 7.85659 7.80595 7.57329 7.99288 7.2765C8.19315 6.9797 8.40677 6.68965 8.63375 6.40635C8.86073 6.12305 9.10105 5.85998 9.35473 5.61715C9.60841 5.37432 9.85542 5.17871 10.0957 5.03031C10.3361 4.86843 10.5564 4.76725 10.7566 4.72678C10.9569 4.67281 11.1171 4.69979 11.2373 4.80772ZM25.4087 13.5901C25.5822 12.8886 25.6757 12.1129 25.6891 11.263C25.7158 10.3996 25.669 9.52942 25.5489 8.65254C25.4287 7.76216 25.2418 6.89876 24.9881 6.06234C24.7344 5.21244 24.4207 4.46371 24.0468 3.81616C23.6863 3.16861 23.2657 2.65597 22.7851 2.27823C22.3044 1.88701 21.777 1.69814 21.2029 1.71163C20.4686 1.72512 19.7743 1.97469 19.1201 2.46036C18.4659 2.94602 17.865 3.55309 17.3176 4.28159C16.7702 5.01008 16.2829 5.80602 15.8556 6.66942C15.4284 7.53282 15.0812 8.34225 14.8142 9.09773C14.4404 10.1365 14.2267 11.0539 14.1733 11.8498C14.1199 12.6323 14.1733 13.2933 14.3336 13.8329C14.4938 14.3591 14.7408 14.757 15.0746 15.0268C15.4084 15.2967 15.7755 15.4316 16.1761 15.4316C16.5366 15.4316 16.9037 15.3304 17.2776 15.128C17.6514 14.9122 18.0052 14.5951 18.339 14.1769C18.6728 13.7587 18.9665 13.2326 19.2202 12.5985C19.4873 11.9645 19.6809 11.2157 19.801 10.3524C19.8144 10.2444 19.8745 10.1972 19.9813 10.2107C20.1014 10.2107 20.1615 10.2647 20.1615 10.3726C20.1615 11.236 20.2483 11.9915 20.4219 12.639C20.6088 13.2731 20.8424 13.7992 21.1228 14.2174C21.4166 14.6356 21.7437 14.9526 22.1042 15.1685C22.4647 15.3708 22.8251 15.472 23.1856 15.472C23.6529 15.472 24.0869 15.3169 24.4874 15.0066C24.888 14.6828 25.195 14.2107 25.4087 13.5901ZM21.7837 4.44347C21.7036 4.37602 21.4633 4.45696 21.0627 4.6863C20.6755 4.90215 20.2283 5.32036 19.7209 5.94093C19.6675 6.00838 19.5607 6.15003 19.4005 6.36588C19.2536 6.58173 19.1001 6.81782 18.9398 7.07414C18.793 7.33046 18.6795 7.57329 18.5994 7.80263C18.5193 8.01848 18.5259 8.16687 18.6194 8.24782C18.6995 8.31527 18.9332 8.24107 19.3204 8.02522C19.7209 7.79588 20.1749 7.37093 20.6822 6.75036C21.1896 6.1298 21.5167 5.61041 21.6636 5.1922C21.8238 4.7605 21.8638 4.51093 21.7837 4.44347ZM19.8811 11.7284C19.6942 12.4164 19.4606 13.0167 19.1802 13.5294C18.8998 14.042 18.5927 14.467 18.2589 14.8042C17.9251 15.128 17.578 15.3708 17.2175 15.5327C16.8704 15.7081 16.5232 15.7958 16.1761 15.7958C15.7088 15.7958 15.2815 15.6474 14.8943 15.3506C14.5071 15.0538 14.2134 14.6221 14.0131 14.0555C13.8262 13.4754 13.7528 12.7604 13.7928 11.9105C13.8462 11.0606 14.0732 10.0825 14.4737 8.97631C14.6473 8.47716 14.8609 7.94428 15.1146 7.37768C15.3683 6.81107 15.6554 6.25121 15.9758 5.6981C16.2962 5.13149 16.6434 4.59187 17.0172 4.07923C17.4044 3.55309 17.8183 3.09441 18.2589 2.70319C18.6995 2.29847 19.1601 1.97469 19.6408 1.73186C20.1348 1.48903 20.6488 1.36087 21.1829 1.34738C21.8238 1.33389 22.4046 1.52951 22.9253 1.93422C23.446 2.32545 23.9066 2.85833 24.3072 3.53286C24.7077 4.20739 25.0415 4.97635 25.3085 5.83975C25.5756 6.70315 25.7692 7.60027 25.8893 8.53112C26.0228 9.44848 26.0762 10.3524 26.0495 11.2427C26.0362 12.1331 25.9427 12.9425 25.7692 13.671L25.7491 13.6913C25.5088 14.4063 25.155 14.9459 24.6877 15.3101C24.2204 15.6609 23.7197 15.8363 23.1856 15.8363C22.8251 15.8363 22.4647 15.7486 22.1042 15.5732C21.757 15.4113 21.4299 15.1617 21.1228 14.8245C20.8291 14.4872 20.5687 14.0623 20.3418 13.5496C20.1281 13.037 19.9746 12.4299 19.8811 11.7284ZM22.004 4.18041C22.1242 4.28833 22.1776 4.45022 22.1642 4.66607C22.1509 4.86843 22.0908 5.09777 21.984 5.35409C21.8772 5.61041 21.7303 5.88022 21.5434 6.16352C21.3565 6.44682 21.1562 6.71664 20.9426 6.97296C20.769 7.18881 20.5821 7.39791 20.3818 7.60027C20.1815 7.78914 19.9813 7.96452 19.781 8.1264C19.5807 8.2748 19.3871 8.39622 19.2002 8.49065C19.0266 8.57159 18.8664 8.61206 18.7195 8.61206C18.5727 8.61206 18.4659 8.57834 18.3991 8.51088C18.2789 8.40296 18.2255 8.24782 18.2389 8.04546C18.2522 7.8431 18.3123 7.61376 18.4191 7.35744C18.5259 7.10112 18.6728 6.83131 18.8597 6.548C19.0467 6.25121 19.2469 5.97465 19.4606 5.71833C19.821 5.28663 20.2082 4.9089 20.6221 4.58512C21.036 4.24786 21.3965 4.07923 21.7036 4.07923C21.8371 4.07923 21.9373 4.11295 22.004 4.18041ZM59.232 6.79083C59.0718 6.80432 58.9049 6.81782 58.7313 6.83131C58.5711 6.83131 58.3908 6.83131 58.1905 6.83131C58.0437 6.83131 57.9369 6.82456 57.8701 6.81107C57.7633 7.08088 57.6231 7.4856 57.4495 8.02522C57.2893 8.56485 57.1291 9.14494 56.9689 9.76551C56.822 10.3861 56.6885 11.0066 56.5683 11.6272C56.4615 12.2343 56.4081 12.7402 56.4081 13.1449C56.4081 13.8464 56.6084 14.413 57.0089 14.8447C57.4095 15.2764 57.9102 15.4923 58.511 15.4923C59.2453 15.4923 59.8662 15.1617 60.3735 14.5007C60.8942 13.8262 61.2547 12.7604 61.455 11.3034C61.6152 10.1567 61.7421 9.26636 61.8355 8.6323C61.9423 7.98475 62.0291 7.50584 62.0959 7.19555C62.1626 6.87178 62.216 6.67617 62.2561 6.60871C62.3095 6.54126 62.3629 6.50753 62.4163 6.50753C62.5899 6.52102 62.8302 6.52777 63.1373 6.52777C63.4444 6.52777 63.6981 6.52777 63.8983 6.52777C64.9798 6.52777 65.821 6.3389 66.4218 5.96116C67.0226 5.58343 67.3364 4.98984 67.3631 4.18041C67.3764 3.70824 67.2563 3.32375 67.0026 3.02696C66.7489 2.73017 66.4218 2.48734 66.0212 2.29847C65.6207 2.1096 65.1667 1.97469 64.6594 1.89375C64.152 1.79932 63.6447 1.73861 63.1373 1.71163C62.6299 1.68465 62.1426 1.67116 61.6753 1.67116C61.2214 1.67116 60.8408 1.66441 60.5337 1.65092C60.2534 1.63743 59.8862 1.63068 59.4322 1.63068C58.9916 1.63068 58.5243 1.65092 58.0303 1.69139C57.5363 1.73186 57.0356 1.79932 56.5283 1.89375C56.0343 1.98819 55.587 2.12984 55.1864 2.3187C54.7993 2.50757 54.4788 2.75715 54.2251 3.06743C53.9715 3.36423 53.8446 3.73522 53.8446 4.18041C53.8446 4.9089 54.2385 5.48225 55.0262 5.90046C55.814 6.30517 56.8687 6.50753 58.1905 6.50753C58.3908 6.50753 58.5711 6.50753 58.7313 6.50753C58.8915 6.50753 59.0517 6.49404 59.2119 6.46706C59.2921 6.46706 59.3455 6.52102 59.3722 6.62895C59.3722 6.70989 59.3254 6.76385 59.232 6.79083ZM57.5497 6.81107C56.2012 6.73013 55.1931 6.44682 54.5255 5.96116C53.8713 5.4755 53.5442 4.88192 53.5442 4.18041C53.5442 3.66776 53.6777 3.24281 53.9448 2.90555C54.2118 2.56828 54.5523 2.29172 54.9661 2.07587C55.3934 1.86002 55.8674 1.69814 56.3881 1.59021C56.9222 1.48229 57.4495 1.40809 57.9702 1.36762C58.491 1.32715 58.9783 1.31366 59.4322 1.32715C59.8862 1.32715 60.2534 1.33389 60.5337 1.34738C60.8542 1.36087 61.2481 1.36762 61.7154 1.36762C62.196 1.36762 62.7034 1.38785 63.2374 1.42833C63.7715 1.45531 64.2989 1.51601 64.8196 1.61045C65.3537 1.70488 65.8276 1.86002 66.2415 2.07587C66.6688 2.27823 67.0093 2.54805 67.2629 2.88531C67.53 3.22257 67.6568 3.65427 67.6434 4.18041C67.6301 5.01682 67.3163 5.67112 66.7022 6.14329C66.088 6.60197 65.1534 6.83131 63.8983 6.83131H62.4764C62.4363 6.96621 62.3763 7.23602 62.2962 7.64074C62.2294 8.03197 62.1626 8.47041 62.0959 8.95607C62.0291 9.42824 61.9624 9.88692 61.8956 10.3321C61.8288 10.7773 61.7821 11.1146 61.7554 11.3439C61.5418 12.8144 61.1613 13.9274 60.6139 14.6828C60.0664 15.4383 59.3655 15.816 58.511 15.816C57.8167 15.816 57.2426 15.5665 56.7886 15.0673C56.3347 14.5682 56.1077 13.9274 56.1077 13.1449C56.1077 12.7402 56.1611 12.241 56.2679 11.6474C56.3747 11.0404 56.5016 10.4333 56.6484 9.82622C56.8087 9.20565 56.9689 8.62556 57.1291 8.08593C57.2893 7.53282 57.4295 7.10786 57.5497 6.81107ZM79.1308 10.8582C78.7837 11.6002 78.3631 12.2748 77.8691 12.8818C77.3885 13.4889 76.8611 14.0083 76.287 14.44C75.7262 14.8717 75.132 15.2022 74.5045 15.4316C73.8904 15.6609 73.2695 15.7756 72.642 15.7756C71.9744 15.7756 71.3402 15.6339 70.7394 15.3506C70.0184 14.9999 69.4243 14.494 68.957 13.8329C68.4897 13.1719 68.1625 12.4164 67.9756 11.5665C67.802 10.7166 67.7753 9.80598 67.8955 8.83466C68.0157 7.86334 68.2961 6.9055 68.7367 5.96116C69.0838 5.20569 69.4977 4.53116 69.9783 3.93758C70.459 3.3305 70.9797 2.81786 71.5405 2.39965C72.1146 1.96795 72.7154 1.63743 73.3429 1.40809C73.9705 1.17875 74.5913 1.06408 75.2055 1.06408C75.8731 1.06408 76.5139 1.20573 77.1281 1.48903C77.8491 1.8263 78.4432 2.32545 78.9105 2.98649C79.3778 3.64753 79.6983 4.403 79.8718 5.25291C80.0454 6.10281 80.0721 7.01343 79.952 7.98475C79.8451 8.95607 79.5714 9.91391 79.1308 10.8582ZM78.8104 10.7166C79.2377 9.78575 79.5047 8.86164 79.6115 7.94428C79.7317 7.01343 79.705 6.14329 79.5314 5.33385C79.3578 4.52442 79.0507 3.80941 78.6101 3.18885C78.1829 2.56828 77.6355 2.10286 76.9679 1.79257C76.7009 1.65767 76.4205 1.56323 76.1267 1.50927C75.833 1.44182 75.5326 1.40809 75.2255 1.40809C74.6514 1.40809 74.0706 1.51601 73.4831 1.73186C72.8957 1.94771 72.3282 2.258 71.7808 2.66272C71.2334 3.06743 70.726 3.55984 70.2587 4.13993C69.7914 4.72003 69.3909 5.37432 69.0571 6.10281C68.6298 7.03367 68.3561 7.96452 68.236 8.89537C68.1292 9.81273 68.1625 10.6761 68.3361 11.4856C68.5097 12.295 68.8101 13.01 69.2373 13.6306C69.6779 14.2511 70.2254 14.7166 70.8796 15.0268C71.427 15.2832 72.0211 15.4113 72.662 15.4113C73.2361 15.4113 73.8169 15.3034 74.4044 15.0875C74.9919 14.8717 75.5526 14.5614 76.0867 14.1567C76.6341 13.752 77.1415 13.2596 77.6088 12.6795C78.0761 12.0994 78.4766 11.4451 78.8104 10.7166ZM75.5259 6.14329C75.4992 6.11631 75.4525 6.10281 75.3857 6.10281C75.2522 6.10281 75.0853 6.17701 74.885 6.32541C74.6848 6.46032 74.4845 6.61546 74.2842 6.79083C74.084 6.96621 73.9037 7.14159 73.7435 7.31697C73.5833 7.47885 73.4831 7.59352 73.4431 7.66098C73.3897 7.72843 73.2762 7.87683 73.1026 8.10617C72.9424 8.32202 72.7822 8.56485 72.622 8.83466C72.4751 9.09098 72.3616 9.33381 72.2815 9.56315C72.2014 9.79249 72.2081 9.94763 72.3015 10.0286C72.395 10.1095 72.642 10.0353 73.0425 9.80598C73.4431 9.56315 73.9037 9.12471 74.4244 8.49065C74.9451 7.88357 75.2789 7.36418 75.4258 6.93249C75.586 6.4873 75.6194 6.22423 75.5259 6.14329ZM75.7663 5.90046C75.8864 5.99489 75.9398 6.15003 75.9265 6.36588C75.9131 6.56824 75.853 6.80433 75.7462 7.07414C75.6394 7.33046 75.4925 7.60702 75.3056 7.90381C75.1187 8.18711 74.9051 8.46367 74.6647 8.73348C74.4778 8.94933 74.2776 9.16518 74.0639 9.38103C73.8637 9.58339 73.6634 9.75876 73.4631 9.90716C73.2628 10.0556 73.0692 10.177 72.8823 10.2714C72.7087 10.3658 72.5485 10.4131 72.4017 10.4131C72.2948 10.4131 72.1947 10.3793 72.1012 10.3119C71.9677 10.204 71.9077 10.0488 71.921 9.84645C71.9344 9.6306 71.9944 9.39452 72.1012 9.1382C72.2081 8.86839 72.3549 8.59183 72.5418 8.30853C72.7288 8.01173 72.9357 7.72843 73.1627 7.45862C73.5499 6.99994 73.9504 6.60871 74.3643 6.28494C74.7782 5.94767 75.132 5.77904 75.4258 5.77904C75.5593 5.77904 75.6728 5.81951 75.7663 5.90046ZM94.6473 9.17867C94.4471 9.08423 94.2802 8.95607 94.1466 8.79419C94.0131 8.6323 93.9597 8.45692 93.9864 8.26805C94.0131 8.0522 94.1199 7.87683 94.3069 7.74192C94.4938 7.60702 94.7208 7.53956 94.9878 7.53956C94.6941 7.06739 94.4871 6.46706 94.3669 5.73857C94.3536 5.68461 94.3603 5.64413 94.387 5.61715C94.427 5.57668 94.4671 5.5497 94.5071 5.53621C94.6273 5.50923 94.7007 5.55645 94.7274 5.67786C94.7942 6.08258 94.901 6.47381 95.0479 6.85154C95.1947 7.21579 95.3883 7.53956 95.6287 7.82287C95.8823 8.10617 96.1761 8.33551 96.5099 8.51088C96.857 8.67277 97.2442 8.75372 97.6715 8.75372C98.2055 8.75372 98.6995 8.60532 99.1535 8.30853C99.6074 8.01173 99.9479 7.60702 100.175 7.09437C100.322 6.7706 100.422 6.42659 100.475 6.06234C100.529 5.6981 100.529 5.3406 100.475 4.98984C100.435 4.6256 100.342 4.28159 100.195 3.95781C100.048 3.62055 99.8478 3.31701 99.5941 3.0472C99.1668 2.60201 98.5794 2.24451 97.8317 1.97469C97.0973 1.69139 96.2896 1.54974 95.4084 1.54974C94.7274 1.54974 94.0398 1.65092 93.3456 1.85328C92.6513 2.05564 91.997 2.38616 91.3829 2.84484C90.7687 3.29003 90.2213 3.88361 89.7406 4.6256C89.2733 5.35409 88.9262 6.25121 88.6992 7.31697C88.4055 8.67952 88.3721 9.87343 88.5991 10.8987C88.8394 11.9105 89.2533 12.7537 89.8408 13.4282C90.4416 14.1027 91.1626 14.6086 92.0037 14.9459C92.8582 15.2697 93.7461 15.4316 94.6674 15.4316C95.415 15.4316 96.136 15.3304 96.8303 15.128C97.4578 14.9526 97.9719 14.6828 98.3724 14.3186C98.7863 13.9408 99.0734 13.5159 99.2336 13.0437C99.3938 12.5716 99.4205 12.0724 99.3137 11.5463C99.2202 11.0066 98.9799 10.4873 98.5927 9.9881C98.3524 9.67782 98.0253 9.44174 97.6114 9.27985C97.2108 9.10447 96.817 9.01678 96.4298 9.01678C95.8423 9.01678 95.2949 9.17867 94.7875 9.50244C94.2935 9.81273 93.893 10.2444 93.5859 10.7975C93.5325 10.892 93.4524 10.919 93.3456 10.8785C93.2387 10.7975 93.2187 10.7166 93.2855 10.6357C93.6059 10.0016 94.0599 9.51593 94.6473 9.17867ZM95.2682 7.92404C95.1881 7.91055 95.0946 7.90381 94.9878 7.90381C94.8943 7.90381 94.8009 7.9173 94.7074 7.94428C94.6139 7.97126 94.5338 8.01173 94.4671 8.0657C94.4003 8.11966 94.3603 8.19386 94.3469 8.28829C94.3336 8.39622 94.3936 8.52438 94.5272 8.67277C94.6607 8.82117 94.8543 8.90886 95.108 8.93584C95.3883 8.80093 95.7155 8.71324 96.0893 8.67277C95.7956 8.49739 95.5218 8.24782 95.2682 7.92404ZM98.092 9.09773C98.2389 9.17867 98.3791 9.2731 98.5126 9.38103C98.6461 9.48895 98.7663 9.61711 98.8731 9.76551C99.3004 10.3321 99.5674 10.9122 99.6742 11.5058C99.781 12.0859 99.741 12.639 99.554 13.1651C99.3805 13.6913 99.0667 14.1634 98.6127 14.5816C98.1721 14.9864 97.6114 15.2832 96.9304 15.472C96.1961 15.6744 95.4417 15.7756 94.6674 15.7756C93.6927 15.7756 92.7581 15.6069 91.8635 15.2697C90.969 14.9189 90.2079 14.3928 89.5804 13.6913C88.9529 12.9763 88.5123 12.0859 88.2586 11.0201C88.0049 9.94089 88.0383 8.67952 88.3587 7.23602C88.5991 6.11631 88.9662 5.17196 89.4602 4.403C89.9543 3.63404 90.5217 3.01347 91.1626 2.5413C91.8034 2.06913 92.491 1.72512 93.2254 1.50927C93.9597 1.29342 94.6874 1.1855 95.4084 1.1855C96.3296 1.1855 97.1841 1.33389 97.9719 1.63068C98.7596 1.92748 99.3871 2.3187 99.8544 2.80437C100.135 3.10116 100.355 3.43168 100.515 3.79592C100.676 4.16017 100.782 4.53791 100.836 4.92913C100.889 5.32036 100.889 5.71833 100.836 6.12305C100.782 6.51428 100.676 6.88527 100.515 7.23602C100.288 7.74867 99.9546 8.16688 99.514 8.49065C99.0867 8.81442 98.6127 9.01678 98.092 9.09773ZM107.736 10.9797H107.516C107.316 10.9797 107.142 10.9729 106.995 10.9594C106.862 10.9324 106.775 10.9122 106.735 10.8987C106.668 11.2765 106.601 11.6137 106.535 11.9105C106.481 12.1938 106.421 12.4636 106.354 12.7199C106.288 12.9763 106.208 13.2258 106.114 13.4687C106.034 13.7115 105.92 13.9678 105.774 14.2376C105.653 14.4535 105.5 14.6693 105.313 14.8852C105.126 15.0875 104.899 15.2629 104.632 15.4113C104.365 15.5462 104.058 15.6407 103.711 15.6946C103.364 15.7486 102.976 15.7351 102.549 15.6542C102.109 15.5597 101.761 15.3236 101.508 14.9459C101.254 14.5682 101.081 14.096 100.987 13.5294C100.894 12.9628 100.86 12.3287 100.887 11.6272C100.927 10.9122 101 10.1837 101.107 9.44174C101.227 8.69975 101.374 7.96452 101.548 7.23602C101.735 6.50753 101.922 5.833 102.109 5.21244C102.309 4.59187 102.502 4.05899 102.689 3.6138C102.876 3.15512 103.037 2.83135 103.17 2.64248C103.49 2.21078 103.864 1.86677 104.292 1.61045C104.719 1.35413 105.253 1.26644 105.894 1.34738C106.201 1.38785 106.468 1.4688 106.695 1.59021C106.922 1.71163 107.109 1.85328 107.256 2.01517C107.402 2.17705 107.516 2.34569 107.596 2.52106C107.69 2.69644 107.75 2.85833 107.776 3.00672C107.83 3.24956 107.863 3.49239 107.876 3.73522C107.89 3.96456 107.883 4.21413 107.856 4.48394C107.843 4.74027 107.81 5.03031 107.756 5.35409C107.716 5.67786 107.656 6.04885 107.576 6.46706C107.643 6.46706 107.776 6.47381 107.977 6.4873C108.177 6.50079 108.404 6.55475 108.658 6.64918C108.711 6.39286 108.758 6.11631 108.798 5.81951C108.851 5.52272 108.911 5.19895 108.978 4.84819C108.991 4.74027 109.025 4.57838 109.078 4.36253C109.145 4.13319 109.225 3.89036 109.318 3.63404C109.425 3.36423 109.552 3.09441 109.699 2.8246C109.859 2.5413 110.046 2.29172 110.26 2.07587C110.3 2.0354 110.38 1.96795 110.5 1.87352C110.634 1.76559 110.794 1.67116 110.981 1.59021C111.181 1.49578 111.408 1.42158 111.662 1.36762C111.929 1.31366 112.222 1.30691 112.543 1.34738C112.85 1.38785 113.11 1.4688 113.324 1.59021C113.551 1.71163 113.738 1.85328 113.885 2.01517C114.045 2.17705 114.165 2.34569 114.245 2.52106C114.339 2.69644 114.399 2.85833 114.425 3.00672C114.492 3.3305 114.526 3.65427 114.526 3.97805C114.526 4.28833 114.499 4.64583 114.445 5.05055C114.392 5.45527 114.312 5.93418 114.205 6.4873C114.098 7.04041 113.965 7.72169 113.805 8.53112C113.644 9.36754 113.517 10.0623 113.424 10.6154C113.331 11.1685 113.237 11.6474 113.144 12.0522C113.064 12.4569 112.97 12.8279 112.863 13.1651C112.756 13.4889 112.61 13.8464 112.423 14.2376C112.343 14.413 112.209 14.6086 112.022 14.8245C111.835 15.0268 111.608 15.2157 111.341 15.3911C111.088 15.5665 110.8 15.6946 110.48 15.7756C110.16 15.87 109.812 15.8767 109.439 15.7958C108.811 15.6609 108.357 15.4113 108.077 15.0471C107.796 14.6693 107.616 14.2444 107.536 13.7722C107.456 13.3 107.449 12.8144 107.516 12.3152C107.583 11.8161 107.656 11.3709 107.736 10.9797ZM107.015 10.6154C107.122 10.6694 107.155 10.7368 107.115 10.8178C107.102 10.8582 107.075 10.892 107.035 10.919C106.995 10.9459 106.955 10.9459 106.915 10.919C106.742 10.8785 106.575 10.838 106.414 10.7975C106.268 10.7436 106.081 10.6559 105.854 10.5345C105.613 10.3861 105.413 10.2242 105.253 10.0488C105.173 9.94089 105.179 9.86669 105.273 9.82622C105.3 9.79924 105.333 9.78575 105.373 9.78575C105.426 9.78575 105.467 9.80598 105.493 9.84645C105.56 9.91391 105.633 9.9881 105.714 10.069C105.807 10.1365 105.907 10.1972 106.014 10.2512C106.214 10.3591 106.388 10.44 106.535 10.494C106.682 10.5345 106.842 10.5749 107.015 10.6154ZM108.638 6.64918C108.664 6.55475 108.731 6.50753 108.838 6.50753C108.878 6.52102 108.911 6.548 108.938 6.58848C108.978 6.61546 108.991 6.64918 108.978 6.68965L108.838 7.8431C108.811 7.93753 108.751 7.98475 108.658 7.98475C108.551 7.95777 108.497 7.89706 108.497 7.80263L108.638 6.64918ZM108.277 9.9881C108.25 10.177 108.217 10.3726 108.177 10.5749C108.137 10.7638 108.103 10.9527 108.077 11.1416C108.05 11.2495 107.983 11.2899 107.876 11.263C107.756 11.236 107.71 11.1753 107.736 11.0808C107.776 10.892 107.81 10.7031 107.836 10.5142C107.876 10.3119 107.917 10.1163 107.957 9.9274C107.983 9.81947 108.05 9.779 108.157 9.80598C108.264 9.83296 108.304 9.89367 108.277 9.9881ZM119.536 6.00164C119.429 5.94767 119.402 5.87347 119.456 5.77904C119.509 5.68461 119.576 5.65763 119.656 5.6981C120.016 5.833 120.417 5.97465 120.858 6.12305C121.058 6.17701 121.251 6.23098 121.438 6.28494C121.625 6.32541 121.806 6.35914 121.979 6.38612C122.219 6.4131 122.473 6.43333 122.74 6.44682C123.007 6.44682 123.294 6.43333 123.601 6.40635C123.922 6.36588 124.262 6.30517 124.623 6.22423C124.983 6.1298 125.317 6.00838 125.624 5.85998C125.945 5.6981 126.218 5.50923 126.445 5.29338C126.672 5.07753 126.806 4.82121 126.846 4.52442C126.939 3.95781 126.812 3.4789 126.465 3.08767C126.131 2.69644 125.544 2.33894 124.703 2.01517C124.316 1.86677 123.808 1.76559 123.181 1.71163C122.567 1.64417 121.919 1.63743 121.238 1.69139C120.571 1.73186 119.93 1.83979 119.316 2.01517C118.701 2.17705 118.201 2.41314 117.813 2.72342C117.56 2.92578 117.313 3.29677 117.072 3.8364C116.832 4.37602 116.605 4.99659 116.392 5.6981C116.191 6.38612 116.004 7.12135 115.831 7.90381C115.657 8.68626 115.51 9.42824 115.39 10.1298C115.27 10.8178 115.177 11.4249 115.11 11.951C115.043 12.4771 115.01 12.8414 115.01 13.0437C114.996 13.7183 115.157 14.2241 115.49 14.5614C115.837 14.8852 116.298 15.1348 116.872 15.3101C117.072 15.3641 117.453 15.4181 118.014 15.472C118.575 15.5125 119.202 15.526 119.896 15.5125C120.591 15.5125 121.285 15.4585 121.979 15.3506C122.687 15.2427 123.288 15.0673 123.782 14.8245C124.249 14.5817 124.609 14.3388 124.863 14.096C125.117 13.8397 125.29 13.5901 125.384 13.3473C125.491 13.1044 125.531 12.8683 125.504 12.639C125.491 12.4097 125.451 12.1938 125.384 11.9915C125.277 11.7082 125.09 11.4788 124.823 11.3034C124.556 11.1146 124.249 10.9729 123.902 10.8785C123.568 10.784 123.214 10.7233 122.84 10.6964C122.466 10.6694 122.119 10.6626 121.799 10.6761C121.639 10.6761 121.492 10.6896 121.358 10.7166C121.225 10.7301 121.145 10.7368 121.118 10.7368C121.051 10.7503 120.891 10.7908 120.637 10.8582C120.397 10.9257 120.123 11.0336 119.816 11.182C119.709 11.2495 119.583 11.3237 119.436 11.4046C119.289 11.4856 119.142 11.58 118.995 11.6879C118.928 11.7554 118.855 11.7486 118.775 11.6677C118.721 11.5867 118.735 11.5125 118.815 11.4451C118.975 11.3102 119.129 11.2023 119.275 11.1213C119.422 11.0404 119.549 10.9662 119.656 10.8987C120.003 10.7233 120.31 10.6019 120.577 10.5345C120.844 10.467 121.004 10.4333 121.058 10.4333C121.058 10.4198 121.131 10.4063 121.278 10.3928C121.425 10.3793 121.592 10.3658 121.779 10.3524C122.113 10.3389 122.48 10.3456 122.88 10.3726C123.281 10.3996 123.668 10.467 124.042 10.5749C124.416 10.6829 124.75 10.8448 125.043 11.0606C125.35 11.263 125.564 11.5328 125.684 11.87C125.844 12.3152 125.884 12.7199 125.804 13.0842C125.724 13.435 125.577 13.7452 125.364 14.015C125.163 14.2714 124.923 14.494 124.643 14.6828C124.376 14.8582 124.135 14.9999 123.922 15.1078C123.401 15.3776 122.774 15.5665 122.039 15.6744C121.318 15.7823 120.604 15.8363 119.896 15.8363C119.189 15.8498 118.548 15.8295 117.974 15.7756C117.4 15.7351 117.006 15.6811 116.792 15.6137C116.165 15.4248 115.651 15.1415 115.25 14.7638C114.863 14.386 114.676 13.8127 114.689 13.0437C114.689 12.8683 114.723 12.5176 114.789 11.9915C114.856 11.4518 114.95 10.8313 115.07 10.1298C115.203 9.42824 115.35 8.67952 115.51 7.88357C115.684 7.07414 115.877 6.30517 116.091 5.57668C116.318 4.84819 116.558 4.20739 116.812 3.65427C117.066 3.08767 117.333 2.6897 117.613 2.46036C118.027 2.13658 118.554 1.88701 119.195 1.71163C119.85 1.52276 120.524 1.40809 121.218 1.36762C121.912 1.31366 122.58 1.3204 123.221 1.38785C123.875 1.44182 124.402 1.54974 124.803 1.71163C125.19 1.86002 125.537 2.02866 125.844 2.21753C126.165 2.3929 126.432 2.59526 126.646 2.8246C126.859 3.05394 127.013 3.31701 127.106 3.6138C127.2 3.8971 127.22 4.22088 127.166 4.58512C127.113 4.93588 126.959 5.23942 126.706 5.49574C126.452 5.75206 126.152 5.96791 125.804 6.14329C125.471 6.30517 125.11 6.43333 124.723 6.52777C124.336 6.60871 123.975 6.66942 123.641 6.70989C123.348 6.75036 123.067 6.7706 122.8 6.7706C122.547 6.75711 122.3 6.73687 122.059 6.70989C122.046 6.72338 122.033 6.72338 122.019 6.70989H121.919L121.899 6.68965H121.879C121.705 6.66267 121.525 6.62895 121.338 6.58848C121.151 6.548 120.964 6.49404 120.778 6.42659C120.284 6.27819 119.87 6.13654 119.536 6.00164ZM124.643 11.0606C124.549 11.0876 124.483 11.0539 124.443 10.9594C124.402 10.8785 124.429 10.811 124.523 10.7571C124.549 10.7436 124.636 10.6964 124.783 10.6154C124.943 10.5345 125.117 10.4131 125.304 10.2512C125.491 10.0893 125.664 9.89367 125.824 9.66433C125.998 9.43499 126.105 9.16518 126.145 8.8549C126.212 8.38272 126.118 7.93754 125.864 7.51933C125.611 7.08763 125.237 6.75036 124.743 6.50753C124.649 6.45357 124.623 6.38612 124.663 6.30517C124.716 6.19725 124.79 6.17027 124.883 6.22423C125.431 6.49404 125.844 6.87178 126.125 7.35744C126.419 7.8431 126.532 8.35574 126.465 8.89537C126.412 9.24612 126.292 9.5564 126.105 9.82622C125.918 10.096 125.718 10.3186 125.504 10.494C125.304 10.6694 125.117 10.8043 124.943 10.8987C124.77 10.9932 124.669 11.0471 124.643 11.0606ZM118.915 7.13485C119.075 6.94598 119.316 6.74362 119.636 6.52777C119.823 6.40635 119.996 6.31192 120.157 6.24447C120.317 6.17701 120.47 6.12305 120.617 6.08258C120.724 6.0556 120.791 6.08932 120.818 6.18376C120.844 6.29168 120.811 6.35914 120.717 6.38612C120.584 6.42659 120.444 6.48055 120.297 6.548C120.15 6.60197 119.983 6.68966 119.796 6.81107C119.649 6.9055 119.522 6.99994 119.416 7.09437C119.309 7.18881 119.215 7.2765 119.135 7.35744C119.055 7.43838 118.982 7.44513 118.915 7.37768C118.848 7.31022 118.848 7.22928 118.915 7.13485ZM118.615 9.86669C118.548 9.78575 118.548 9.71155 118.615 9.64409C118.695 9.56315 118.768 9.56315 118.835 9.64409C118.915 9.72504 119.008 9.81273 119.115 9.90716C119.222 10.0016 119.349 10.1028 119.496 10.2107C119.683 10.3186 119.843 10.4063 119.976 10.4738C120.123 10.5412 120.257 10.5952 120.377 10.6357C120.484 10.6626 120.524 10.7233 120.497 10.8178C120.47 10.9257 120.404 10.9662 120.297 10.9392C120.15 10.8987 119.996 10.8448 119.836 10.7773C119.689 10.7099 119.522 10.6087 119.336 10.4738C119.175 10.3658 119.035 10.2647 118.915 10.1702C118.795 10.0623 118.695 9.96112 118.615 9.86669ZM132.031 5.83975C131.925 5.78579 131.898 5.71159 131.951 5.61715C132.005 5.52272 132.078 5.49574 132.172 5.53621C132.359 5.60366 132.552 5.67786 132.752 5.7588C132.966 5.83975 133.186 5.91395 133.413 5.9814C133.627 6.03536 133.827 6.08932 134.014 6.14329C134.201 6.18376 134.388 6.21748 134.575 6.24447C134.829 6.28494 135.096 6.30517 135.376 6.30517C135.656 6.30517 135.95 6.29168 136.257 6.2647C136.604 6.22423 136.965 6.15678 137.339 6.06234C137.726 5.96791 138.08 5.84649 138.4 5.6981C138.721 5.53621 138.994 5.3406 139.221 5.11126C139.462 4.88192 139.602 4.61885 139.642 4.32206C139.749 3.71498 139.608 3.20908 139.221 2.80437C138.847 2.39965 138.24 2.02866 137.399 1.69139C137.078 1.55649 136.664 1.45531 136.157 1.38785C135.65 1.3204 135.109 1.29342 134.535 1.30691C133.974 1.3204 133.407 1.37436 132.833 1.4688C132.258 1.54974 131.738 1.68465 131.27 1.87352C131.204 1.9005 131.137 1.92748 131.07 1.95446C131.017 1.98144 130.957 2.00842 130.89 2.0354C130.796 2.08936 130.723 2.06238 130.67 1.95446C130.616 1.86002 130.643 1.78583 130.75 1.73186C130.816 1.70488 130.883 1.6779 130.95 1.65092C131.017 1.62394 131.083 1.59696 131.15 1.56998C131.644 1.38111 132.185 1.23946 132.772 1.14502C133.373 1.05059 133.967 1.00337 134.555 1.00337C135.142 0.989882 135.696 1.01686 136.217 1.08432C136.738 1.15177 137.172 1.25295 137.519 1.38785C138.373 1.72512 139.021 2.12309 139.462 2.58177C139.916 3.04045 140.082 3.63404 139.962 4.36253C139.909 4.74027 139.749 5.06404 139.482 5.33385C139.215 5.59017 138.901 5.80602 138.54 5.9814C138.18 6.15678 137.799 6.29168 137.399 6.38612C136.998 6.48055 136.631 6.548 136.297 6.58848C135.71 6.65593 135.162 6.65593 134.655 6.58848H134.615C134.588 6.58848 134.568 6.58848 134.555 6.58848C134.555 6.57499 134.542 6.56824 134.515 6.56824H134.475C134.288 6.52777 134.101 6.4873 133.914 6.44682C133.727 6.40635 133.534 6.35239 133.333 6.28494C133.093 6.21748 132.859 6.14329 132.632 6.06234C132.419 5.9814 132.218 5.9072 132.031 5.83975ZM136.958 6.16352C136.985 6.17701 137.078 6.23772 137.239 6.34564C137.412 6.44008 137.599 6.58848 137.799 6.79083C138.013 6.9797 138.213 7.20904 138.4 7.47885C138.587 7.74867 138.701 8.05895 138.741 8.40971C138.794 8.80093 138.767 9.14494 138.661 9.44174C138.554 9.72504 138.407 9.97461 138.22 10.1905C138.046 10.3928 137.859 10.5547 137.659 10.6761C137.472 10.7975 137.319 10.892 137.199 10.9594C136.331 11.3911 135.329 11.5193 134.194 11.3439C133.073 11.155 131.958 10.6357 130.85 9.78575C130.77 9.7048 130.763 9.6306 130.83 9.56315C130.883 9.4957 130.957 9.48221 131.05 9.52268C132.118 10.3456 133.186 10.8448 134.254 11.0201C135.323 11.182 136.257 11.0674 137.058 10.6761C137.178 10.6087 137.325 10.521 137.499 10.4131C137.672 10.3051 137.833 10.1635 137.98 9.9881C138.14 9.79924 138.267 9.58339 138.36 9.34056C138.454 9.08424 138.48 8.79419 138.44 8.47041C138.4 8.16013 138.293 7.88357 138.12 7.64074C137.96 7.39791 137.786 7.18881 137.599 7.01343C137.425 6.83805 137.259 6.70315 137.098 6.60871C136.952 6.51428 136.865 6.46706 136.838 6.46706C136.745 6.4131 136.718 6.34565 136.758 6.2647C136.785 6.17027 136.851 6.13654 136.958 6.16352ZM131.23 7.0539C131.31 6.95947 131.411 6.86503 131.531 6.7706C131.651 6.66267 131.791 6.55475 131.951 6.44682C132.152 6.31192 132.325 6.21074 132.472 6.14329C132.632 6.07583 132.786 6.02187 132.933 5.9814C133.04 5.95442 133.106 5.99489 133.133 6.10281C133.16 6.19725 133.126 6.25796 133.033 6.28494C132.899 6.32541 132.759 6.37937 132.612 6.44682C132.465 6.50079 132.298 6.58848 132.112 6.70989C131.965 6.80433 131.838 6.89876 131.731 6.99319C131.624 7.08763 131.531 7.17532 131.451 7.25626C131.371 7.3372 131.297 7.34395 131.23 7.2765C131.164 7.19555 131.164 7.12135 131.23 7.0539ZM133.313 11.0606C133.26 11.3709 133.186 11.6947 133.093 12.0319C133.013 12.3557 132.926 12.6592 132.833 12.9425C132.739 13.2258 132.646 13.4822 132.552 13.7115C132.459 13.9274 132.385 14.0892 132.332 14.1972C132.265 14.3321 132.145 14.5142 131.971 14.7435C131.798 14.9594 131.571 15.1617 131.29 15.3506C131.023 15.5395 130.71 15.6811 130.349 15.7756C130.002 15.87 129.615 15.8633 129.188 15.7553C128.56 15.6069 128.086 15.2697 127.766 14.7435C127.445 14.2174 127.278 13.6238 127.265 12.9628C127.265 12.7469 127.292 12.4299 127.345 12.0117C127.398 11.5935 127.465 11.1281 127.545 10.6154C127.639 10.0893 127.739 9.54291 127.846 8.97631C127.953 8.40971 128.053 7.88357 128.146 7.39791C128.253 6.89876 128.346 6.46706 128.427 6.10281C128.507 5.72508 128.56 5.46876 128.587 5.33385C128.613 5.21244 128.66 5.03706 128.727 4.80772C128.794 4.57838 128.88 4.32206 128.987 4.03875C129.094 3.75545 129.221 3.4654 129.368 3.16861C129.528 2.85833 129.708 2.57503 129.909 2.3187C129.975 2.23776 130.102 2.12984 130.289 1.99493C130.476 1.84653 130.716 1.71837 131.01 1.61045L131.11 1.93422C130.843 2.02866 130.63 2.13658 130.469 2.258C130.309 2.37941 130.209 2.4671 130.169 2.52106C129.969 2.76389 129.795 3.03371 129.648 3.3305C129.515 3.6138 129.395 3.89036 129.288 4.16017C129.194 4.42998 129.114 4.67956 129.047 4.9089C128.981 5.12475 128.934 5.29338 128.907 5.41479C128.88 5.5497 128.827 5.80602 128.747 6.18376C128.667 6.548 128.573 6.9797 128.467 7.47885C128.373 7.96452 128.273 8.49065 128.166 9.05725C128.073 9.61037 127.979 10.1432 127.886 10.6559C127.806 11.1685 127.739 11.634 127.686 12.0522C127.632 12.4569 127.605 12.7537 127.605 12.9425C127.619 13.5766 127.766 14.123 128.046 14.5816C128.326 15.0268 128.734 15.3169 129.268 15.4518C129.642 15.5462 129.982 15.553 130.289 15.472C130.61 15.3776 130.883 15.2494 131.11 15.0875C131.351 14.9257 131.551 14.7503 131.711 14.5614C131.871 14.3591 131.978 14.1904 132.031 14.0555C132.085 13.9476 132.152 13.7857 132.232 13.5699C132.325 13.354 132.419 13.1044 132.512 12.8211C132.606 12.5378 132.692 12.241 132.772 11.9307C132.866 11.607 132.939 11.2967 132.993 10.9999L133.313 11.0606Z" stroke="black" stroke-width="0.5"/>
</svg>
