<svg width="42" height="37" viewBox="0 0 42 37" fill="none" xmlns="http://www.w3.org/2000/svg">
<path d="M17.902 4.8833C17.902 4.8833 17.902 4.87401 17.902 4.86843C19.1075 3.32542 20.8213 2.26387 22.7362 1.87418C24.2297 1.6642 25.7515 1.80546 27.1814 2.2868C27.8934 2.56454 28.5331 3.00118 29.052 3.56368C29.5733 4.12742 29.9619 4.80129 30.1893 5.53568C30.7836 4.89086 31.4555 4.32272 32.1896 3.84433C34.8493 2.17156 38.6185 1.99499 40.3391 5.04129C41.3837 6.85345 40.9318 9.39233 40.7096 11.2714C40.0872 16.7079 37.5312 22.15 34.227 26.4936C30.8116 31.023 27.9296 33.2924 22.0323 34.9317C17.0315 36.3331 10.1137 35.6752 6.37231 32.0341C4.98234 30.8341 3.88493 29.3304 3.16437 27.6385C0.13423 19.3304 1.04735 7.30323 9.05425 2.71242C11.1139 1.53777 14.8997 0.353826 16.9278 2.85554C17.3813 3.46184 17.7123 4.15133 17.902 4.88516C17.1612 5.79775 16.4203 6.85345 15.5627 7.96862C13.1216 11.3383 11.049 14.5575 10.2396 18.4513C10.0527 19.024 10.0952 19.6473 10.3582 20.1891C11.099 21.3563 12.8993 20.5106 13.8254 19.4772C16.6229 16.3404 18.2141 12.3053 18.3132 8.09687C18.3269 7.01164 18.1885 5.92987 17.902 4.8833Z" stroke="black" stroke-width="1.5" stroke-miterlimit="10"/>
<path d="M25.2231 20.2884C25.3395 21.0518 25.7399 21.7425 26.3437 22.2213C26.7717 22.4608 27.2601 22.5694 27.7488 22.5337C28.2375 22.498 28.7052 22.3197 29.0941 22.0206C29.8646 21.4029 30.4699 20.6026 30.8555 19.6918C32.265 16.7737 31.9539 13.6531 31.6186 10.4339C31.5111 9.11259 31.2341 7.8107 30.7944 6.56055C28.9562 8.62437 27.4801 10.9861 26.4289 13.5453C25.5361 15.679 24.7434 18.0153 25.2231 20.2884Z" stroke="black" stroke-width="1.5" stroke-miterlimit="10"/>
</svg>
